<?xml version="1.0" encoding="UTF-8"?>
<svg width="151px" height="151px" viewBox="0 0 151 151" version="1.1" xmlns="http://www.w3.org/2000/svg" xmlns:xlink="http://www.w3.org/1999/xlink">
    <!-- Generator: Sketch 48.2 (47327) - http://www.bohemiancoding.com/sketch -->
    <title>alexa</title>
    <desc>Created with Sketch.</desc>
    <defs></defs>
    <g id="vendor-logos" stroke="none" stroke-width="1" fill="none" fill-rule="evenodd" transform="translate(-130.000000, -263.000000)">
        <g id="alexa" transform="translate(130.000000, 263.000000)">
            <path d="M150.618505,72.4787068 C150.387416,71.5201318 150.261864,70.6006636 150.263684,69.6402697 C150.264593,69.2664799 150.183621,68.8781388 150.510239,68.557098 C150.729501,68.3415551 150.713124,68.0232427 150.603039,67.7640454 C150.128124,66.6408574 150.170884,65.3921633 149.800596,64.2662468 C149.335689,62.8556682 149.674134,61.3232213 149.154639,60.0063174 C148.351286,57.9682086 148.072888,55.8073221 147.469691,53.7282874 C147.017521,52.1676472 145.976711,50.8389203 145.861167,49.1200333 C145.822955,48.5488899 145.463585,47.5339281 144.62293,47.1401302 C144.290854,46.9855213 144.440971,46.6553859 144.371826,46.4016454 C144.294493,46.1197116 144.67206,45.4139675 143.805021,45.7823004 C143.524803,45.9014402 143.548458,45.5340167 143.545729,45.3493955 C143.525713,43.7669282 142.844274,42.4418391 141.979055,41.1749558 C141.856232,40.9948819 141.878977,40.7102197 141.849863,40.4728496 C141.813471,40.1854589 141.72886,39.7743812 141.496861,39.7616487 C140.156728,39.6852537 141.00739,38.8967484 141.011029,38.3874486 C140.46242,36.759508 139.343367,35.4953531 138.323483,34.1666261 C138.087845,34.1611694 137.79398,34.2412022 137.70391,33.9283466 C137.306328,32.5432329 136.183636,31.720168 135.342072,30.6633708 C134.705213,29.8657709 134.205733,28.9108337 133.503368,28.1223284 C132.963858,27.5175348 132.621773,26.6808279 131.654657,26.5853342 C131.570046,26.5762396 131.422658,26.4671039 131.425388,26.4107171 C131.50545,25.0046858 129.816863,24.8946406 129.547563,24.0142795 C129.230953,22.9784 128.094614,22.9702148 127.806208,22.0207344 C127.641534,21.4777843 126.840911,21.3713771 126.418764,20.828427 C125.570832,19.7416176 124.228878,19.1395524 123.330907,18.0227306 C123.061606,17.6889573 122.553029,17.2178549 122.078114,17.1087193 C121.283859,16.925917 121.105539,16.3347654 120.834419,15.7581652 L120.808944,15.738157 C119.656229,15.6945027 119.055762,14.6877261 118.214198,14.1429571 C116.279056,12.8924441 114.308431,11.6974084 112.359642,10.4705415 C111.876539,10.1667805 111.019508,10.3805046 110.959462,9.48104465 L110.907603,9.45376073 C110.414492,9.52469893 110.035106,9.23094205 109.65299,9.01267069 C108.310127,8.24963039 106.71525,8.15959345 105.382394,7.34562317 C103.968567,6.48254183 102.500151,5.77134098 100.783361,5.57216836 C100.165607,5.50123017 99.6624886,4.70635863 98.8882498,4.6263258 C97.2879135,4.45989388 95.8003923,3.77870534 94.2573734,3.39673046 C92.9945725,3.08296538 91.4779378,3.61863968 90.3989163,2.50363681 C90.1578196,2.25444367 89.7511395,2.2662667 89.3963179,2.28809384 C87.9242633,2.37631185 86.5522866,1.90430003 85.1493767,1.5714362 C83.9639087,1.2885929 82.7302214,1.44411124 81.5174595,1.25858058 C78.5351387,0.803848582 75.5136966,0.954819607 72.521368,1.08214457 C69.9984957,1.18855186 67.4374118,1.30769164 64.9700372,1.91339467 C63.5089002,2.27172349 61.9495049,2.24262064 60.5857163,2.77010976 C59.3438408,3.24939729 57.8808842,2.7237271 56.7654708,3.84054889 C56.4042806,4.20251557 55.4817445,4.08064739 54.8348775,4.34439195 C53.5111201,4.88279464 51.9380778,4.65270025 50.7526099,5.6394687 C50.0275001,6.2433528 49.0531055,5.98415555 48.2388355,6.43434024 C46.5757231,7.35380835 44.680612,7.73760216 43.0138605,8.76893434 C42.2614568,9.23548937 41.3998772,10.1476818 40.2353346,9.84755865 C40.2353346,9.84846811 40.2289661,9.85210597 40.2289661,9.85210597 C39.8231957,10.5023727 39.3801237,10.9798413 38.5121755,11.1471827 C37.4577186,11.3499932 36.7253305,12.2803749 35.7973356,12.8115018 C34.1778936,13.7382457 32.724035,14.9360098 31.0254404,15.7354286 L30.9990563,15.7563463 C30.9290018,15.9091362 30.9017078,16.1246792 30.7825241,16.204712 C29.6198011,16.9850322 28.6554143,17.9981751 27.5918594,18.8930876 C27.3489431,19.0968076 27.082372,19.0595196 26.815801,19.0931697 C26.815801,19.0931697 26.8003344,19.1086306 26.8003344,19.1086306 C26.765762,19.3450913 26.8703889,19.6724983 26.6411196,19.7952759 C25.1490494,20.5937853 24.4876256,22.1926231 23.2575775,23.2494202 C21.9410985,24.3817029 20.4581263,25.3812039 19.4637161,26.8108813 C18.9314837,27.57665 18.0489788,28.1296041 17.9115992,29.2045905 C17.8306271,29.848491 17.1491877,29.446508 16.7643428,29.597479 C16.7643428,29.597479 16.73159,29.634767 16.73159,29.634767 C16.7661624,30.8298027 15.9373356,31.3827568 15.0493719,31.8902377 L15.0411837,31.9175217 C15.2895588,32.8715494 14.3934068,33.3208246 14.0549617,33.9983753 C13.1988409,35.7118055 11.8086682,37.0841867 11.0844683,38.9522257 C10.7451133,39.8271301 9.94449025,40.7002156 9.46684583,41.6396919 C8.48153363,43.5750313 7.4407237,45.4903625 6.60916751,47.4911833 C6.10513892,48.7044083 6.14335047,50.0904314 5.41187216,51.2936523 C4.394717,52.9643377 4.05991101,54.889673 3.59864297,56.783177 C3.27202516,58.1264554 3.12372794,59.5534044 2.4968765,60.8275634 C2.43864938,60.9467032 2.40498682,61.1058594 2.42864159,61.2331844 C2.69976166,62.7056066 1.86820547,63.9879509 1.72172785,65.3830686 C1.53067008,67.2165481 1.23225604,69.0436613 1.31504774,70.9007868 C1.3450711,71.5974362 0.870156081,72.2067771 0.939300797,72.9379861 C1.22497765,75.9665013 0.992978932,79.0150246 1.21496986,82.0353546 C1.37327487,84.1762328 1.37964346,86.3707695 1.87184466,88.4516231 C2.2575994,90.0850205 2.53326846,91.7475207 2.98907771,93.3700045 C3.37483244,94.7423857 3.83610048,96.0611085 4.37834062,97.3807407 C4.73498179,98.2492789 4.82050288,99.331541 4.90693378,100.324676 C4.95606292,100.880358 5.29268851,101.28507 5.36274302,101.797098 C5.40641337,102.107225 5.52286763,101.96353 5.69118042,101.886225 C6.08785274,101.699785 6.2889183,101.99718 6.16154645,102.274567 C5.68572163,103.313174 6.69286901,103.896141 6.84025643,104.733757 C7.09954911,106.200723 8.1003279,107.403944 8.31867963,108.890008 C8.4260359,109.623036 9.0055778,110.198726 9.40679911,110.68529 C9.94630985,111.341013 9.96086663,111.946716 10.0081762,112.642456 C10.009086,112.641547 10.0263722,112.671559 10.0263722,112.671559 C10.5231224,112.758868 10.9015987,113.131748 11.0462567,113.507356 C11.5311795,114.767874 12.4737312,115.756461 12.9941361,116.988785 C13.1287864,117.307097 13.1751861,117.916438 13.8457079,117.485352 C14.1504905,117.288908 14.1604983,117.630866 14.1504905,117.821854 C14.0977222,118.74405 14.4416262,118.958684 15.2031279,119.585304 C15.6416509,119.947271 16.2302908,120.523871 16.2621338,121.253261 C16.283969,121.769837 16.5860222,122.031763 16.8908048,122.383725 C17.7305492,123.354123 18.7604415,124.183554 19.2981327,125.393142 C19.4537083,125.742376 19.8549296,125.891528 20.0805597,125.997935 C21.1404754,126.499959 21.3397214,127.735921 22.3086572,128.368908 C22.8172348,128.700862 23.1665976,129.567581 23.7652453,130.014128 C24.5158293,130.575267 25.0025718,131.513834 26.0688561,131.635702 C26.3308781,131.666624 26.3217802,131.923093 26.3590819,132.127723 C26.3891053,132.295973 26.4036621,132.549714 26.5101085,132.60701 C28.1122644,133.463725 29.1084942,135.111674 30.7934417,135.860163 C31.9416079,136.370372 32.8696028,137.244367 33.7912291,138.038329 C35.0795043,139.147875 36.5852215,139.859076 37.9772138,140.765812 C39.5502561,141.788049 41.2051803,142.696604 42.88012,143.546043 C44.0282862,144.129919 45.3393064,144.406396 46.4547199,145.039383 C48.363478,146.541818 52.3356599,147.717754 56.6499263,148.614486 C57.1284805,148.780918 57.6033955,148.966449 58.0892282,149.107415 C59.66409,149.566695 61.356316,149.66037 63.0057814,149.807703 C63.1058593,149.816797 63.1668158,149.784966 63.2414193,149.766777 C64.0265757,149.882279 64.7871676,149.986867 65.5259243,150.08418 C65.5004499,150.169669 65.4740658,150.255159 65.4476816,150.341558 C65.5413909,150.377937 65.6341904,150.446146 65.7269899,150.445237 C68.2898934,150.412496 70.7982089,151.062763 73.3847672,150.935438 C76.3871035,150.787195 79.4030869,150.859953 82.4117918,150.906335 C84.6662735,150.940895 86.7770069,150.301542 88.9350499,149.804065 C90.0850357,149.538501 91.2231941,149.085588 92.4696186,149.196543 C93.1956381,149.260205 94.0108179,149.315683 94.5248543,148.526268 C94.6040068,148.40349 94.90606,148.393486 95.1071256,148.388939 C95.9705247,148.368021 96.8757746,148.526268 97.5180926,147.70866 C97.5745002,147.635903 97.71097,147.564965 97.7928519,147.581335 C99.1120603,147.843261 100.043694,146.776459 101.242809,146.573649 C102.029785,146.439958 102.754895,145.942481 103.585541,145.852444 C103.812991,145.828798 104.014057,145.75695 104.042261,145.507757 C104.100488,145.01028 104.454399,145.017556 104.81468,145.024832 C105.215901,145.032107 105.598926,145.007552 105.735396,144.526445 C105.820008,144.227232 106.043818,144.132647 106.303111,144.228141 C107.557723,144.68742 108.402927,144.031697 109.135315,143.167706 C109.386419,142.871221 109.741241,142.800283 110.019639,142.682052 C111.657277,141.98995 113.112046,140.963165 114.680539,140.185574 C115.780486,139.639895 116.612952,138.925056 117.493637,138.15474 C118.046795,137.669996 118.908374,137.783679 119.498834,137.1034 C120.626985,135.802867 122.674942,135.568225 123.486482,133.825692 C123.527423,133.738383 123.728489,133.71019 123.86132,133.685634 C124.599167,133.554672 124.797503,133.191795 124.2216,132.464224 C125.745513,132.633384 126.435141,131.533843 127.263967,130.765345 C129.205478,128.964607 131.202487,127.192971 132.690008,124.972969 C133.688967,123.483267 135.131908,122.373721 136.12177,120.923126 C136.926032,119.743551 137.706639,118.527598 138.51818,117.348932 C139.537155,115.870144 139.950203,114.008471 141.404062,112.808888 C141.531434,112.70339 141.634241,112.53423 141.68519,112.374164 C142.287477,110.493393 143.454749,108.890917 144.253552,107.110187 C144.646585,106.236192 144.743934,105.196674 145.255241,104.415445 C146.286043,102.841163 146.47892,100.991313 146.950196,99.2887962 C147.445127,97.4989711 148.232103,95.8128248 148.6961,94.0048103 C149.094592,92.4523553 149.124615,90.8271431 149.711436,89.3128855 C150.066257,88.3997837 149.785129,87.3739083 149.840627,86.3989629 C149.862462,86.003346 149.720534,85.5813547 150.264593,85.3339805 C150.592121,85.1848284 150.619415,84.6773475 150.576654,84.3899569 C150.304624,82.5646626 150.841406,80.7912078 150.851414,78.9995637 C150.862331,76.8232164 151.133451,74.6059431 150.618505,72.4787068" fill="#636667"></path>
            <path d="M127.178446,79.0559505 C127.145694,80.6984425 127.094745,82.3445723 127.171168,83.9834265 C127.219387,85.0183965 126.780864,85.92877 126.594356,86.8900734 C126.387831,87.9514179 126.153103,89.0264044 125.887442,90.0850205 C125.57993,91.3037023 125.426174,92.5260219 125.432542,93.7883579 C125.434362,94.4113408 124.601896,94.6805421 124.509096,95.3653685 C124.35534,96.501289 123.693917,97.5708187 123.524694,98.5894184 C123.326358,99.7826352 122.103588,100.600243 122.499351,101.89532 C121.455811,102.325497 121.857033,103.585104 121.103719,104.285391 C120.616067,104.739214 120.591502,105.73053 120.448664,106.498117 C120.382249,106.857356 120.328571,107.161117 120.041074,107.4094 C119.664417,107.735898 118.773724,107.832301 119.461532,108.674465 C119.5607,108.797242 119.325062,108.868181 119.194961,108.90274 C119.093973,108.930024 118.902006,108.961855 118.903825,108.974588 C119.033017,110.166895 117.413575,110.415179 117.498186,111.555647 C117.559143,112.36416 116.813108,112.798884 116.481031,113.288176 C115.658573,114.498672 114.715111,115.710988 114.021845,116.958772 C113.45322,117.98101 112.269572,118.413005 111.989354,119.581667 C111.907472,119.922716 111.450753,119.849958 111.212386,120.044584 L111.206927,120.059135 C110.954003,121.130484 110.460892,122.006298 109.330012,122.360989 L109.310906,122.367355 C109.24813,122.434655 109.184444,122.501955 109.120758,122.568346 C108.564871,123.683349 107.5741,124.4282 106.746183,125.305833 C104.209664,127.996937 101.615827,130.648934 98.7626975,132.992623 C97.2533412,134.232222 95.6966753,135.460908 94.0408413,136.528619 C91.8773395,137.925556 89.6901829,139.287933 87.5476066,140.715791 C86.7724579,141.232367 85.9873014,141.70165 85.1202631,142.035423 C85.2039646,142.141831 85.3759166,142.323723 85.3586304,142.345551 C85.0920593,142.658406 84.7508848,142.44832 84.4370041,142.450139 C84.3296479,142.471966 84.2241112,142.492884 84.1176647,142.513801 C84.043971,142.860307 83.9675479,143.27957 83.555409,143.299578 C82.8102837,143.335957 82.2780514,143.509665 82.1461305,144.368199 C82.098821,144.678326 81.7485484,144.598293 81.5502122,144.424585 C81.2381512,144.151746 81.0070623,144.282709 80.7195659,144.479153 C78.9336306,145.695107 76.8529205,146.314452 74.9596291,147.28394 C73.3738496,148.096092 71.6516003,148.42077 70.0348876,149.041934 C69.2560998,149.342057 68.4309122,149.663098 67.5711522,149.874094 C66.3320061,149.6249 65.0400917,149.352971 63.7336205,149.071037 C63.7454479,148.944621 63.7509067,148.812749 63.7509067,148.681786 C63.7363499,145.079399 63.7436283,141.477012 63.7436283,137.874626 C63.7436283,136.615927 63.7217931,135.35632 63.7490871,134.097622 C63.776381,132.850746 63.1831922,131.831237 62.7692337,130.708959 C62.1141785,128.930957 60.84046,127.626785 59.7668973,126.22803 C59.0517954,125.296738 57.8244767,124.568258 56.6226323,124.012575 C54.3162921,122.946683 52.0245087,121.835318 49.8073288,120.600266 C49.2359751,120.281954 48.9193651,119.641691 48.1706006,120.20374 C48.0559659,120.290139 47.7948537,120.113703 47.8230574,119.919078 C47.9577077,118.994153 47.1634532,118.789523 46.6330405,118.641281 C46.0598672,118.482125 46.0052792,117.961911 45.6167951,117.685434 C44.7834193,117.092464 43.6134179,117.136118 42.9674607,116.161172 C42.7982381,115.905613 42.568059,115.874691 42.549863,115.414502 C42.5343965,115.004334 41.9202822,114.555059 41.3625755,114.38408 C41.1988117,114.33315 40.8685547,114.321327 40.8694645,114.305866 C40.9267818,113.160851 39.5366091,113.262711 39.2272775,112.382349 C39.0735215,111.943988 38.826966,111.288264 38.0609153,111.401947 C37.8753163,111.430141 37.7979834,111.24461 37.7151917,111.07545 C37.2848568,110.201455 36.7726401,109.461151 35.95837,108.803609 C35.3515342,108.313408 34.5954913,107.634038 34.3735004,106.746401 C34.2752421,106.351694 34.1333135,106.004278 33.873111,105.739624 C32.9487553,104.799239 32.334641,103.65968 31.6140803,102.577418 C31.0090641,101.669773 30.4195144,100.770313 30.0419478,99.7671743 C29.5697622,98.5139329 29.1958349,97.1615599 28.3815649,96.1420508 C27.5054285,95.0443277 27.5909496,93.5646298 26.6283824,92.5705856 C26.580163,92.5214746 26.4928223,92.4396228 26.5064693,92.4105199 C27.0614467,91.1927476 26.0524797,90.1086666 26.2144239,88.9281823 C26.2226121,88.8699766 26.2944862,88.8190466 26.3372467,88.7653882 C26.3235998,88.6307875 26.3108626,88.4961869 26.2981254,88.3615862 C25.6831013,88.3497632 25.6148664,87.9032163 25.5257061,87.4357518 C25.0890027,85.1602729 25.0953712,82.8156747 24.3420578,80.5820311 C24.0854945,79.8189908 24.1910311,78.9231688 24.3593439,78.0900997 C24.4075633,77.8536391 24.4958138,77.602627 24.4639708,77.3725326 C24.1919409,75.4471973 24.6977891,73.5009444 24.2983874,71.5746996 C24.2556269,71.3646134 23.9035347,70.6897911 24.7487379,70.9035152 C24.9725484,70.9599019 24.8806587,70.6379517 24.8833881,70.4951658 C24.9006743,69.693928 25.0826341,68.8772294 25.0444225,68.1105512 C24.9752778,66.726347 25.3810481,65.4185377 25.6157762,64.1270989 C25.9478528,62.2936194 26.2772,60.3710125 27.2934454,58.7248827 C27.5309029,58.3410889 27.6473571,57.9882168 27.630071,57.5607687 C27.625522,57.4225302 27.6045966,57.200621 27.6755609,57.1578762 C28.9583773,56.3902886 28.8883228,54.8323767 29.5015273,53.7110076 C30.4795611,51.9220919 31.6595703,50.2223037 32.4847579,48.3388037 C33.0515626,47.043727 34.017769,46.0160327 34.9967126,45.0128939 C35.1040689,44.9037582 35.1559274,44.7100424 35.1750332,44.5499767 C35.2323505,44.0561377 34.9457639,43.2339823 35.9956718,43.7896648 C36.125773,43.858784 36.3413954,43.6605209 36.3677795,43.4849943 C36.5142572,42.5164152 37.302143,42.0953333 37.9662962,41.5632969 C38.2401457,41.3441161 38.433023,41.0694579 38.5895084,40.7411414 C38.8096798,40.2791337 39.1999835,39.9890147 39.7622392,40.0435825 L39.7804352,40.0253933 C40.0652023,38.6893906 41.3580265,38.2619426 42.1722965,37.4061369 C43.8563342,35.634501 45.8997426,34.2757618 47.81123,32.7760557 C48.6000257,32.1576202 49.5525851,31.5037155 50.7225865,31.6710569 C51.3558065,30.8680002 51.9044153,29.9512605 53.1299144,29.9767255 C53.2891292,29.9803633 53.5102103,29.9203387 53.6002804,29.8084746 C54.6520079,28.4924802 56.3342261,28.6780109 57.6516149,28.043205 C58.4504183,27.6575923 59.6231491,27.8986002 60.0653113,26.8008772 C60.1007935,26.7135686 60.3073179,26.6462683 60.4292309,26.6517251 C62.0241084,26.7263011 63.4288379,26.1506104 64.8108224,25.4448663 C65.0664759,25.314813 65.427666,25.3902985 65.7406369,25.3766565 C66.3920529,25.3475537 67.0753118,25.5148951 67.6493949,25.0328791 C67.7194494,24.9746734 67.8504605,24.9619409 67.9505384,24.9664883 C72.1428917,25.1893069 76.3161392,24.3944354 80.5321473,24.8682662 C82.2443888,25.0601631 83.9548107,25.5449074 85.7061736,25.3721092 C86.2957233,25.3139035 86.7633599,25.6949689 87.2501023,25.8659482 C88.1762776,26.1897174 89.0933549,26.1042277 90.0049734,26.2442852 C90.8701921,26.3770669 91.5498119,27.0291526 92.4341364,27.2737984 C94.7859666,27.9277031 96.9258136,29.1300145 99.1075113,30.2068199 C99.4059253,30.354153 99.6888728,30.430548 100.004573,30.4114493 C100.639613,30.3741612 101.167296,30.3714328 101.153649,31.2854442 C101.145461,31.8183901 101.897865,31.9484434 102.168985,31.9948261 C103.061497,32.147616 103.560067,32.7696894 104.22422,33.2144173 C104.609975,33.4736146 105.060325,33.7764661 105.633499,33.7982932 C106.461416,33.829215 105.800902,34.6713787 106.1721,34.9924195 L106.194845,35.0042425 C107.593206,34.8159834 108.083587,36.1901836 109.081637,36.6912982 C109.179895,36.7404093 109.208099,37.0250715 109.273604,37.0268904 C110.687432,37.0696352 110.477268,38.55479 111.213295,39.1905053 L111.230582,39.2041473 C112.333258,39.5697518 113.280358,40.1618129 113.715242,41.2786347 C113.892653,41.7351856 114.318439,41.8406834 114.595928,42.0725967 C115.260081,42.6255509 115.660392,43.3985953 116.291793,43.9842901 C116.819476,44.4744912 117.766577,45.2348031 117.502735,46.3461681 L117.509104,46.3543533 C118.273335,46.5789909 118.735513,46.9409576 118.847418,47.8704298 C118.959323,48.8035398 119.870942,49.4210659 120.342218,50.2450403 C120.64609,50.7752578 120.879909,51.2136194 120.866262,51.8002237 L120.87263,51.8093184 C121.976216,52.7269676 122.291917,54.1084434 122.881466,55.3143926 C123.755783,57.0978516 124.514555,58.9413351 125.274237,60.7784524 C125.685466,61.7752249 125.536259,62.8820426 125.847411,63.933383 C126.571611,66.3789317 126.758119,68.9499865 127.249411,71.4391895 C127.764357,74.0475322 127.229395,76.5221838 127.178446,79.0559505" id="Path" fill="#FFFFFF"></path>
        </g>
    </g>
</svg>