<?xml version="1.0" encoding="UTF-8"?>
<svg width="151px" height="151px" viewBox="0 0 151 151" version="1.1" xmlns="http://www.w3.org/2000/svg" xmlns:xlink="http://www.w3.org/1999/xlink">
    <!-- Generator: Sketch 48.2 (47327) - http://www.bohemiancoding.com/sketch -->
    <title>alexa-white</title>
    <desc>Created with Sketch.</desc>
    <defs></defs>
    <g id="vendor-logos-copy" stroke="none" stroke-width="1" fill="none" fill-rule="evenodd" transform="translate(-130.000000, -263.000000)">
        <path d="M257.178446,342.05595 C257.145694,343.698442 257.094745,345.344572 257.171168,346.983426 C257.219387,348.018397 256.780864,348.92877 256.594356,349.890073 C256.387831,350.951418 256.153103,352.026404 255.887442,353.08502 C255.57993,354.303702 255.426174,355.526022 255.432542,356.788358 C255.434362,357.411341 254.601896,357.680542 254.509096,358.365368 C254.35534,359.501289 253.693917,360.570819 253.524694,361.589418 C253.326358,362.782635 252.103588,363.600243 252.499351,364.89532 C251.455811,365.325497 251.857033,366.585104 251.103719,367.285391 C250.616067,367.739214 250.591502,368.73053 250.448664,369.498117 C250.382249,369.857356 250.328571,370.161117 250.041074,370.4094 C249.664417,370.735898 248.773724,370.832301 249.461532,371.674465 C249.5607,371.797242 249.325062,371.868181 249.194961,371.90274 C249.093973,371.930024 248.902006,371.961855 248.903825,371.974588 C249.033017,373.166895 247.413575,373.415179 247.498186,374.555647 C247.559143,375.36416 246.813108,375.798884 246.481031,376.288176 C245.658573,377.498672 244.715111,378.710988 244.021845,379.958772 C243.45322,380.98101 242.269572,381.413005 241.989354,382.581667 C241.907472,382.922716 241.450753,382.849958 241.212386,383.044584 L241.206927,383.059135 C240.954003,384.130484 240.460892,385.006298 239.330012,385.360989 L239.310906,385.367355 C239.24813,385.434655 239.184444,385.501955 239.120758,385.568346 C238.564871,386.683349 237.5741,387.4282 236.746183,388.305833 C234.209664,390.996937 231.615827,393.648934 228.762698,395.992623 C227.253341,397.232222 225.696675,398.460908 224.040841,399.528619 C221.877339,400.925556 219.690183,402.287933 217.547607,403.715791 C216.772458,404.232367 215.987301,404.70165 215.120263,405.035423 C215.203965,405.141831 215.375917,405.323723 215.35863,405.345551 C215.092059,405.658406 214.750885,405.44832 214.437004,405.450139 C214.329648,405.471966 214.224111,405.492884 214.117665,405.513801 C214.043971,405.860307 213.967548,406.27957 213.555409,406.299578 C212.810284,406.335957 212.278051,406.509665 212.146131,407.368199 C212.098821,407.678326 211.748548,407.598293 211.550212,407.424585 C211.238151,407.151746 211.007062,407.282709 210.719566,407.479153 C208.933631,408.695107 206.852921,409.314452 204.959629,410.28394 C203.37385,411.096092 201.6516,411.42077 200.034888,412.041934 C199.2561,412.342057 198.430912,412.663098 197.571152,412.874094 C196.332006,412.6249 195.040092,412.352971 193.73362,412.071037 C193.745448,411.944621 193.750907,411.812749 193.750907,411.681786 C193.73635,408.079399 193.743628,404.477012 193.743628,400.874626 C193.743628,399.615927 193.721793,398.35632 193.749087,397.097622 C193.776381,395.850746 193.183192,394.831237 192.769234,393.708959 C192.114178,391.930957 190.84046,390.626785 189.766897,389.22803 C189.051795,388.296738 187.824477,387.568258 186.622632,387.012575 C184.316292,385.946683 182.024509,384.835318 179.807329,383.600266 C179.235975,383.281954 178.919365,382.641691 178.170601,383.20374 C178.055966,383.290139 177.794854,383.113703 177.823057,382.919078 C177.957708,381.994153 177.163453,381.789523 176.63304,381.641281 C176.059867,381.482125 176.005279,380.961911 175.616795,380.685434 C174.783419,380.092464 173.613418,380.136118 172.967461,379.161172 C172.798238,378.905613 172.568059,378.874691 172.549863,378.414502 C172.534396,378.004334 171.920282,377.555059 171.362575,377.38408 C171.198812,377.33315 170.868555,377.321327 170.869464,377.305866 C170.926782,376.160851 169.536609,376.262711 169.227277,375.382349 C169.073521,374.943988 168.826966,374.288264 168.060915,374.401947 C167.875316,374.430141 167.797983,374.24461 167.715192,374.07545 C167.284857,373.201455 166.77264,372.461151 165.95837,371.803609 C165.351534,371.313408 164.595491,370.634038 164.3735,369.746401 C164.275242,369.351694 164.133313,369.004278 163.873111,368.739624 C162.948755,367.799239 162.334641,366.65968 161.61408,365.577418 C161.009064,364.669773 160.419514,363.770313 160.041948,362.767174 C159.569762,361.513933 159.195835,360.16156 158.381565,359.142051 C157.505429,358.044328 157.59095,356.56463 156.628382,355.570586 C156.580163,355.521475 156.492822,355.439623 156.506469,355.41052 C157.061447,354.192748 156.05248,353.108667 156.214424,351.928182 C156.222612,351.869977 156.294486,351.819047 156.337247,351.765388 C156.3236,351.630788 156.310863,351.496187 156.298125,351.361586 C155.683101,351.349763 155.614866,350.903216 155.525706,350.435752 C155.089003,348.160273 155.095371,345.815675 154.342058,343.582031 C154.085494,342.818991 154.191031,341.923169 154.359344,341.0901 C154.407563,340.853639 154.495814,340.602627 154.463971,340.372533 C154.191941,338.447197 154.697789,336.500944 154.298387,334.5747 C154.255627,334.364613 153.903535,333.689791 154.748738,333.903515 C154.972548,333.959902 154.880659,333.637952 154.883388,333.495166 C154.900674,332.693928 155.082634,331.877229 155.044423,331.110551 C154.975278,329.726347 155.381048,328.418538 155.615776,327.127099 C155.947853,325.293619 156.2772,323.371013 157.293445,321.724883 C157.530903,321.341089 157.647357,320.988217 157.630071,320.560769 C157.625522,320.42253 157.604597,320.200621 157.675561,320.157876 C158.958377,319.390289 158.888323,317.832377 159.501527,316.711008 C160.479561,314.922092 161.65957,313.222304 162.484758,311.338804 C163.051563,310.043727 164.017769,309.016033 164.996713,308.012894 C165.104069,307.903758 165.155927,307.710042 165.175033,307.549977 C165.232351,307.056138 164.945764,306.233982 165.995672,306.789665 C166.125773,306.858784 166.341395,306.660521 166.36778,306.484994 C166.514257,305.516415 167.302143,305.095333 167.966296,304.563297 C168.240146,304.344116 168.433023,304.069458 168.589508,303.741141 C168.80968,303.279134 169.199984,302.989015 169.762239,303.043583 L169.780435,303.025393 C170.065202,301.689391 171.358026,301.261943 172.172296,300.406137 C173.856334,298.634501 175.899743,297.275762 177.81123,295.776056 C178.600026,295.15762 179.552585,294.503716 180.722587,294.671057 C181.355807,293.868 181.904415,292.95126 183.129914,292.976725 C183.289129,292.980363 183.51021,292.920339 183.60028,292.808475 C184.652008,291.49248 186.334226,291.678011 187.651615,291.043205 C188.450418,290.657592 189.623149,290.8986 190.065311,289.800877 C190.100794,289.713569 190.307318,289.646268 190.429231,289.651725 C192.024108,289.726301 193.428838,289.15061 194.810822,288.444866 C195.066476,288.314813 195.427666,288.390298 195.740637,288.376657 C196.392053,288.347554 197.075312,288.514895 197.649395,288.032879 C197.719449,287.974673 197.85046,287.961941 197.950538,287.966488 C202.142892,288.189307 206.316139,287.394435 210.532147,287.868266 C212.244389,288.060163 213.954811,288.544907 215.706174,288.372109 C216.295723,288.313904 216.76336,288.694969 217.250102,288.865948 C218.176278,289.189717 219.093355,289.104228 220.004973,289.244285 C220.870192,289.377067 221.549812,290.029153 222.434136,290.273798 C224.785967,290.927703 226.925814,292.130014 229.107511,293.20682 C229.405925,293.354153 229.688873,293.430548 230.004573,293.411449 C230.639613,293.374161 231.167296,293.371433 231.153649,294.285444 C231.145461,294.81839 231.897865,294.948443 232.168985,294.994826 C233.061497,295.147616 233.560067,295.769689 234.22422,296.214417 C234.609975,296.473615 235.060325,296.776466 235.633499,296.798293 C236.461416,296.829215 235.800902,297.671379 236.1721,297.992419 L236.194845,298.004242 C237.593206,297.815983 238.083587,299.190184 239.081637,299.691298 C239.179895,299.740409 239.208099,300.025072 239.273604,300.02689 C240.687432,300.069635 240.477268,301.55479 241.213295,302.190505 L241.230582,302.204147 C242.333258,302.569752 243.280358,303.161813 243.715242,304.278635 C243.892653,304.735186 244.318439,304.840683 244.595928,305.072597 C245.260081,305.625551 245.660392,306.398595 246.291793,306.98429 C246.819476,307.474491 247.766577,308.234803 247.502735,309.346168 L247.509104,309.354353 C248.273335,309.578991 248.735513,309.940958 248.847418,310.87043 C248.959323,311.80354 249.870942,312.421066 250.342218,313.24504 C250.64609,313.775258 250.879909,314.213619 250.866262,314.800224 L250.87263,314.809318 C251.976216,315.726968 252.291917,317.108443 252.881466,318.314393 C253.755783,320.097852 254.514555,321.941335 255.274237,323.778452 C255.685466,324.775225 255.536259,325.882043 255.847411,326.933383 C256.571611,329.378932 256.758119,331.949986 257.249411,334.439189 C257.764357,337.047532 257.229395,339.522184 257.178446,342.05595 M280.618505,335.478707 C280.387416,334.520132 280.261864,333.600664 280.263684,332.64027 C280.264593,332.26648 280.183621,331.878139 280.510239,331.557098 C280.729501,331.341555 280.713124,331.023243 280.603039,330.764045 C280.128124,329.640857 280.170884,328.392163 279.800596,327.266247 C279.335689,325.855668 279.674134,324.323221 279.154639,323.006317 C278.351286,320.968209 278.072888,318.807322 277.469691,316.728287 C277.017521,315.167647 275.976711,313.83892 275.861167,312.120033 C275.822955,311.54889 275.463585,310.533928 274.62293,310.14013 C274.290854,309.985521 274.440971,309.655386 274.371826,309.401645 C274.294493,309.119712 274.67206,308.413967 273.805021,308.7823 C273.524803,308.90144 273.548458,308.534017 273.545729,308.349396 C273.525713,306.766928 272.844274,305.441839 271.979055,304.174956 C271.856232,303.994882 271.878977,303.71022 271.849863,303.47285 C271.813471,303.185459 271.72886,302.774381 271.496861,302.761649 C270.156728,302.685254 271.00739,301.896748 271.011029,301.387449 C270.46242,299.759508 269.343367,298.495353 268.323483,297.166626 C268.087845,297.161169 267.79398,297.241202 267.70391,296.928347 C267.306328,295.543233 266.183636,294.720168 265.342072,293.663371 C264.705213,292.865771 264.205733,291.910834 263.503368,291.122328 C262.963858,290.517535 262.621773,289.680828 261.654657,289.585334 C261.570046,289.57624 261.422658,289.467104 261.425388,289.410717 C261.50545,288.004686 259.816863,287.894641 259.547563,287.014279 C259.230953,285.9784 258.094614,285.970215 257.806208,285.020734 C257.641534,284.477784 256.840911,284.371377 256.418764,283.828427 C255.570832,282.741618 254.228878,282.139552 253.330907,281.022731 C253.061606,280.688957 252.553029,280.217855 252.078114,280.108719 C251.283859,279.925917 251.105539,279.334765 250.834419,278.758165 L250.808944,278.738157 C249.656229,278.694503 249.055762,277.687726 248.214198,277.142957 C246.279056,275.892444 244.308431,274.697408 242.359642,273.470541 C241.876539,273.166781 241.019508,273.380505 240.959462,272.481045 L240.907603,272.453761 C240.414492,272.524699 240.035106,272.230942 239.65299,272.012671 C238.310127,271.24963 236.71525,271.159593 235.382394,270.345623 C233.968567,269.482542 232.500151,268.771341 230.783361,268.572168 C230.165607,268.50123 229.662489,267.706359 228.88825,267.626326 C227.287914,267.459894 225.800392,266.778705 224.257373,266.39673 C222.994573,266.082965 221.477938,266.61864 220.398916,265.503637 C220.15782,265.254444 219.751139,265.266267 219.396318,265.288094 C217.924263,265.376312 216.552287,264.9043 215.149377,264.571436 C213.963909,264.288593 212.730221,264.444111 211.517459,264.258581 C208.535139,263.803849 205.513697,263.95482 202.521368,264.082145 C199.998496,264.188552 197.437412,264.307692 194.970037,264.913395 C193.5089,265.271723 191.949505,265.242621 190.585716,265.77011 C189.343841,266.249397 187.880884,265.723727 186.765471,266.840549 C186.404281,267.202516 185.481745,267.080647 184.834878,267.344392 C183.51112,267.882795 181.938078,267.6527 180.75261,268.639469 C180.0275,269.243353 179.053106,268.984156 178.238836,269.43434 C176.575723,270.353808 174.680612,270.737602 173.01386,271.768934 C172.261457,272.235489 171.399877,273.147682 170.235335,272.847559 C170.235335,272.848468 170.228966,272.852106 170.228966,272.852106 C169.823196,273.502373 169.380124,273.979841 168.512176,274.147183 C167.457719,274.349993 166.725331,275.280375 165.797336,275.811502 C164.177894,276.738246 162.724035,277.93601 161.02544,278.735429 L160.999056,278.756346 C160.929002,278.909136 160.901708,279.124679 160.782524,279.204712 C159.619801,279.985032 158.655414,280.998175 157.591859,281.893088 C157.348943,282.096808 157.082372,282.05952 156.815801,282.09317 C156.815801,282.09317 156.800334,282.108631 156.800334,282.108631 C156.765762,282.345091 156.870389,282.672498 156.64112,282.795276 C155.149049,283.593785 154.487626,285.192623 153.257577,286.24942 C151.941098,287.381703 150.458126,288.381204 149.463716,289.810881 C148.931484,290.57665 148.048979,291.129604 147.911599,292.204591 C147.830627,292.848491 147.149188,292.446508 146.764343,292.597479 C146.764343,292.597479 146.73159,292.634767 146.73159,292.634767 C146.766162,293.829803 145.937336,294.382757 145.049372,294.890238 L145.041184,294.917522 C145.289559,295.871549 144.393407,296.320825 144.054962,296.998375 C143.198841,298.711805 141.808668,300.084187 141.084468,301.952226 C140.745113,302.82713 139.94449,303.700216 139.466846,304.639692 C138.481534,306.575031 137.440724,308.490362 136.609168,310.491183 C136.105139,311.704408 136.14335,313.090431 135.411872,314.293652 C134.394717,315.964338 134.059911,317.889673 133.598643,319.783177 C133.272025,321.126455 133.123728,322.553404 132.496877,323.827563 C132.438649,323.946703 132.404987,324.105859 132.428642,324.233184 C132.699762,325.705607 131.868205,326.987951 131.721728,328.383069 C131.53067,330.216548 131.232256,332.043661 131.315048,333.900787 C131.345071,334.597436 130.870156,335.206777 130.939301,335.937986 C131.224978,338.966501 130.992979,342.015025 131.21497,345.035355 C131.373275,347.176233 131.379643,349.370769 131.871845,351.451623 C132.257599,353.08502 132.533268,354.747521 132.989078,356.370004 C133.374832,357.742386 133.8361,359.061108 134.378341,360.380741 C134.734982,361.249279 134.820503,362.331541 134.906934,363.324676 C134.956063,363.880358 135.292689,364.28507 135.362743,364.797098 C135.406413,365.107225 135.522868,364.96353 135.69118,364.886225 C136.087853,364.699785 136.288918,364.99718 136.161546,365.274567 C135.685722,366.313174 136.692869,366.896141 136.840256,367.733757 C137.099549,369.200723 138.100328,370.403944 138.31868,371.890008 C138.426036,372.623036 139.005578,373.198726 139.406799,373.68529 C139.94631,374.341013 139.960867,374.946716 140.008176,375.642456 C140.009086,375.641547 140.026372,375.671559 140.026372,375.671559 C140.523122,375.758868 140.901599,376.131748 141.046257,376.507356 C141.53118,377.767874 142.473731,378.756461 142.994136,379.988785 C143.128786,380.307097 143.175186,380.916438 143.845708,380.485352 C144.150491,380.288908 144.160498,380.630866 144.150491,380.821854 C144.097722,381.74405 144.441626,381.958684 145.203128,382.585304 C145.641651,382.947271 146.230291,383.523871 146.262134,384.253261 C146.283969,384.769837 146.586022,385.031763 146.890805,385.383725 C147.730549,386.354123 148.760442,387.183554 149.298133,388.393142 C149.453708,388.742376 149.85493,388.891528 150.08056,388.997935 C151.140475,389.499959 151.339721,390.735921 152.308657,391.368908 C152.817235,391.700862 153.166598,392.567581 153.765245,393.014128 C154.515829,393.575267 155.002572,394.513834 156.068856,394.635702 C156.330878,394.666624 156.32178,394.923093 156.359082,395.127723 C156.389105,395.295973 156.403662,395.549714 156.510109,395.60701 C158.112264,396.463725 159.108494,398.111674 160.793442,398.860163 C161.941608,399.370372 162.869603,400.244367 163.791229,401.038329 C165.079504,402.147875 166.585221,402.859076 167.977214,403.765812 C169.550256,404.788049 171.20518,405.696604 172.88012,406.546043 C174.028286,407.129919 175.339306,407.406396 176.45472,408.039383 C178.363478,409.541818 182.33566,410.717754 186.649926,411.614486 C187.128481,411.780918 187.603396,411.966449 188.089228,412.107415 C189.66409,412.566695 191.356316,412.66037 193.005781,412.807703 C193.105859,412.816797 193.166816,412.784966 193.241419,412.766777 C194.026576,412.882279 194.787168,412.986867 195.525924,413.08418 C195.50045,413.169669 195.474066,413.255159 195.447682,413.341558 C195.541391,413.377937 195.63419,413.446146 195.72699,413.445237 C198.289893,413.412496 200.798209,414.062763 203.384767,413.935438 C206.387104,413.787195 209.403087,413.859953 212.411792,413.906335 C214.666273,413.940895 216.777007,413.301542 218.93505,412.804065 C220.085036,412.538501 221.223194,412.085588 222.469619,412.196543 C223.195638,412.260205 224.010818,412.315683 224.524854,411.526268 C224.604007,411.40349 224.90606,411.393486 225.107126,411.388939 C225.970525,411.368021 226.875775,411.526268 227.518093,410.70866 C227.5745,410.635903 227.71097,410.564965 227.792852,410.581335 C229.11206,410.843261 230.043694,409.776459 231.242809,409.573649 C232.029785,409.439958 232.754895,408.942481 233.585541,408.852444 C233.812991,408.828798 234.014057,408.75695 234.042261,408.507757 C234.100488,408.01028 234.454399,408.017556 234.81468,408.024832 C235.215901,408.032107 235.598926,408.007552 235.735396,407.526445 C235.820008,407.227232 236.043818,407.132647 236.303111,407.228141 C237.557723,407.68742 238.402927,407.031697 239.135315,406.167706 C239.386419,405.871221 239.741241,405.800283 240.019639,405.682052 C241.657277,404.98995 243.112046,403.963165 244.680539,403.185574 C245.780486,402.639895 246.612952,401.925056 247.493637,401.15474 C248.046795,400.669996 248.908374,400.783679 249.498834,400.1034 C250.626985,398.802867 252.674942,398.568225 253.486482,396.825692 C253.527423,396.738383 253.728489,396.71019 253.86132,396.685634 C254.599167,396.554672 254.797503,396.191795 254.2216,395.464224 C255.745513,395.633384 256.435141,394.533843 257.263967,393.765345 C259.205478,391.964607 261.202487,390.192971 262.690008,387.972969 C263.688967,386.483267 265.131908,385.373721 266.12177,383.923126 C266.926032,382.743551 267.706639,381.527598 268.51818,380.348932 C269.537155,378.870144 269.950203,377.008471 271.404062,375.808888 C271.531434,375.70339 271.634241,375.53423 271.68519,375.374164 C272.287477,373.493393 273.454749,371.890917 274.253552,370.110187 C274.646585,369.236192 274.743934,368.196674 275.255241,367.415445 C276.286043,365.841163 276.47892,363.991313 276.950196,362.288796 C277.445127,360.498971 278.232103,358.812825 278.6961,357.00481 C279.094592,355.452355 279.124615,353.827143 279.711436,352.312886 C280.066257,351.399784 279.785129,350.373908 279.840627,349.398963 C279.862462,349.003346 279.720534,348.581355 280.264593,348.333981 C280.592121,348.184828 280.619415,347.677348 280.576654,347.389957 C280.304624,345.564663 280.841406,343.791208 280.851414,341.999564 C280.862331,339.823216 281.133451,337.605943 280.618505,335.478707" id="alexa-white" fill="#FFFFFF"></path>
    </g>
</svg>