<?xml version="1.0" encoding="UTF-8"?>
<svg width="375px" height="667px" viewBox="0 0 375 667" version="1.1" xmlns="http://www.w3.org/2000/svg" xmlns:xlink="http://www.w3.org/1999/xlink">
    <!-- Generator: Sketch 48.2 (47327) - http://www.bohemiancoding.com/sketch -->
    <title>avatar3</title>
    <desc>Created with Sketch.</desc>
    <defs>
        <polygon id="path-1" points="0.389251187 0.395542586 105.386464 0.395542586 105.386464 41.5783954 0.389251187 41.5783954"></polygon>
        <polygon id="path-3" points="0.394960049 0.135381586 54.2312974 0.135381586 54.2312974 39.0299753 0.394960049 39.0299753"></polygon>
        <polygon id="path-5" points="0.552846298 0.581508387 41.642071 0.581508387 41.642071 37.5743135 0.552846298 37.5743135"></polygon>
    </defs>
    <g id="Page-1" stroke="none" stroke-width="1" fill="none" fill-rule="evenodd">
        <g id="avatar3">
            <g transform="translate(60.000000, 86.375000)">
                <polygon id="Fill-1" fill="#FFFFFF" points="206.60733 275.238862 213.015236 283.976916 228.161197 279.31662 229.326271 272.908714 226.413586 261.257975 205.442256 252.519921"></polygon>
                <polyline id="Fill-2" fill="#FFFFFF" points="48.1806404 165.873259 48.1806404 165.879084 54.5652453 173.877317 56.3128562 184.945519 50.4874867 194.26611 35.9240631 187.858203 32.0571828 176.214455 48.4486074 166.013068"></polyline>
                <g id="Group-60" transform="translate(0.000000, 0.186994)">
                    <path d="M102.915754,165.534922 L128.547379,203.399823 L154.470273,155.923062 C154.470273,155.923062 153.340151,149.707393 144.957445,147.854925 L144.951037,147.8491 C144.822879,147.819973 144.695303,147.790846 144.567145,147.767545 L122.372487,145.205547 C112.121002,143.517355 102.81847,153.676217 102.81847,153.676217 L102.915754,165.534922 Z" id="Fill-3" fill="#FFFFFF"></path>
                    <path d="M124.160759,181.508026 C124.154934,181.513852 124.154934,181.519677 124.148526,181.525503 C124.160759,181.531328 124.178236,181.542979 124.189886,181.542979 C124.189886,181.531328 124.184061,181.519677 124.178236,181.508026 L124.160759,181.508026 Z M116.674577,174.966137 C116.855746,175.030216 117.042158,175.088469 117.222744,175.152548 L117.222744,175.146723 C117.042158,175.088469 116.855746,175.030216 116.674577,174.966137 Z" id="Fill-5" fill="#FEFEFE"></path>
                    <path d="M124.148817,181.525386 C124.161051,181.531211 124.178527,181.542862 124.189595,181.542862 C124.189595,181.531211 124.184352,181.519561 124.178527,181.50791 L124.148817,181.525386 Z" id="Fill-7" fill="#2D398F"></path>
                    <path d="M123.82283,181.863316 C123.840306,181.869141 123.857782,181.874966 123.869433,181.874966 C123.863607,181.863316 123.857782,181.84584 123.851957,181.828363 L123.82283,181.863316 Z" id="Fill-9" fill="#2D398F"></path>
                    <path d="M123.490609,182.189595 C123.508085,182.19542 123.526144,182.19542 123.537212,182.201245 C123.537212,182.189595 123.531386,182.172119 123.526144,182.154642 L123.490609,182.189595 Z" id="Fill-11" fill="#2D398F"></path>
                    <polygon id="Fill-13" fill="#2D398F" points="123.17033 182.515815 123.193632 182.515815 123.193632 182.492514 123.193632 182.480863"></polygon>
                    <path d="M36.6578849,188.725776 C40.8929285,195.448252 45.1046706,202.182379 49.4096186,208.864078 C51.6226765,212.301046 53.1669819,216.099187 55.4324681,219.507028 C57.3670733,222.419713 59.3710004,225.262493 62.1671777,227.435356 C66.5478555,230.831546 70.1013309,230.382993 74.2373432,226.753787 C82.3986858,219.582758 89.1497065,211.229178 95.5809143,202.19403 C95.8488813,209.155346 97.7887294,215.528301 99.6534301,221.895429 C101.272883,227.423705 103.102049,232.887901 104.907913,238.357923 C105.245785,239.389014 105.152579,240.187089 104.674899,241.130799 C102.793304,244.84156 100.067031,247.993084 97.9576651,251.552385 C94.4805021,257.412707 91.3464533,263.430314 89.9244806,270.181917 C91.0144072,270.18716 92.1037513,270.135314 93.18727,270.210461 C99.0883693,270.612994 104.983643,271.049897 110.878917,271.463498 C114.455694,271.708164 118.031888,271.900401 121.60284,272.162542 C128.582215,272.669349 135.549357,273.432473 142.533975,273.671313 C153.404114,274.038311 164.285904,273.706265 175.161869,273.426648 C175.598772,273.414997 176.0415,273.432473 176.35607,273.048581 C174.713316,265.550748 170.897116,259.125366 166.435466,253.026204 C164.600474,250.515469 162.584896,248.150369 160.487181,245.860999 C160.033384,245.365843 159.68328,244.92894 159.742116,244.165817 C160.702719,231.955842 162.555769,219.961407 167.979188,208.788348 C168.264632,208.205811 168.59027,207.64075 168.905422,207.069864 C168.957268,206.982484 169.056882,206.92423 169.138437,206.854325 C175.994314,232.614109 190.208798,254.336912 206.502357,275.022799 C207.253829,273.968407 207.457717,272.675175 207.871318,271.486799 C209.356788,267.228454 210.760702,262.946808 212.199568,258.670987 C212.846184,256.75444 212.846184,256.766091 214.640398,257.581643 C218.048239,259.137016 221.455497,260.698215 224.880815,262.230287 C225.289173,262.410874 225.726076,262.888554 226.227058,262.463302 C226.489199,262.241938 226.570754,261.96232 226.564929,261.671052 C226.559104,261.426386 226.50085,261.175896 226.436771,260.937055 C225.673647,258.01272 224.240607,255.379653 222.784264,252.769887 C216.819086,242.057033 210.026123,231.868462 203.146944,221.738144 C201.259524,218.953618 200.775436,215.691411 199.744928,212.621441 C197.082734,204.663987 195.661344,196.397787 193.797226,188.236445 C189.975201,171.44773 179.041565,161.463047 162.724705,157.064893 C160.138241,156.371674 157.342064,156.406626 154.644918,156.15031 C153.841017,156.07458 153.427416,156.796926 152.908958,157.239654 C143.734001,165.115553 134.57652,173.014754 125.395738,180.884828 C125.069517,181.158621 124.865629,181.875141 124.189886,181.543095 C124.33552,181.910093 124.195712,181.985823 123.869491,181.875141 C123.985998,182.213013 123.805412,182.247965 123.537445,182.201362 C123.595699,182.48098 123.409287,182.515932 123.193748,182.515932 C123.199573,182.614963 123.211224,182.71982 123.222875,182.824676 C123.176272,182.906232 123.129086,182.981961 123.082484,183.051866 C122.564608,183.809164 121.906341,183.797513 120.910203,183.558673 C118.80142,183.04604 118.05519,181.712031 117.939265,179.766357 C117.94509,179.696453 117.939265,179.632374 117.927614,179.568295 C117.181384,178.123603 116.925651,176.544928 116.674577,174.966253 C115.696498,171.069081 114.700359,167.171909 113.7683,163.25726 C113.60519,162.552391 113.202657,162.115488 112.708083,161.684411 C109.882779,159.214454 107.022522,156.773624 104.243821,154.245414 C103.451571,153.528893 102.705924,153.610449 101.843187,153.843463 C96.332387,155.334758 92.0163708,158.672695 88.2124045,162.744628 C83.5346329,167.754446 79.8879516,173.480784 76.8878863,179.632374 C76.5441895,180.337244 76.4917612,181.094542 76.299524,181.828538 C75.0295935,186.587865 72.1518609,190.263673 68.5343065,193.467626 C67.6313743,194.265702 67.4333117,193.426849 67.1245671,192.960819 C63.2623472,187.158751 59.4234287,181.345033 55.5728595,175.537139 C55.281591,175.094411 54.9722639,174.657508 54.4485632,173.894385 C53.7728203,177.051735 53.1669819,179.847913 52.5669689,182.649915 C52.2349228,184.187813 51.7747186,185.719885 51.6174336,187.275259 C51.4834501,188.655871 50.8135326,188.801505 49.6828284,188.684998 C45.1862258,188.24227 40.6890405,187.85197 36.1743792,187.432544 C35.9699087,188.038382 36.4248701,188.352952 36.6578849,188.725776" id="Fill-15" fill="#2D398F"></path>
                    <path d="M90.2569927,283.155073 C90.6123402,289.230933 91.2822577,295.295143 91.7366365,301.371003 C92.4007287,310.31877 93.0473447,319.272363 93.6124055,328.231782 C93.9561023,333.71928 94.1483395,339.21202 94.393005,344.705926 C94.7891301,353.728841 95.4823491,362.734862 96.2338217,371.735641 C96.758105,378.026457 97.183357,384.324264 97.6610373,390.620906 C97.8357983,392.951054 98.0688131,395.281201 98.2202727,397.617175 C98.3426055,399.504594 98.5930964,401.403665 97.8765759,403.267783 C97.4338479,404.404312 97.5445299,405.645116 97.6901641,406.827666 C97.8824013,408.38304 99.1057289,409.460151 100.678579,409.577241 C102.094143,409.675689 103.503883,409.740351 104.913622,409.816081 C113.966246,409.786954 123.01887,409.816081 132.066252,410.148127 C137.553167,410.183079 143.040665,410.212206 148.528163,410.252983 C148.895162,410.252983 149.267985,410.35784 149.634984,410.416094 C158.303133,410.421919 166.971283,410.386967 175.621957,411.13844 C177.451123,410.922901 179.280289,410.707362 181.103629,410.480173 C182.140545,410.352015 183.125032,410.019969 184.062917,409.583066 C185.635767,408.849069 186.47462,407.748075 186.32316,405.854829 C185.542561,396.312874 184.831866,386.759268 184.121171,377.211488 C183.63184,370.588043 183.194937,363.964598 182.699781,357.346978 C182.099767,349.260783 181.464802,341.175752 180.858964,333.095383 C180.387109,326.798741 179.938555,320.501516 179.478351,314.204292 C178.738529,304.219609 177.975406,294.240751 177.258885,284.250242 C176.990918,280.51618 176.833633,276.764642 176.355953,273.048057 C176.041383,273.432531 175.598655,273.415055 175.161752,273.426706 C164.285788,273.706323 153.403998,274.03837 142.533858,273.671371 C135.54924,273.432531 128.582098,272.669408 121.603306,272.162601 C118.032354,271.900459 114.455577,271.708222 110.878801,271.463556 C104.983527,271.049955 99.0882528,270.613052 93.1871535,270.210519 C92.1036348,270.134789 91.0142907,270.187218 89.9249466,270.181392 C88.8006503,274.533526 90.0006764,278.838474 90.2569927,283.155073" id="Fill-17" fill="#6497D0"></path>
                    <path d="M124.178352,181.508026 L124.160876,181.508026 C124.155051,181.513852 124.155051,181.519677 124.148643,181.525503 L124.178352,181.508026 Z" id="Fill-19" fill="#7C564B"></path>
                    <path d="M123.85184,181.828305 C123.846015,181.828305 123.834364,181.828305 123.828539,181.834131 C123.822713,181.845781 123.822713,181.851607 123.822713,181.863257 L123.85184,181.828305 Z" id="Fill-21" fill="#7C564B"></path>
                    <path d="M104.266598,127.122377 C109.626521,130.046713 115.248002,132.394337 120.967933,134.508946 C122.052034,134.910896 122.494179,135.534211 122.523306,136.664332 C122.587968,139.518763 122.512238,142.361544 122.372429,145.204324 C122.255339,147.633503 122.086404,150.062682 121.923876,152.491861 C121.871447,153.295762 121.55047,153.272461 120.904436,153.254985 C116.611139,153.10935 114.671291,154.926866 114.618862,159.24929 C114.566434,163.362001 115.84219,167.294125 116.459679,171.319455 C116.651334,172.606862 116.965904,173.876792 117.222803,175.146723 C117.525139,176.614716 117.991751,178.047757 117.927672,179.568178 C118.055248,181.711914 118.801478,183.045924 120.910262,183.558556 C121.9064,183.797397 122.564666,183.809047 123.082542,183.051749 C122.966617,182.731354 123.024871,182.609021 123.193806,182.480863 C123.292838,182.387657 123.386044,182.294451 123.490318,182.189595 C123.519444,181.985707 123.624884,181.863374 123.828772,181.834247 C123.852073,181.64201 123.933046,181.496376 124.160818,181.508026 C125.716191,179.020594 127.772547,176.935111 129.619189,174.680693 C133.586265,169.845637 137.599945,165.051358 141.647994,160.28038 C142.295193,159.528907 142.341796,158.690054 142.4117,157.857026 C142.662191,154.926866 143.640271,152.235545 145.178751,149.777239 C145.755462,148.862656 145.72051,148.315071 144.957387,147.854867 C141.89266,146.276192 141.39226,143.975171 141.962564,140.975106 C142.464128,138.318737 142.5218,135.569163 142.708794,132.854541 C142.761222,132.091417 142.994237,131.718594 143.762603,131.503055 C155.069645,128.392308 163.115063,121.029041 169.482192,111.568641 C170.367648,110.252107 171.247279,109.65792 172.820129,109.535587 C180.305728,108.958875 186.160225,104.228675 188.047644,97.5061989 C188.402992,96.2246177 188.257358,95.0537184 187.896185,93.8478669 C187.610742,93.3934881 187.692408,92.7699552 187.436674,92.3039256 C186.329854,90.276697 184.990315,88.2826643 183.084837,86.9428293 C179.083391,84.1350012 175.026542,83.1391199 170.424501,84.4148758 C168.682133,84.8925561 167.155051,85.2638951 165.966675,83.8774571 C161.679786,78.8792902 158.166491,73.6548063 154.75865,68.0391501 C152.282868,64.7536418 149.98468,61.0102593 147.625406,57.6490212 C147.426761,57.7830047 147.299185,57.8237822 147.252,57.9053374 C144.036978,63.7889606 138.834341,67.1560241 132.694401,69.2589825 C128.004979,70.8667844 123.152446,71.5949556 118.20729,72.0202076 C111.455104,72.5969192 104.739036,72.2823492 98.0515118,71.5017497 C93.0061593,70.907562 92.767092,69.4584415 92.4758235,74.3401011 C92.3826176,74.8177814 92.0375868,76.5663104 91.9676823,77.0439907 C91.3327171,81.5353506 90.5733006,85.9798275 90.0892124,90.4886634 C89.6645429,94.4615654 88.9639354,98.3392268 89.1561726,102.382033 C90.116776,113.124014 94.4980364,121.786339 104.266598,127.122377 Z" id="Fill-23" fill="#7C564B"></path>
                    <path d="M80.4353033,76.552345 C84.530538,76.2261243 88.5667233,76.488266 92.6910849,76.552345 C92.9823534,71.6706854 92.9932193,71.4260199 98.0379892,72.0202076 C104.726096,72.8008071 111.455396,73.2965932 118.207581,72.7198816 C123.152737,72.2946296 128.528415,71.1278034 133.217837,69.5200014 C139.357776,67.4170431 143.612786,64.7559719 146.827808,58.8723487 C146.874411,58.7907936 147.870354,59.0063322 148.068999,58.8723487 C150.427691,62.2335869 151.779185,65.3389884 154.254968,68.6244967 C156.229185,68.2924507 158.6417,67.902687 160.60485,67.5473394 C166.715662,66.4346939 172.77906,65.2448739 178.802492,63.6895003 C182.798113,62.6584099 186.219569,61.4195385 189.784695,59.3049294 C189.149147,54.394143 188.326971,49.0973788 186.422075,44.5011623 C185.035637,41.1632256 182.449173,38.6874436 179.985042,36.1475825 C179.542896,35.6932037 178.872396,35.4194113 178.802492,34.6679387 C177.485958,34.2193852 177.520878,32.8057616 176.384931,32.0892411 C175.202963,31.3494192 173.249027,30.3107268 171.653458,30.7010266 C165.81003,32.1165913 160.173543,32.9011929 154.254968,33.9555847 C147.805701,35.0973571 141.169461,36.7967372 134.697476,37.7812246 C129.24493,38.6084271 123.700322,38.9217609 118.207581,39.4926471 C112.923389,40.0344065 107.765591,40.7641738 102.465087,40.9331096 C95.4565855,41.1544736 88.2965831,40.8849104 81.3824521,39.4926471 C80.158542,42.9004882 79.7071321,47.1575308 79.6954814,50.740133 C79.6838306,55.8373313 79.3692607,60.9228788 79.6547038,66.0200771 C79.8527663,69.5386002 80.0391782,73.051298 80.4353033,76.552345 Z" id="Fill-25" fill="#302F35"></path>
                    <path d="M150.491371,430.414704 C152.506949,445.3393 155.035159,460.181759 157.528417,475.025383 C158.483778,480.705118 159.85274,486.320774 160.266341,492.082065 C160.627514,497.126252 160.767323,502.183255 160.79645,507.244919 C160.802275,507.93872 160.632757,508.672717 161.175099,509.27273 C162.788726,509.90187 163.80234,511.288308 165.037319,512.383477 C172.359808,518.878764 179.682297,525.35075 188.78735,529.370254 C191.647606,530.63436 194.280673,530.238235 196.226347,527.820706 C197.14093,526.684759 197.968132,525.473082 198.439987,524.057518 C190.936911,517.579707 186.066902,509.12127 180.958053,500.837012 C180.025994,499.328824 179.565207,497.889958 179.71725,496.020014 C180.293379,488.790731 179.758027,481.555622 179.460933,474.326339 C178.691402,455.685156 177.526328,437.06145 176.227853,418.443569 C176.053092,416.007982 175.976277,413.031953 175.976277,410.485425 C167.325603,409.733952 157.876416,409.405012 149.208848,409.399187 C149.208848,410.50195 148.848617,412.012362 148.848617,412.886167 C148.848617,418.781441 149.704946,424.600402 150.491371,430.414704 Z" id="Fill-27" fill="#7C564B"></path>
                    <g id="Group-31" transform="translate(80.972635, 0.000000)">
                        <mask id="mask-2" fill="white">
                            <use xlink:href="#path-1"></use>
                        </mask>
                        <g id="Clip-30"></g>
                        <path d="M0.389251187,40.207865 C7.30338219,41.6001283 14.3060588,41.7108103 21.3139783,41.4894463 C26.6150645,41.3205106 31.9044999,40.8253542 37.18811,40.2835948 C42.6814334,39.7127086 48.1631061,39.025315 53.6150693,38.1981126 C60.0870548,37.2136251 66.5188452,35.9611707 72.9675292,34.8193983 C78.8861045,33.7650064 84.7697277,32.5300281 90.6125732,31.1144633 C92.2081419,30.7241636 93.2805925,31.7144764 94.4625599,32.4542983 C95.598507,33.1708187 96.5136725,34.2193852 97.830206,34.6679387 C103.96432,29.7746283 106.591562,23.4133249 104.867252,15.7646148 C103.067213,7.7372557 97.6030166,2.91967517 89.7323599,1.02060473 C80.2603092,-1.25711473 71.103411,2.81481852 66.3784538,11.1916998 C65.8314516,12.1645365 65.2599829,12.0713306 64.4042361,11.9315217 C56.9646568,10.7198449 49.4971157,10.1023557 41.9765637,11.1101446 C40.3687617,11.3315087 38.7027061,11.5237458 37.1939354,12.0888067 C29.6908595,14.8908094 21.8033093,16.8015306 14.9986952,21.2695889 C7.95582357,25.8891069 2.76541939,31.9707926 0.389251187,40.207865" id="Fill-29" fill="#040405" mask="url(#mask-2)"></path>
                    </g>
                    <path d="M103.340714,523.224198 C105.402895,524.657239 107.53498,524.721318 109.602986,523.364007 C112.515671,521.464937 115.352626,519.449359 117.880836,517.031831 C123.444064,511.707443 128.372327,505.835471 133.096701,499.782912 C133.411271,499.375136 133.568556,498.751821 134.273426,498.786774 C134.664308,498.291617 134.472071,497.755683 134.378283,497.219749 C132.525815,486.506895 131.989881,475.712485 132.374356,464.848754 C132.817084,452.387706 132.659799,439.909765 132.589894,427.443474 C132.554942,421.676358 132.40087,415.595064 132.220866,409.827366 C123.173485,409.49532 114.001868,409.375201 104.949244,409.404328 C106.033346,420.734672 107.004872,432.482418 108.182179,443.801111 C109.66124,458.096568 110.971948,472.415326 113.36035,486.600101 C113.389477,486.763211 113.366175,486.943797 113.430254,487.083606 C114.799216,490.077846 113.872982,492.809945 112.65548,495.617773 C109.719494,502.3519 106.90584,509.13263 102.886335,515.330823 C101.977578,516.728911 100.585897,517.771653 99.9445238,519.356153 C100.713473,520.963955 101.890197,522.21641 103.340714,523.224198 Z" id="Fill-32" fill="#7C564B"></path>
                    <path d="M0.0280200271,148.507367 C0.743957933,157.204643 5.50328477,162.796998 13.2865609,166.146585 C15.243885,166.985439 17.2827643,167.550499 19.3449451,168.057307 C23.5100843,169.076746 27.4829862,170.824357 30.1335293,174.10404 C30.7626693,174.88464 31.3976345,175.52543 32.0553187,176.026412 C33.7044808,177.290517 35.5272389,177.663341 37.8987468,177.051677 C41.8774742,178.455591 43.9454803,176.405061 45.3901719,172.944792 C46.2465013,170.905912 48.3028567,169.05927 48.3721786,167.078645 C48.3844118,166.61844 48.3145074,166.158236 48.1805239,165.692207 L48.1805239,165.686381 C47.7319705,164.072754 46.5785473,162.435825 45.8270747,160.839674 C43.2813882,155.427906 40.7758968,149.998661 37.8865136,144.755829 C37.2404801,143.58493 37.1997025,142.245095 36.8793072,140.986815 C36.3608493,138.988713 35.8709357,136.973135 35.0093636,135.091541 C34.5491594,134.095403 34.2398323,132.63906 32.8592197,132.743917 C31.5141419,132.842948 31.3452062,134.316767 30.9840333,135.353683 C30.2733382,137.415863 29.859737,139.559599 29.6034207,141.720811 C29.4694372,142.850933 29.2707921,143.363566 27.8208577,143.031519 C21.6517914,141.627605 15.4297143,140.579039 9.05734268,141.272258 C6.76214711,141.522749 4.55433209,142.029556 2.56729857,143.28201 C0.63385845,144.505338 -0.164217165,146.165568 0.0280200271,148.507367" id="Fill-34" fill="#7C564B"></path>
                    <g id="Group-38" transform="translate(160.780197, 509.137290)">
                        <mask id="mask-4" fill="white">
                            <use xlink:href="#path-3"></use>
                        </mask>
                        <g id="Clip-37"></g>
                        <path d="M0.394960049,0.135381586 C0.505059531,6.39182838 0.610498718,12.6541005 0.721180738,18.9163727 C0.779434433,22.1785796 0.878465713,25.4466119 0.901767191,28.7088187 C0.90759256,29.5651481 1.07652827,29.926321 2.05519034,29.9030195 C4.8863199,29.8272897 7.72327482,29.8447658 10.5538218,29.8971941 C11.4398605,29.9146702 11.6612246,29.6169938 11.6437485,28.7845485 C11.596563,26.174783 11.6262724,23.5591921 11.6262724,20.5008732 C13.4554384,22.2776109 14.9816852,23.7630801 16.507932,25.2427239 C19.3215854,27.9748222 21.9255255,30.927702 24.9663684,33.4215426 C29.0557777,36.7711301 33.5354869,39.293515 39.0346356,39.0080719 C45.2736063,38.6876766 49.8983671,35.3730414 53.3003829,30.3981759 C54.7223555,28.3243444 54.3844841,25.8072022 53.1669819,23.5533668 C52.7009523,22.6853867 52.1067647,21.8983793 51.3611174,21.2465205 C47.4225851,17.786251 42.7861735,15.8231015 37.6598484,14.9201693 C37.1879935,16.335734 36.360791,17.5474109 35.446208,18.6833579 C33.5005346,21.1008862 30.8674676,21.4970114 28.0066287,20.2329062 C18.9021588,16.2134013 11.5796694,9.74141581 4.25717999,3.24612887 C3.02220167,2.15095942 2.00858739,0.764521487 0.394960049,0.135381586" id="Fill-36" fill="#040405" mask="url(#mask-4)"></path>
                    </g>
                    <path d="M88.6316564,538.912093 C97.6376775,545.838457 107.139438,544.789891 115.113786,535.672605 C118.772118,531.496398 121.737231,526.777849 125.115945,522.373287 C125.442166,521.954443 125.762561,521.529191 126.269368,520.865099 C126.782001,523.707296 127.32376,526.271041 127.684933,528.863331 C127.824742,529.870537 128.220867,529.981802 129.053895,529.841993 C131.844247,529.375963 134.634599,528.921585 137.431359,528.525459 C138.333709,528.397301 138.409438,528.012827 138.287106,527.208926 C137.320094,520.648977 136.388035,514.078543 135.455976,507.513352 C135.0482,504.606492 134.664308,501.693808 134.273426,498.786948 C133.568556,498.751996 133.411271,499.375311 133.096701,499.783087 C128.372327,505.835645 123.444064,511.707618 117.880836,517.031423 C115.352626,519.449534 112.515671,521.465112 109.602986,523.364182 C107.53498,524.721493 105.402895,524.656832 103.340714,523.223791 C101.890197,522.216584 100.713473,520.963547 99.9445238,519.356328 C99.7289852,519.350503 99.4843196,519.274773 99.3037332,519.350503 C94.6783899,521.353847 90.3151881,523.742831 87.1461872,527.837483 C84.8276901,530.832306 84.3733113,535.63241 88.6316564,538.912093" id="Fill-39" fill="#040405"></path>
                    <g id="Group-43" transform="translate(212.625985, 272.044753)">
                        <mask id="mask-6" fill="white">
                            <use xlink:href="#path-5"></use>
                        </mask>
                        <g id="Clip-42"></g>
                        <path d="M1.69995931,11.5472221 C3.9135997,13.1258972 5.48004155,15.2981775 7.00104551,17.4890989 C9.83217507,21.5668575 12.2380527,25.9009324 14.3235349,30.3981176 C16.0245428,34.0739258 19.0886871,35.3613324 22.8046903,35.7458068 C23.5328615,35.8157112 23.422762,35.3380309 23.4518888,34.9244297 C23.7256812,30.6777354 24.8616283,30.182579 28.6655945,32.4830174 C30.29029,33.4680873 31.6417758,34.6972403 33.0748166,35.8739649 C34.6249475,37.1497208 36.3434314,38.1982873 38.2710462,37.1380701 C40.333227,36.0015405 41.8484056,34.2661629 41.5973321,31.6913496 C42.0406428,24.5843989 39.1862117,19.2017575 33.3194822,15.3162361 C31.0481706,13.8074654 28.7349164,12.397726 26.2189393,11.3316834 C21.7800078,9.44426372 18.7682918,6.32769106 17.7657457,1.48622651 C17.6498209,0.910097469 17.6142861,0.29785114 16.6769842,0.723685647 C11.7190122,2.95480215 6.71501987,5.10378094 2.32851668,8.40152258 C2.06695759,8.59900261 1.80481596,8.79764771 1.56597582,9.01901175 C0.184780719,10.2889423 0.202839364,10.4811795 1.69995931,11.5472221" id="Fill-41" fill="#7C564B" mask="url(#mask-6)"></path>
                    </g>
                    <path d="M154.254676,68.0240042 C157.662517,73.6396603 161.24512,79.1271583 165.532009,84.1253253 C166.720384,85.5117632 167.90876,85.7972063 169.651128,85.3195261 C174.25317,84.0437701 178.6688,84.5039743 182.670246,87.3118024 C184.575724,88.6516374 185.938861,90.4633273 187.045681,92.4905558 C187.301415,92.9565854 187.610742,93.3934881 187.896185,93.8478669 C189.806323,83.3505512 191.076837,72.8066325 190.232158,62.1054288 C190.144195,61.0277354 189.981667,59.9500421 189.859334,58.8723487 C186.294208,60.9869579 182.42558,62.2918406 178.429959,63.322931 C172.406527,64.8783046 166.278239,65.9210458 160.166844,67.0336913 C158.203694,67.3890389 156.229476,67.6919581 154.254676,68.0240042" id="Fill-44" fill="#040405"></path>
                    <path d="M80.4351868,76.5524033 C80.7264553,79.9194668 81.6934666,83.1350708 82.6319336,86.3506747 C83.5401087,89.4730727 84.2805132,92.6245976 84.8974198,95.8169001 C85.4164602,98.5256969 86.5168725,100.989828 89.1563474,102.382091 C88.9641102,98.339285 90.1524856,94.4537636 90.577155,90.4808616 C91.0606607,85.9720257 91.8068905,81.4923166 92.4412732,77.0009567 C92.5111777,76.5232764 92.6218597,76.0514215 92.7150656,75.5737412 C88.590704,75.5096622 84.5304215,76.2261826 80.4351868,76.5524033" id="Fill-46" fill="#040405"></path>
                    <path d="M116.67481,174.966195 C116.925884,176.54487 117.181617,178.123545 117.927265,179.568237 C117.991926,178.047815 117.525314,176.614774 117.222395,175.152607 L117.222395,175.146781 C117.042391,175.088528 116.855979,175.030274 116.67481,174.966195" id="Fill-48" fill="#6497D0"></path>
                    <path d="M117.940022,179.76327 C117.965654,179.718997 117.998276,179.677055 118.011092,179.629869 C118.014587,179.617636 117.955168,179.588509 117.925459,179.566955 C117.941187,179.631617 117.94643,179.696861 117.940022,179.76327" id="Fill-50" fill="#6497D0"></path>
                    <path d="M123.82283,181.863316 C123.840306,181.869141 123.857782,181.874966 123.869433,181.874966 C124.195653,181.985648 124.335462,181.909919 124.189828,181.54292 C124.189828,181.53127 124.184003,181.519619 124.178177,181.507968 L124.160701,181.507968 C123.932929,181.496317 123.851957,181.641952 123.828655,181.834189 C123.82283,181.84584 123.82283,181.851665 123.82283,181.863316" id="Fill-52" fill="#FEFEFE"></path>
                    <path d="M123.852423,181.830053 C123.633971,181.851607 123.522707,181.980347 123.492997,182.190061 C123.798247,182.255887 124.010873,182.228508 123.852423,181.830053" id="Fill-54" fill="#FEFEFE"></path>
                    <path d="M123.524746,182.154584 C123.405908,182.274587 123.28707,182.395172 123.168233,182.515175 C123.410568,182.516922 123.620282,182.48663 123.524746,182.154584" id="Fill-56" fill="#FEFEFE"></path>
                    <path d="M123.190777,182.479698 C123.023589,182.609021 122.967665,182.729024 123.219904,182.822812 C123.210001,182.708635 123.20068,182.593875 123.190777,182.479698" id="Fill-58" fill="#FEFEFE"></path>
                </g>
            </g>
        </g>
    </g>
</svg>