<?xml version="1.0" encoding="UTF-8"?>
<svg width="375px" height="667px" viewBox="0 0 375 667" version="1.1" xmlns="http://www.w3.org/2000/svg" xmlns:xlink="http://www.w3.org/1999/xlink">
    <!-- Generator: Sketch 48.2 (47327) - http://www.bohemiancoding.com/sketch -->
    <title>avatar1</title>
    <desc>Created with Sketch.</desc>
    <defs>
        <polygon id="path-1" points="0.187996699 0.0928869177 49.9674596 0.0928869177 49.9674596 39.9145748 0.187996699 39.9145748"></polygon>
        <polygon id="path-3" points="0 0.130439565 38.2466366 0.130439565 38.2466366 37.6463791 0 37.6463791"></polygon>
    </defs>
    <g id="Page-1" stroke="none" stroke-width="1" fill="none" fill-rule="evenodd">
        <g id="avatar1">
            <g transform="translate(69.500000, 88.000000)">
                <path d="M185.864384,166.42017 L191.24601,157.674887 L206.71918,157.674887 L205.374058,170.456674 L202.683246,180.547649 C202.683246,180.547649 181.155605,191.984315 181.82788,191.984315 C182.500726,191.984315 185.864384,166.42017 185.864384,166.42017" id="Fill-1" fill="#FFFFFF"></path>
                <polygon id="Fill-3" fill="#FFFFFF" points="22.3895105 268.675951 26.2486797 254.440133 45.2622725 245.130343 44.589997 270.021642 38.2470009 278.318742"></polygon>
                <path d="M120.608958,134.801783 L138.100095,138.838287 L138.814566,142.738511 C138.814566,142.738511 140.791478,145.565603 140.118062,148.256416 L128.009121,171.802024 L116.572454,152.965195 L120.608958,134.801783 Z" id="Fill-5" fill="#FFFFFF"></path>
                <path d="M113.444862,407.864118 C107.970864,407.893768 102.496865,407.923419 97.0234361,407.95193 C91.6429514,408.03347 86.2527732,407.963334 80.8836927,408.262693 C78.2795518,408.408096 75.6560238,408.28208 73.0649977,408.669822 C71.0789625,408.355637 69.0513021,408.444019 67.0812327,407.899471 C63.9251303,407.028192 63.1211367,406.013792 63.324701,402.808652 C63.9616236,392.790093 64.5877122,382.771535 65.2423112,372.755258 C65.8376086,363.645041 66.4642674,354.537105 67.0761009,345.427459 C67.6782407,336.470058 68.2809508,327.512657 68.8790992,318.554686 C69.587868,307.935129 70.2880837,297.31443 70.9997036,286.694873 C71.3908664,280.857651 71.7945738,275.02043 72.2039833,269.184349 C72.2239406,268.896394 72.3522374,268.615281 72.4297858,268.331317 C78.1803356,268.424261 83.9303152,268.572515 89.680865,268.593043 C93.9158014,268.607868 98.1535888,268.824547 102.388525,268.536592 C112.060967,267.909933 121.746524,267.487979 131.385894,266.427392 C131.680121,266.945711 131.550114,267.513639 131.555245,268.059328 C131.571211,269.92733 131.589458,271.795332 131.548403,273.662194 C131.530156,274.463907 131.767363,274.591063 132.509204,274.354997 C133.528166,274.031119 134.322466,273.314367 135.29182,272.919783 C139.844932,271.066606 144.396905,269.210578 148.947736,267.3517 C149.226568,267.237658 149.522506,267.13388 149.760853,266.957686 C150.995354,266.042501 152.420875,265.620547 153.889161,265.297239 C152.103269,274.28087 151.933346,283.421307 151.270194,292.513277 C150.418873,304.181448 149.488864,315.843916 149.096561,327.541738 C148.883303,333.892717 148.608462,340.243696 148.230414,346.586692 C147.72635,355.04174 147.093419,363.488804 146.517509,371.93929 C146.095555,378.127189 145.681013,384.314519 145.253357,390.501848 C145.090278,392.867071 144.93347,395.233436 144.709379,397.592387 C144.580512,398.949482 145.155852,400.154903 145.377092,401.43502 C145.669609,403.126828 145.668469,404.700032 144.538886,406.176872 C143.985214,406.901036 143.387636,407.242021 142.537456,407.287637 C141.229398,407.357203 139.92134,407.4319 138.613283,407.504886 C137.119337,406.987708 135.627102,407.516861 134.134297,407.519142 C129.647899,407.524844 125.16036,407.501465 120.675673,407.603533 C118.265973,407.658273 115.838026,407.343518 113.444862,407.864118" id="Fill-7" fill="#6497D0"></path>
                <path d="M57.5828754,175.83254 C52.6842167,174.039235 48.2440053,171.392329 44.3745724,167.956254 C39.3248085,163.472707 36.1014214,158.017525 36.6659276,150.899616 C36.8826067,148.176302 37.8388459,145.724406 39.0744871,143.345498 C42.763164,136.244125 46.0635291,128.959715 49.0907645,121.559552 C52.1619059,114.052761 54.958207,106.444473 56.513735,98.4387499 C57.1267088,95.2849283 57.0280628,92.1048771 57.1164451,88.9316684 C57.4796677,75.9069724 58.0932117,62.8982423 59.778177,49.9676307 C60.4533035,44.7889997 61.2384802,39.6263346 63.0511721,34.673506 C63.6179591,33.1253907 64.4715608,31.7671548 65.4289404,30.5195392 C67.9954476,27.1752681 70.738149,24.0146039 74.2894058,21.5752532 C76.3147854,20.1839452 78.4148622,19.1267791 80.7196438,18.4522228 C81.8537879,18.1197914 82.9160858,17.5946297 84.1112422,17.3910654 C85.195208,17.2068881 85.5983453,16.3373206 85.4056149,15.1946233 C85.0173031,12.893263 84.9203677,10.6101493 85.567554,8.30422729 C86.2432507,5.89395718 88.024011,4.62125245 90.1429047,3.94498551 C93.8908833,2.74925889 97.8213285,2.25488837 101.653698,1.38589106 C107.71102,0.0116892683 113.794001,-0.262580881 119.943126,0.222096098 C124.915912,0.61382914 129.425689,2.45446125 133.854496,4.61897162 C135.56341,5.45432665 137.499837,5.81127699 139.253227,6.56965391 C144.935352,9.02668109 149.977133,12.4678877 153.898455,17.2730323 C158.834748,23.321801 161.477663,30.3342215 161.931548,38.1688824 C162.278235,44.1657621 162.357494,50.1689142 162.145376,56.1623727 C161.82606,65.1893389 160.887497,74.1689778 159.612512,83.1144042 C158.715004,89.4077923 157.713148,95.681223 156.488341,101.91759 C155.806942,105.388448 154.363175,108.62552 153.19995,111.945272 C150.95447,118.358404 148.443843,124.67346 145.657236,130.867631 C143.927794,134.712545 142.076328,138.519826 139.549736,141.939934 C138.742321,143.033024 138.031271,143.491471 136.641104,142.464526 C133.172527,139.90201 129.161112,139.553043 125.015128,140.208212 C124.25333,140.328526 123.519472,140.471078 122.831231,139.990393 C122.177202,135.928229 122.507353,131.841547 122.534152,127.762848 C122.539284,127.035262 123.051901,126.713665 123.65176,126.496985 C128.422693,124.770395 132.903959,122.440524 137.357285,120.033675 C140.203764,118.495254 143.063359,116.934594 145.156023,114.45875 C148.329802,110.701648 150.612345,106.393154 152.033304,101.661567 C152.949629,98.6081018 153.499309,95.4571312 153.284341,92.2941862 C153.043143,88.7423593 152.395386,85.2190428 151.943211,81.6809008 C151.14606,75.4462442 150.328381,69.2132983 149.605357,62.9695183 C149.47649,61.8576123 149.047124,61.6055803 148.076629,61.7658088 C145.142338,62.2493454 142.19037,62.5430026 139.218445,62.7283203 C130.015854,63.3019497 120.915901,63.1628189 112.192286,59.5950261 C107.420214,57.6437736 103.446432,54.7493968 100.641578,50.3433979 C100.175148,49.6112506 99.8318826,48.2113894 99.1082884,48.3602137 C98.4474171,48.4964935 97.9593189,49.7674876 97.5122756,50.6005618 C94.6161881,56.0089867 91.5792592,61.333591 88.3131065,66.5293282 C86.6817409,69.1243458 84.9716864,71.6577809 83.2114537,74.1684076 C81.6462321,76.4007728 81.0971216,76.820446 78.5984692,76.1829532 C71.0682996,74.2613515 64.9647909,77.428288 62.0555886,84.7691485 C61.7442549,85.553755 61.2151017,86.2716471 61.3491006,87.1902525 C61.971768,91.4594014 63.9920157,94.9901307 67.2439131,97.745947 C69.7642334,99.8819469 73.0024459,100.460708 76.1106508,101.171758 C77.1643956,101.412956 77.9529936,101.645031 78.5317549,102.640044 C81.5031099,107.747969 85.121081,112.326171 89.6565171,116.164813 C93.2089143,119.17095 96.9859734,121.795619 101.528822,123.007881 C103.179575,123.448652 103.642584,124.321641 103.733247,125.870897 C103.93225,129.285304 104.253847,132.693438 104.573164,136.099292 C104.667818,137.110841 104.345651,137.802504 103.559334,138.451401 C102.61735,139.229165 101.38684,139.743492 100.929533,141.02475 C100.5378,140.954615 100.122689,140.944351 99.7560449,140.80522 C95.8581016,139.323819 91.5456169,139.426457 88.6130361,142.309429 C86.7256469,144.165457 86.3612838,146.586561 86.2985609,149.089205 C81.7346144,150.193698 77.5806476,152.160346 73.6154197,154.685228 C70.0487673,156.956368 67.0403488,159.752669 64.4253739,163.021672 C61.3513815,166.865446 59.1663436,171.189905 57.5828754,175.83254" id="Fill-9" fill="#804C4D"></path>
                <path d="M100.928963,141.02475 C101.38684,139.743492 102.61735,139.229165 103.559334,138.451401 C104.345651,137.802504 104.667818,137.110841 104.573164,136.099292 C104.253847,132.693438 103.93225,129.285304 103.733247,125.870897 C103.642584,124.321641 103.179575,123.448652 101.528822,123.007881 C96.9854032,121.795619 93.2089143,119.17095 89.6565171,116.164813 C85.121081,112.326171 81.5031099,107.747969 78.5317549,102.640044 C77.9529936,101.64446 77.1643956,101.412956 76.1106508,101.171758 C73.0024459,100.460708 69.7642334,99.8819469 67.2439131,97.745947 C63.9920157,94.9901307 61.971768,91.4594014 61.3491006,87.1902525 C61.2151017,86.2716471 61.7442549,85.553755 62.0555886,84.7691485 C64.9647909,77.428288 71.0682996,74.2613515 78.5984692,76.1829532 C81.0971216,76.820446 81.6462321,76.4007728 83.2114537,74.1684076 C84.9716864,71.6577809 86.6817409,69.1243458 88.3131065,66.5293282 C91.5792592,61.333591 94.6161881,56.0089867 97.5122756,50.6005618 C97.9593189,49.7674876 98.4474171,48.4964935 99.1082884,48.3602137 C99.8318826,48.2113894 100.175148,49.6112506 100.641578,50.3433979 C103.446432,54.7493968 107.420214,57.6437736 112.192286,59.5950261 C120.915901,63.1628189 130.015854,63.3019497 139.218445,62.7283203 C142.19037,62.5430026 145.142338,62.2493454 148.076629,61.7658088 C149.047124,61.6055803 149.47649,61.8576123 149.605357,62.9695183 C150.328381,69.2132983 151.14606,75.4462442 151.943211,81.6809008 C152.395386,85.2190428 153.043143,88.7423593 153.284341,92.2941862 C153.499309,95.4571312 152.949629,98.6081018 152.033304,101.661567 C150.612345,106.393154 148.329802,110.701648 145.156023,114.45875 C143.063359,116.934594 140.203194,118.495254 137.357285,120.033675 C132.903959,122.440524 128.422693,124.770395 123.65176,126.496415 C123.051901,126.713665 122.538714,127.035262 122.534152,127.762848 C122.507353,131.841547 122.177202,135.928229 122.831231,139.990393 C122.58262,141.775144 122.880839,143.555904 122.907639,145.338375 C122.915051,145.81621 123.384903,145.663394 123.746985,145.629752 C127.302233,145.298461 129.148568,146.867674 129.546573,150.359059 C130.03011,154.598557 128.722622,158.619095 128.167239,162.730866 C127.972798,164.172353 127.631814,165.593311 127.408292,167.031377 C127.343288,167.447058 127.189902,167.945991 127.660894,168.281273 C127.45847,170.078569 126.949845,171.808581 126.52732,173.55969 C126.107077,175.300536 124.687829,176.620568 123.009706,176.716363 C122.605999,176.739742 122.344843,176.550432 122.189176,176.191201 C122.087109,176.069177 121.985612,175.947152 121.883545,175.825698 L121.89894,175.853638 C121.889817,175.410016 121.577343,175.140308 121.332724,174.820421 C119.59815,172.555554 117.866428,170.288406 116.151242,168.008713 C113.203265,164.088532 110.279808,160.149534 107.322708,156.236195 C105.681649,154.064272 103.846719,152.098764 103.736098,149.055563 C103.63061,146.168028 102.29005,143.555904 100.928963,141.02475" id="Fill-11" fill="#F6B593"></path>
                <path d="M57.5828754,175.83254 C59.1663436,171.189905 61.3513815,166.865446 64.4253739,163.021672 C67.0403488,159.752669 70.0487673,156.956368 73.6154197,154.685228 C77.5806476,152.160346 81.7346144,150.193698 86.2985609,149.089205 C86.9885129,149.031614 87.6841669,148.890202 88.3678465,148.934108 C89.9610083,149.036746 91.5307915,148.070243 93.1302255,148.842875 C93.1336468,149.498614 93.0954428,150.157775 93.1461914,150.809523 C93.6257365,156.981457 94.1275197,163.15225 94.607635,169.324184 C94.9360749,173.540873 95.232013,177.760414 95.5564615,181.977674 C96.0428491,188.302994 96.5434919,194.626603 97.0338709,200.951352 C97.2596734,203.862836 97.4660888,206.776029 97.6981635,209.687512 C98.1731469,215.657592 98.67436,221.625392 99.1350882,227.596612 C99.4834854,232.116082 99.7680193,236.640114 100.111285,241.160155 C100.587979,247.434726 101.079498,253.708157 101.590975,259.979877 C101.82362,262.834909 102.120128,265.68481 102.387556,268.536991 C98.1537599,268.824376 93.9159724,268.608267 89.681036,268.592872 C83.9304862,268.572344 78.1805066,268.42409 72.4299568,268.331146 C72.8034432,265.033632 73.9353065,261.947665 75.2473556,258.945519 C77.5920518,253.57986 80.610734,248.609925 84.1648418,243.937639 C85.2220078,242.547471 86.4616405,241.295294 87.3899395,239.786523 C87.7679875,239.172409 87.9333479,238.651809 87.8820291,237.986946 C87.1664178,228.608161 85.8874408,219.317189 83.2074622,210.277678 C82.1839385,206.823927 81.0486539,203.38158 79.1316139,200.307017 C72.890685,226.163679 59.830066,248.566589 44.3198324,270.083396 C43.2404283,266.64333 42.223747,263.446172 41.2344358,260.240462 C40.4475484,257.691061 39.665793,255.138809 38.9387775,252.571732 C38.6707796,251.625186 38.2459745,251.487196 37.431147,251.952486 C34.18039,253.807943 30.6416778,255.102886 27.4519331,257.081508 C26.4922727,257.676806 25.8644734,257.328409 25.9294772,256.187992 C25.9984723,254.975159 26.4175754,253.818207 26.876593,252.70516 C28.8763132,247.858961 31.3099618,243.223168 33.9072602,238.678038 C37.472202,232.441101 41.1129814,226.247499 44.7235398,220.036221 C45.3804197,218.906639 46.0447122,217.734861 46.8201954,216.734146 C49.0234799,213.893938 49.4927613,210.453872 50.4837832,207.207677 C53.1820084,198.37002 54.8561397,189.299148 56.4242123,180.206607 C56.6796656,178.726347 57.1905721,177.289422 57.5828754,175.83254" id="Fill-13" fill="#E6554C"></path>
                <path d="M153.889332,265.297011 C152.421046,265.620319 150.994955,266.042844 149.761024,266.957458 C149.522677,267.134222 149.226739,267.23743 148.947337,267.352042 C144.397076,269.21035 139.845103,271.066378 135.291991,272.919555 C134.322637,273.314709 133.527767,274.03089 132.509375,274.355339 C131.767534,274.591405 131.530327,274.463678 131.548004,273.661966 C131.589629,271.795104 131.570812,269.927102 131.555416,268.05967 C131.550285,267.513981 131.680292,266.946053 131.384924,266.426594 C131.37295,265.725238 131.359265,265.023311 131.350712,264.320815 C131.196756,251.699826 131.414575,239.078838 131.090127,226.456139 C130.754844,213.435434 131.193904,200.404466 130.77138,187.3792 C130.596326,181.979328 130.736597,176.569192 130.713219,171.164189 C130.690981,166.012357 130.641943,160.861096 130.60545,155.709265 C130.507944,154.564287 131.51151,154.044257 132.109089,153.415888 C133.835679,151.598634 135.745877,149.955294 137.585939,148.24638 C137.733052,148.10896 137.906396,147.99948 138.052369,147.860919 C138.936192,147.023854 139.380954,145.461483 141.130353,146.077878 C142.294718,146.488428 143.610758,146.505535 144.550462,147.481731 C144.714682,147.652793 144.988382,147.718367 145.212473,147.830698 C149.729663,150.094425 153.015203,153.694149 156.005945,157.650254 C157.678365,159.862092 159.200251,162.153188 160.585857,164.555475 C162.700759,168.222484 164.609816,171.929408 165.657859,176.09763 C166.685374,180.183742 169.099636,183.544549 172.246045,186.353395 C172.50663,186.58604 172.784891,186.799298 173.106489,187.063874 C177.403008,180.53385 181.210858,173.563625 185.554704,166.531247 C186.298256,170.371029 186.992199,173.945664 187.682151,177.52087 C187.739742,177.817948 187.757419,178.12301 187.820142,178.418948 C188.579659,181.993013 188.576238,181.945686 192.291144,181.530004 C195.448387,181.177045 198.618745,180.947821 201.78397,180.67184 C202.014905,180.651313 202.278911,180.56179 202.531513,180.871413 C201.189814,183.236637 199.841841,185.633792 198.473912,188.018973 C195.171836,193.776365 191.718085,199.451648 188.603608,205.308256 C186.481293,209.299714 184.698822,213.472498 182.039941,217.161745 C179.769942,220.312145 177.232515,223.2835 173.079119,223.652995 C171.046897,223.833751 168.980462,222.89975 167.733417,221.162325 C166.451019,219.375293 164.70333,218.100878 163.204823,216.575571 C158.493763,211.78069 154.698457,206.291295 150.822182,200.865194 C149.697161,199.290849 148.474064,197.751287 147.552038,195.962544 C147.159734,198.291274 146.947047,200.600047 146.535927,202.884301 C145.551747,208.348036 144.164431,213.710274 142.651098,219.041721 C141.304266,223.785853 139.880456,228.507748 138.460068,233.230212 C138.315235,233.712038 138.327779,234.086095 138.563846,234.516602 C140.693573,238.396869 142.900279,242.218404 145.533501,245.797601 C147.633007,248.650923 150.253114,251.160979 151.488185,254.615871 C152.727818,258.082737 154.106581,261.507407 153.889332,265.297011" id="Fill-15" fill="#E6554C"></path>
                <path d="M130.605165,155.709322 C130.642228,160.861153 130.690696,166.012414 130.712934,171.164246 C130.736312,176.569249 130.596041,181.979385 130.771665,187.379257 C131.193619,200.404523 130.754559,213.435491 131.089841,226.456196 C131.41486,239.078895 131.19647,251.699883 131.350997,264.320872 C131.35955,265.022798 131.373235,265.725295 131.385209,266.426651 C121.74641,267.488378 112.060853,267.909762 102.388981,268.536991 C102.119843,265.68481 101.823335,262.834909 101.59069,259.979877 C101.079213,253.708157 100.587694,247.434726 100.11157,241.160155 C99.7683044,236.640114 99.4832003,232.116082 99.1348031,227.596612 C98.6746451,221.625392 98.1728618,215.657592 97.6978784,209.687512 C97.4663739,206.776029 97.2593883,203.862836 97.0335858,200.951352 C96.5432068,194.626603 96.042564,188.302994 95.5561764,181.977674 C95.2322981,177.760414 94.9357898,173.540873 94.6079201,169.324184 C94.1278048,163.15225 93.6254514,156.981457 93.1464765,150.809523 C93.0957279,150.157775 93.1333617,149.498614 93.1299404,148.842875 C94.8388544,150.39042 96.584832,151.900331 98.2504102,153.493493 C102.1934,157.265421 106.075948,161.101211 110.02692,164.865156 C113.116879,167.809141 116.289517,170.666454 119.388599,173.601886 C120.206848,174.376799 120.798153,175.395191 121.899226,175.853638 L121.88383,175.825698 C121.985327,175.947722 122.087394,176.069177 122.188891,176.191201 C122.344558,176.550432 122.605714,176.739742 123.009421,176.716363 C124.688114,176.620568 126.107362,175.300536 126.527606,173.55969 C126.94956,171.808581 127.458756,170.078569 127.660609,168.281273 C128.642508,164.090813 129.623836,159.900353 130.605165,155.709322" id="Fill-17" fill="#EDC912"></path>
                <path d="M73.0647696,408.669879 C75.6557957,408.282137 78.2798939,408.408153 80.8834646,408.26275 C86.2525451,407.963391 91.6427234,408.033527 97.0237783,407.951987 C97.7274152,408.237091 97.9332604,408.774797 97.9520772,409.510936 C98.063838,413.808025 97.573459,418.060068 97.1275561,422.321234 C96.6713896,426.676484 96.1257003,431.018049 95.5235604,435.355053 C94.7765877,440.735538 94.0980399,446.125716 93.3140036,451.501069 C92.370309,457.970651 91.3616107,464.43111 90.3534826,470.890429 C89.4850555,476.456231 88.4575403,481.999795 87.7242525,487.582134 C87.1209722,492.178582 86.9881137,496.825779 86.9966669,501.467274 C86.9995179,503.336416 86.9710075,505.205559 86.9738585,507.074701 C86.9744287,507.694518 86.9556119,508.292096 86.4606711,508.751114 C84.0646562,511.062738 81.5922334,513.304796 79.3051283,515.721909 C78.1852394,516.905091 76.8686286,517.819705 75.7128166,518.932751 C72.159279,522.354001 68.3480073,525.435976 64.0286801,527.850808 C63.0285349,528.409612 61.9719391,528.825294 61.035087,529.549458 C59.5434223,530.70413 56.7459808,530.660224 55.4983652,529.478182 C53.9268714,527.989939 52.4682788,526.368837 52.0468949,524.113093 C54.109338,521.783792 56.3360011,519.595333 58.1053572,517.015141 C60.6342306,513.328175 63.0188413,509.553967 65.203309,505.649751 C66.5062348,503.320451 67.8456539,501.015099 69.0157211,498.613382 C69.2654723,498.100765 69.4867131,497.640607 69.4353943,497.049871 C68.8805818,490.648713 69.1240607,484.246416 69.4006116,477.840697 C69.6731712,471.539896 69.8231359,465.233393 70.0951252,458.932022 C70.3500083,453.03892 70.6767376,447.148099 71.0023265,441.257848 C71.3889277,434.263104 71.7875032,427.26893 72.2208615,420.276467 C72.4603489,416.405323 72.7808059,412.538742 73.0647696,408.669879" id="Fill-19" fill="#F6B593"></path>
                <path d="M113.444862,407.864118 C115.838026,407.343518 118.265973,407.658273 120.675673,407.603533 C125.16036,407.501465 129.647899,407.524844 134.134297,407.519142 C135.627102,407.516861 137.119337,406.987708 138.613283,407.504886 C138.115491,413.419656 137.614848,419.333856 137.119907,425.249196 C136.792608,429.160254 136.502372,433.074163 136.143711,436.98123 C135.697808,441.839974 135.191463,446.692446 134.725603,451.548339 C134.379487,455.154336 134.097234,458.766605 133.714054,462.36804 C133.187181,467.317447 132.567365,472.256591 132.03365,477.204857 C131.584896,481.357684 131.018109,485.487702 130.087529,489.56298 C129.973488,490.061912 129.993445,490.571108 130.165078,491.057496 C132.959668,498.98453 135.929313,506.835157 140.042224,514.199966 C141.005306,515.924276 142.163969,517.49634 143.484001,518.956073 C143.20574,520.448308 141.958694,521.264846 141.113646,522.363637 C139.513641,524.442616 136.432806,525.142832 134.418831,523.506905 C132.74527,522.146388 130.864153,521.065273 129.298361,519.583872 C125.065706,515.578159 121.341106,511.113999 117.804104,506.503296 C116.682505,505.041852 115.540948,503.576417 114.481501,502.053961 C113.560615,500.729938 112.853556,499.20178 111.546639,498.156018 C111.144642,497.600635 111.342505,497.014461 111.407508,496.41061 C112.202379,489.056065 113.616495,481.739153 113.35534,474.30934 C112.950492,462.797407 113.144933,451.284903 113.094755,439.773539 C113.057121,431.150281 113.08164,422.525881 113.199673,413.903763 C113.227043,411.89606 113.389552,409.878663 113.444862,407.864118" id="Fill-21" fill="#F6B593"></path>
                <path d="M198.214068,170.117343 C196.334091,170.810717 195.607076,169.102373 194.801942,167.488684 C193.858247,165.598443 193.029165,163.632936 191.899582,161.859588 C190.746051,160.048037 191.221605,158.428645 191.982833,156.760786 C194.909711,150.345374 197.34336,143.709861 200.626049,137.451826 C201.47851,135.826732 201.568033,133.962722 201.979723,132.200778 C202.472383,130.086446 203.061978,128.002335 203.97203,126.024853 C204.269109,125.379377 204.673387,124.662055 205.455712,124.662626 C206.281944,124.663196 206.576742,125.467189 206.823642,126.115516 C207.835761,128.769265 208.278813,131.561005 208.608393,134.359586 C208.723575,135.335213 208.938544,135.480046 209.899345,135.265077 C215.084248,134.105844 220.23893,132.761293 225.647355,133.061222 C228.478439,133.2186 231.059772,134.005487 233.49171,135.385961 C236.106114,136.870783 236.155722,139.356321 235.890005,141.884054 C235.379669,146.74907 233.517369,151.089495 230.023703,154.499911 C227.231964,157.224936 223.830672,159.075832 219.978345,160.076547 C215.757664,161.172487 211.904197,163.045621 208.619798,165.9993 C207.657856,166.864876 207.058567,167.967658 206.346948,168.998595 C206.007104,169.490114 205.699191,169.868162 205.03946,169.827107 C202.918286,169.693679 200.810796,170.007293 198.214068,170.117343" id="Fill-23" fill="#F6B593"></path>
                <path d="M111.546582,498.15579 C112.853499,499.201552 113.560558,500.73028 114.481444,502.053733 C115.540891,503.576759 116.682448,505.041624 117.804047,506.503638 C121.341049,511.114342 125.065649,515.578502 129.298304,519.583644 C130.864096,521.065615 132.745213,522.14616 134.418774,523.506677 C136.432749,525.142604 139.513584,524.442958 141.114159,522.363409 C141.958637,521.264618 143.205683,520.44865 143.483944,518.956415 C144.40483,519.437101 145.317164,519.934322 146.247173,520.396191 C149.677546,522.097692 152.581046,524.450941 154.904644,527.488441 C156.227528,529.218452 156.910637,531.1851 156.802297,533.404921 C156.691677,535.658384 155.691532,537.343349 154.01569,538.866375 C149.463147,543.003806 144.353512,545.15064 138.301322,543.049423 C134.547641,541.745927 131.542644,539.09788 129.208211,535.887607 C126.255103,531.828295 123.511831,527.616737 120.655658,523.486719 C120.120233,522.712947 119.848814,521.754997 118.868056,520.956135 C118.435838,523.678879 117.960854,526.221438 117.656933,528.783954 C117.520083,529.936344 117.139184,530.148462 116.022717,530.018454 C113.526345,529.727078 111.18507,528.735486 108.681856,528.521658 C107.895539,528.454943 107.545431,528.103125 107.665175,527.237549 C108.438377,521.643236 109.177367,516.044932 109.922629,510.447198 C110.467748,506.350252 111.005455,502.252736 111.546582,498.15579" id="Fill-25" fill="#6497D0"></path>
                <g id="Group-29" transform="translate(36.493326, 508.658227)">
                    <mask id="mask-2" fill="white">
                        <use xlink:href="#path-1"></use>
                    </mask>
                    <g id="Clip-28"></g>
                    <path d="M15.5536834,15.4548663 C15.9750673,17.71061 17.4336599,19.331712 19.0051537,20.8199554 C20.2527693,22.001997 23.0502108,22.0459031 24.5418755,20.8912314 C25.4787276,20.167067 26.5353234,19.7513852 27.5354686,19.1925812 C31.8547958,16.7777494 35.6660675,13.695774 39.2190348,10.2745247 C40.3754171,9.16147832 41.6920279,8.24686434 42.8119168,7.06368231 C45.0984517,4.6465697 47.5708745,2.40451101 49.9674596,0.0928869177 C49.9258344,5.14721251 49.8996049,10.1992573 49.8380224,15.2518722 C49.7810015,19.9977152 49.6612578,24.7435581 49.6293262,29.4894011 C49.6224837,30.5049419 49.3807154,30.9075089 48.2790731,30.8704453 C45.8055099,30.7883354 43.3262446,30.7974587 40.8515409,30.8670241 C39.8131918,30.8961047 39.5662916,30.4952483 39.5828277,29.5475623 C39.6278741,26.9223237 39.5982233,24.2959447 39.5982233,21.5258732 C38.5057044,21.8605854 37.8881689,22.6446217 37.3932281,23.3585224 C36.2357055,25.0269516 34.6721946,26.3047882 33.3515923,27.8101379 C30.2793105,31.3112163 27.2167222,34.8881324 23.2469326,37.4318312 C18.8318104,40.2606342 11.5981491,41.3782423 6.28380853,36.930048 C4.7744674,35.6664666 3.35350853,34.3789365 2.05172319,32.887842 C-0.514783973,29.9478485 -0.266743401,25.720895 1.79684012,22.9707808 C3.06042151,21.2858155 4.57033286,19.794721 6.51132161,18.8373415 C8.98089338,17.6182363 11.3244491,16.1157377 14.0814058,15.5500911 C14.577487,15.4480238 15.0456279,15.2393276 15.5536834,15.4548663" id="Fill-27" fill="#6497D0" mask="url(#mask-2)"></path>
                </g>
                <g id="Group-32" transform="translate(0.000000, 267.460153)">
                    <mask id="mask-4" fill="white">
                        <use xlink:href="#path-3"></use>
                    </mask>
                    <g id="Clip-31"></g>
                    <path d="M-0.000114041642,31.5064556 C0.843794112,28.8823574 0.28955173,25.9286789 1.37123671,23.1683009 C2.04864406,21.4399998 2.9609772,19.8662252 4.12819341,18.5444825 C6.76882764,15.5531702 9.89698989,13.0322797 13.5514543,11.4191607 C18.2870335,9.32877741 21.3313752,6.00161249 22.3383629,0.910793576 C22.5117062,0.0326729305 22.7694403,-0.00382039502 23.5107109,0.310934538 C28.2023841,2.30210161 32.5821534,4.82014108 36.6175169,7.9329077 C36.9750374,8.20945869 37.3108901,8.53048591 37.5965644,8.88002354 C38.2676995,9.70055316 38.7438233,10.3329141 37.3268559,11.1277843 C35.4582836,12.1763972 34.3355436,14.0985691 33.1860039,15.8439764 C30.2197808,20.3469107 27.8117915,25.1571872 25.6575449,30.1020328 C25.0018054,31.6073824 24.1698716,33.0568517 22.8612438,34.1607748 C21.3165497,35.4631304 19.296302,35.0656952 17.5628691,35.6997668 C17.0171798,35.8993397 17.0029246,35.2886467 16.9863886,34.8877903 C16.9567378,34.1830129 16.9322188,33.4890695 16.7446203,32.7917049 C16.3004281,31.1409521 15.5146812,30.6733814 13.9979273,31.4893493 C11.9468884,32.592132 9.96883612,33.8751005 8.44124832,35.6524395 C7.17253505,37.1281383 5.67117683,38.0233652 3.81857035,37.4919312 C1.96653408,36.9610673 1.00630345,35.3029019 0.33744922,33.578022 C0.106514894,32.9821544 0.119629683,32.2922025 -0.000114041642,31.5064556" id="Fill-30" fill="#F6B593" mask="url(#mask-4)"></path>
                </g>
                <path d="M121.899169,175.853695 C120.798096,175.395248 120.206791,174.376856 119.388542,173.601943 C116.28946,170.666511 113.116822,167.809198 110.026863,164.865213 C106.075891,161.100698 102.193343,157.265478 98.2503531,153.49355 C96.584775,151.900388 94.8387974,150.390477 93.1298834,148.842362 C91.5304494,148.06973 89.9612364,149.036803 88.3675044,148.934165 C87.6838248,148.889689 86.9881707,149.031671 86.2982188,149.089262 C86.3609417,146.586618 86.7253048,144.165514 88.6132642,142.309486 C91.5452748,139.426514 95.8583297,139.323876 99.756273,140.805277 C100.122347,140.944408 100.537458,140.954101 100.929762,141.024237 C102.290278,143.555961 103.630838,146.167515 103.735756,149.05562 C103.846947,152.098821 105.681877,154.064329 107.322936,156.236252 C110.280036,160.149591 113.203493,164.088589 116.15147,168.00877 C117.866086,170.288463 119.597808,172.555611 121.332382,174.820478 C121.577571,175.140365 121.889475,175.410073 121.899169,175.853695" id="Fill-33" fill="#FEFEFE"></path>
                <path d="M122.189005,176.191144 C122.086938,176.06912 121.985441,175.947665 121.883374,175.825641 C121.985441,175.947095 122.086938,176.06912 122.189005,176.191144" id="Fill-35" fill="#FEFEFE"></path>
            </g>
        </g>
    </g>
</svg>