<?xml version="1.0" encoding="UTF-8"?>
<svg width="375px" height="667px" viewBox="0 0 375 667" version="1.1" xmlns="http://www.w3.org/2000/svg" xmlns:xlink="http://www.w3.org/1999/xlink">
    <!-- Generator: Sketch 48.2 (47327) - http://www.bohemiancoding.com/sketch -->
    <title>avatar2</title>
    <desc>Created with Sketch.</desc>
    <defs>
        <polygon id="path-1" points="0.490234835 0.0965265698 90.3989504 0.0965265698 90.3989504 35.4832615 0.490234835 35.4832615"></polygon>
        <polygon id="path-3" points="0.458431728 0.504153548 58.7721884 0.504153548 58.7721884 35.5371392 0.458431728 35.5371392"></polygon>
        <polygon id="path-5" points="0.459317524 0.0926050098 19.7645723 0.0926050098 19.7645723 32.7915398 0.459317524 32.7915398"></polygon>
    </defs>
    <g id="Page-1" stroke="none" stroke-width="1" fill="none" fill-rule="evenodd">
        <g id="avatar2">
            <g transform="translate(65.500000, 86.000000)">
                <path d="M151.401776,502.440658 C150.502094,496.527278 150.465965,490.574215 150.861612,484.619967 C151.080165,481.325082 150.516902,478.050335 150.705248,474.762557 C150.981254,469.954382 151.381046,465.150353 151.535633,460.338625 C151.633952,457.27177 151.405922,454.1907 151.291611,451.120883 C150.823113,438.520006 151.007906,425.914983 151.139394,413.318251 C151.276804,400.172471 151.360316,387.027283 151.210468,373.886834 C150.996061,355.098941 151.176116,336.312824 151.08905,317.526708 C151.066543,312.632059 151.1696,307.736226 151.215206,302.839801 C148.457524,307.829215 146.92232,313.239152 145.536372,318.697064 C143.861388,325.291573 142.743152,332.003354 141.402218,338.668344 C140.763141,341.844772 139.492096,344.85536 139.028337,348.086871 C138.71561,350.269444 138.957855,352.441947 138.842951,354.616228 C138.812153,355.196076 138.867235,355.766447 138.600114,356.331487 C134.897737,364.189341 133.192546,372.576698 132.102148,381.118642 C131.681033,384.420042 130.335953,387.453729 129.477731,390.627788 C128.059799,395.870108 127.388739,401.224963 126.638906,406.587517 C125.942378,411.574562 124.723454,416.488756 123.721306,421.432565 C119.923571,440.171891 116.116951,458.908255 112.321584,477.647581 C110.371188,487.276961 108.437375,496.909303 106.488755,506.53809 C106.436634,506.79455 106.299224,507.033833 106.202089,507.280224 C102.964063,507.929962 99.7935583,507.373805 96.6117997,506.791589 C92.8140641,506.095653 89.0560116,504.994002 85.121458,505.491522 C82.4514343,504.183755 81.3438601,501.92537 82.0291347,499.167688 C82.8352354,495.925516 82.6557729,492.656692 82.9756071,489.40682 C83.7076722,481.958828 84.7429875,474.541043 85.610686,467.106081 C86.3551891,460.727164 87.0280256,454.339363 87.7506141,447.957486 C88.5194008,441.165746 89.3166173,434.376968 90.0865887,427.58582 C90.703158,422.148638 91.2895208,416.707902 91.9037211,411.271312 C92.5641196,405.420714 93.3317218,399.580186 93.8825474,393.719519 C94.3925054,388.295367 95.279157,382.91919 95.4562504,377.443509 C95.6374898,371.839302 96.54191,366.261156 96.8960968,360.656357 C97.1827631,356.10938 97.7543188,351.591425 97.9930099,347.037933 C98.2672381,341.809235 98.9175678,336.601268 99.357636,331.380269 C99.8747014,325.239452 100.312993,319.092119 100.837166,312.952486 C101.27368,307.839876 101.797853,302.734966 102.258651,297.624133 C102.658444,293.19206 103.003154,288.75584 103.409462,284.325543 C103.801555,280.053387 104.214971,275.783007 104.668661,271.517366 C105.211195,266.415418 105.410203,261.272009 106.558645,256.244096 C107.537693,251.957725 109.29382,248.088323 112.49157,244.980007 C112.905578,244.578438 113.412575,244.272818 113.876334,243.922185 C114.002491,243.955353 172.229315,243.922185 176.142733,243.898494 C182.155024,246.05086 188.166131,248.204411 194.178423,250.354407 C196.270376,251.102464 198.333307,251.90975 200.1688,253.196786 C200.581623,255.334345 200.84519,257.514549 201.439845,259.600579 C202.570519,263.563562 202.039238,267.525953 201.692159,271.488936 C201.146664,277.721558 200.514103,283.947073 199.905233,290.174364 C199.26438,296.729782 198.537053,303.274538 197.738652,309.815149 C196.90886,316.610442 196.072553,323.403959 195.117196,330.18326 C194.183161,336.815083 192.941138,343.394192 191.851333,349.998769 C191.047009,354.870318 190.56785,359.796358 189.970826,364.701668 C189.052191,372.24561 188.14244,379.790737 187.255788,387.338826 C186.430735,394.354449 185.638256,401.373627 184.835709,408.391027 C184.209663,413.869077 183.417777,419.335874 183.025092,424.8311 C182.741979,428.794675 182.264597,432.735152 181.966678,436.694582 C181.431251,443.822739 180.594944,450.928983 180.140069,458.060102 C179.842149,462.729682 179.506915,467.393932 179.128445,472.056404 C178.601903,478.536602 177.978226,485.009691 177.550596,491.496404 C177.345073,494.616565 177.189301,497.741464 176.90382,500.856886 C176.656244,503.564816 174.480779,505.718367 171.740866,506.026948 C171.098828,505.987265 170.45679,505.946397 169.814753,505.906714 C169.621668,505.830309 169.429175,505.68816 169.237274,505.68816 C164.514981,505.694083 159.792687,505.714813 155.070394,505.732582 C151.946679,505.536535 151.87442,505.547789 151.401776,502.440658 Z" id="Fill-1" fill="#6498D0"></path>
                <path d="M115.877904,218.245773 C115.147616,208.539988 114.53697,198.825319 113.939353,189.110649 C113.860579,187.833089 113.422288,188.025582 112.623295,188.445513 C107.783136,190.984641 103.511572,194.312694 99.4188784,197.89543 C94.6942157,202.030769 90.2562193,206.490087 85.3159647,210.38022 C83.2222349,212.02855 81.0372931,213.534733 78.5662773,214.583079 C74.4789141,216.317291 70.7877899,215.729151 67.4775053,212.751139 C66.0050832,211.425604 64.7221925,209.934228 63.5938883,208.315512 C60.0567584,203.240808 57.3150681,197.71656 54.5455404,192.21008 C60.4897192,188.90098 66.4333057,185.591288 72.3768923,182.282188 C73.6052927,182.683166 74.6311315,183.466167 75.7541051,184.066153 C77.2241581,184.851523 78.6811808,184.830201 79.8396915,183.550864 C86.5911557,176.089842 94.2914615,169.535609 100.678078,161.729876 C101.754261,160.415002 102.714356,159.005362 103.728349,157.639551 C105.836293,156.494071 107.706139,155.038233 109.419029,153.361472 C112.263185,150.578322 115.219283,147.94265 119.015834,146.483851 C120.182044,146.676936 121.350624,146.848699 122.539341,146.791247 C124.482038,149.801835 127.12304,152.072066 130.146066,153.926512 C131.547414,154.786511 132.941654,155.679086 134.615453,155.945022 C141.28459,157.004029 147.980971,157.827898 154.740728,157.917333 C160.928928,157.998476 167.027101,157.194745 173.044723,155.762598 C173.077891,156.37739 172.740289,156.874318 172.532396,157.415667 C170.882288,161.712107 169.23988,166.012694 167.595695,170.31091 C163.710301,169.631559 162.117645,170.309726 160.629232,173.351705 C157.604429,179.533983 155.858963,185.931852 157.445104,192.869294 C157.279264,194.485642 155.896869,195.481274 155.402311,196.964357 C154.109943,200.842051 152.783223,204.71323 151.046642,208.425677 C149.618641,211.475948 149.494261,214.364525 152.109795,216.915499 C152.252536,217.054687 152.299918,217.291601 152.391723,217.482909 C151.994299,219.427975 151.95817,221.335727 152.969201,223.136868 C152.697342,224.870488 153.222107,226.32988 154.297106,227.714051 C155.403495,229.140275 156.909678,229.999682 158.318133,231.025521 C159.650183,231.996277 161.383211,232.218384 162.577851,233.40947 C161.448955,234.825033 159.877621,235.259771 158.181907,235.244371 C155.908123,235.223641 153.633153,234.985542 151.360553,235.011603 C143.927368,235.095115 136.495368,235.237856 129.062183,235.040033 C126.409336,234.968958 123.750565,235.225418 121.102456,234.894923 C117.350327,229.977175 116.324488,224.176329 115.877904,218.245773 Z" id="Fill-3" fill="#223983"></path>
                <g id="Group-7" transform="translate(106.019132, 0.498112)">
                    <mask id="mask-2" fill="white">
                        <use xlink:href="#path-1"></use>
                    </mask>
                    <g id="Clip-6"></g>
                    <path d="M0.490234835,18.8784115 C6.31595652,8.88942928 15.0255171,3.20832463 26.0680908,1.27597198 C34.4317565,-0.187710789 42.9032182,0.0800138484 51.3539499,0.186253784 C56.9392036,0.257282769 62.5244573,0.248783574 68.1103033,0.259104025 C69.6099706,0.262139452 71.0818005,0.421802897 72.5062475,0.911720771 C73.6381053,1.30086248 74.4548673,2.00386731 74.6236687,3.30363703 C75.1413263,7.28490272 77.3055381,10.2395871 80.3208644,12.5774728 C82.6059024,14.3489478 85.0147282,15.9516531 87.3643254,17.6357078 C88.5009215,18.4504164 89.5001074,19.4217529 90.3986048,20.503579 C90.4187425,22.2920524 89.5557823,23.733273 88.6152327,25.1216772 C86.6932657,27.9591941 83.7442754,29.3973793 80.9249957,31.0280105 C79.4288822,31.8931072 77.6905238,32.3903101 76.565181,33.8618849 C75.306574,33.8181748 74.0408596,33.6050878 72.8012057,34.0276192 C72.2699255,34.0318688 71.7238381,33.9541619 71.2097342,34.0531168 C66.7154706,34.9176063 62.1536865,35.0183825 57.6126324,35.2581812 C54.1601993,35.4403068 50.69059,35.3723133 47.2310495,35.2873213 C38.7856483,35.0796981 30.3378781,35.8221635 21.8989921,35.2824646 C16.0892621,34.9103213 11.0169278,32.6149316 6.7957079,28.4460766 C4.03032619,25.7147996 2.2339238,22.3151217 0.490234835,18.8784115" id="Fill-5" fill="#030304" mask="url(#mask-2)"></path>
                </g>
                <path d="M116.307489,109.063717 C116.393963,109.02048 116.477475,108.978428 116.560987,108.936968 C116.481621,108.890177 116.403439,108.808442 116.322296,108.805481 C116.240561,108.802519 116.154679,108.876555 116.071167,108.91683 C116.148757,108.965398 116.226938,109.013965 116.307489,109.063717 M109.419207,153.361353 C107.706317,155.038114 105.835879,156.494545 103.727934,157.640025 C100.68477,151.453009 97.4923508,145.32226 96.1952452,138.454116 C95.9399701,137.100151 95.7818298,135.723679 95.659819,134.350169 C95.4892407,132.42524 95.7042404,130.468328 94.5806745,128.683772 C94.0535403,127.846872 94.0180032,126.749367 94.1044769,125.727674 C94.7897514,117.656005 94.2608403,109.569529 94.4124654,101.490753 C94.4788014,97.9542152 94.1968734,94.4224158 95.4987173,90.9741287 C96.1490469,89.2505775 96.0068984,87.2924811 95.7374084,85.4445499 C94.637534,77.9118609 96.1899147,70.503552 96.8035226,63.0602982 C97.6025159,53.3681357 98.6366467,43.6949264 99.5694966,34.0134251 C99.7643586,34.31786 100.876762,33.7385141 101.00588,34.0684172 C104.168685,42.1193561 109.371232,47.8231574 117.35465,50.582024 C123.331405,52.6485087 129.551589,53.1578743 135.79191,53.4356563 C139.458751,53.5985349 143.139214,53.484816 146.813162,53.4605323 C152.019353,53.4255874 157.191191,52.8166272 162.24398,54.2250825 C161.66354,55.3758936 161.338375,57.9790795 160.095168,58.1899332 C155.578989,58.9581277 151.588761,61.0056592 147.488367,62.8156842 C137.051702,62.7890313 126.615629,62.7392793 116.178963,62.7481636 C112.859202,62.7511251 109.728972,65.9287376 109.807154,69.3142424 C109.872898,72.1264147 109.872306,74.9433252 109.51575,77.7442441 C109.358202,78.7860746 108.529002,78.3691055 108.006013,78.34956 C102.740002,78.1481829 99.4119486,81.3329029 98.3073359,86.2062292 C96.6039223,93.7258879 100.233449,98.4588425 107.876895,98.8758116 C109.768656,98.9788693 111.548474,99.5468713 112.9131,100.942889 C115.234268,103.317954 116.305712,106.370594 117.362942,109.421458 C116.521304,111.568493 117.828569,113.745143 117.917412,115.954368 C118.163803,122.107032 117.843376,128.267395 118.225401,134.431904 C118.478307,138.509198 118.880469,142.526672 119.875508,146.483732 C116.080142,147.942532 112.263363,150.578203 109.419207,153.361353 Z" id="Fill-8" fill="#030304"></path>
                <path d="M167.595755,170.311503 C169.23994,166.012694 170.882348,161.712107 172.532456,157.415667 C172.740348,156.874318 173.077951,156.37739 173.04419,155.762598 C175.069215,152.28292 176.668979,148.600088 178.220175,144.894749 C178.954017,144.071471 179.612638,143.163498 180.434731,142.440909 C182.609604,140.529603 185.069366,139.384715 188.070477,140.02616 C193.855924,142.407149 199.63367,144.805313 205.430962,147.155503 C206.586511,147.624001 207.665064,148.367912 208.989414,148.350143 C213.115869,150.628666 217.450215,152.476005 221.728886,154.433509 C224.183911,155.557075 226.722447,156.49644 229.191686,157.589799 C235.134088,160.221917 237.45644,164.361401 236.668108,170.772893 C236.604141,171.293512 236.641455,171.827162 236.631978,172.354296 C236.037916,172.333566 236.020739,172.836417 235.856676,173.207187 C234.570232,176.114718 233.271349,179.016917 231.997935,181.93037 C229.24203,188.241766 226.499155,194.559677 223.75095,200.875219 C221.952178,200.564269 220.37196,199.415828 218.470723,199.504078 C218.175173,198.957398 217.62257,198.730553 217.133342,198.423157 C213.689201,196.257168 210.248021,194.088218 206.805065,191.920453 C207.540684,191.55442 208.064856,190.934889 208.557638,190.321874 C209.888504,188.664066 209.759978,187.179206 208.264457,185.671839 C207.730807,185.133451 207.118384,184.740766 206.437255,184.424485 C203.023913,182.838344 199.636632,181.195344 196.20019,179.661324 C192.283405,177.912305 188.302653,176.327348 183.988445,175.823313 L183.993775,166.966866 C185.318126,167.314537 186.658468,167.613049 187.965643,168.01758 C194.72836,170.111903 201.129191,173.061485 207.424596,176.264566 C209.027913,177.080143 210.679798,177.838269 212.549051,177.789109 C214.307547,177.742911 215.716003,176.536425 216.095065,174.710408 C216.437406,173.057931 215.272381,172.339489 214.097286,171.658953 C213.776267,171.472975 213.436295,171.315427 213.094546,171.170909 C205.288814,167.865955 197.258012,165.08932 189.695709,161.208072 C188.993258,160.84737 188.241056,160.582026 187.426071,160.53109 C185.05219,160.383018 184.093279,161.17905 183.913224,163.574253 C183.838004,164.579362 183.890717,165.593948 183.885387,166.603795 C183.349368,166.37458 182.822826,166.119305 182.276147,165.919705 C179.214622,164.802062 177.5503,165.629485 176.660687,168.772152 C176.382905,169.752385 176.033456,170.688196 175.532975,171.565372 C174.515428,173.346967 173.282289,173.755644 171.386975,172.934144 C169.952459,172.312244 168.856731,171.189862 167.595755,170.311503" id="Fill-10" fill="#4E9AAC"></path>
                <path d="M205.430784,147.155147 C199.633492,144.80555 193.855746,142.407386 188.070892,140.025805 C187.993303,138.988713 187.812565,137.368129 188.236049,136.537744 C191.197477,130.729199 191.532119,125.485785 190.520495,119.170243 C190.059697,116.299434 189.327632,114.355643 188.769106,111.510895 C188.905332,110.784161 190.085255,109.288549 190.451288,108.641181 C191.673766,106.476969 193.203047,104.411076 193.416862,101.839964 C193.496821,100.880462 193.899575,100.663685 194.692053,100.412556 C196.797036,99.7456423 198.979609,99.5655875 201.130791,99.1888938 C203.242289,98.8187153 205.341349,98.4366911 207.173881,97.1727535 C210.983462,94.5435975 211.417016,87.5652879 209.979538,83.883048 C208.670587,80.5289343 205.78734,79.472889 202.639342,78.6922565 C201.419234,78.3890063 200.123905,78.6673805 198.963025,78.0922711 C198.960656,75.2889831 198.966579,72.4856951 198.954141,69.6824071 C198.948218,68.2822439 198.486827,67.0615431 197.780231,65.8236661 C197.078372,64.5934888 195.735068,64.1836271 194.973981,63.1109978 C195.039133,60.4617041 194.873885,57.8390632 194.546351,55.1980615 C194.31536,53.3335462 193.40324,50.7457597 193.572633,48.8303079 C195.945922,48.6010933 198.178247,47.9466177 200.367927,46.9657926 C203.528363,45.5502299 206.18358,43.3309356 209.20246,41.7057038 C209.730186,44.4456172 210.310034,48.0385125 210.770832,50.7896794 C211.248214,53.6409425 211.637938,56.5081974 212.010486,59.3754522 C212.178103,60.6672272 212.236739,61.9767708 212.346312,63.2738764 C213.125167,72.5313011 212.801779,81.820117 213.030994,91.0935335 C213.196242,97.7644468 213.734629,104.42766 213.671255,111.109827 C213.64401,113.924961 213.816365,116.756086 213.57412,119.552267 C213.20098,123.858184 213.023887,128.173577 212.430416,132.47594 C211.685913,137.875808 210.408353,143.118721 208.989237,148.35038 C207.665478,148.368149 206.586334,147.623645 205.430784,147.155147 Z" id="Fill-12" fill="#030304"></path>
                <path d="M146.812984,54.3213916 C143.139036,54.3456753 139.458573,54.4588018 135.792325,54.2959233 C129.552003,54.0187336 123.331819,53.5087757 117.354473,51.4428833 C109.371054,48.6834244 103.308418,42.9802153 100.145613,34.9292764 C100.015902,34.5993733 99.7641809,34.3180377 99.5693189,34.0136028 C100.194773,28.2050574 101.97163,22.9266077 106.50913,18.9162415 C108.253411,22.2691706 110.049221,25.5859703 112.814603,28.2506634 C117.036415,32.3184813 122.108157,34.5573211 127.918479,34.9203922 C136.356773,35.4469341 144.805136,34.7225688 153.249945,34.9251304 C156.709485,35.0080504 160.179687,35.0743864 163.63212,34.8967007 C168.173174,34.6633402 172.734958,34.5644285 177.229222,33.7210137 C177.742733,33.6244712 178.289413,33.7002837 178.820101,33.6961377 C178.846161,34.3577208 178.525735,34.9239459 178.298297,35.5097164 C175.08574,43.7875007 169.492786,50.1166652 162.243802,55.0859418 C157.191606,53.6774865 152.019175,54.2864467 146.812984,54.3213916 Z" id="Fill-14" fill="#575756"></path>
                <path d="M72.3768923,182.282425 C66.4333057,185.591525 60.4897192,188.900625 54.5461327,192.209725 C49.518812,184.733895 44.3825109,177.324994 40.4438113,169.181659 C38.8511551,165.887958 36.3801394,163.664518 32.7192218,162.927122 C32.0990987,162.80215 31.461207,162.760098 30.8316074,162.680139 C33.329276,161.518075 35.8482669,160.398655 38.3169135,159.177954 C40.240065,158.226743 41.5395397,156.686801 41.63549,154.480536 C41.6870188,153.288265 41.4589889,152.050388 41.1616615,150.882993 C39.9462913,146.113317 38.6047643,141.376216 37.4071627,136.602394 C36.36474,132.453433 35.3531161,128.292626 34.6779104,124.06193 C37.8691455,124.486599 39.9658367,126.485563 40.9579152,129.293589 C43.138711,135.462836 46.2600564,141.113242 49.8652991,146.508372 C53.4693573,151.901725 56.1861716,157.826358 59.9329707,163.122576 C62.8440547,167.237185 65.9032101,171.248143 68.7906026,175.378743 C70.2790165,177.507418 71.5163012,179.807263 72.3768923,182.282425" id="Fill-16" fill="#F1BDB3"></path>
                <g id="Group-20" transform="translate(45.605995, 514.009774)">
                    <mask id="mask-4" fill="white">
                        <use xlink:href="#path-3"></use>
                    </mask>
                    <g id="Clip-19"></g>
                    <path d="M56.1729044,0.504153548 C58.1440311,1.24214147 59.2616741,4.55775656 58.5633693,7.15019087 C57.9100783,9.57382376 56.5525595,11.5775261 54.9492423,13.4414491 C52.5007334,16.2861971 49.5884648,18.5670891 46.4327669,20.5891523 C42.410555,23.1655949 38.5411528,25.9848747 34.4757041,28.4878738 C26.1108538,33.6372053 17.015123,36.0975599 7.14882861,35.430054 C5.98143359,35.3506877 4.82588428,35.2097237 3.69935696,34.8691595 C0.714829555,33.9677007 -0.251188346,32.1547143 0.979581242,29.2773906 C2.53729251,25.6354261 4.84839113,22.4412296 7.43608715,19.4679556 C10.3513171,16.1179879 13.6503482,13.2294108 17.8028629,11.4661764 C19.0508088,16.3584559 22.3403633,18.5202986 27.1745988,17.3937712 C35.1645323,15.5322174 42.5331581,12.0519469 49.8253791,8.40702102 C50.2364253,8.2014979 50.6024579,7.84612651 50.9027467,7.48838598 C52.7773308,5.25073078 54.5891326,2.9627313 56.1729044,0.504153548" id="Fill-18" fill="#040405" mask="url(#mask-4)"></path>
                </g>
                <path d="M187.782034,524.036755 C189.316054,524.052747 190.805653,524.414041 191.938103,525.416781 C194.986005,528.117604 198.405862,530.374212 201.138668,533.462982 C203.06715,535.642593 204.530688,538.053195 205.822463,540.620161 C207.323907,543.603504 206.278523,546.50215 203.222329,547.840716 C199.849854,549.318469 196.405121,549.045425 192.909451,548.466169 C183.162798,546.852191 174.048707,543.637857 166.378015,537.257756 C162.525197,534.05349 158.420658,531.237764 154.412068,528.268044 C151.128437,525.834935 149.022861,522.679829 149.438053,518.350813 C149.538742,517.301875 149.831923,516.270706 150.036262,515.231245 C150.134581,515.259082 150.2637,515.256121 150.326482,515.319495 C156.135027,521.176608 163.2697,524.825088 170.917885,527.56737 C174.691337,528.920151 178.431028,530.442325 182.430733,531.045864 C185.399269,531.49304 187.271484,529.984488 187.816979,527.034313 C188.008287,525.997221 187.667723,525.034164 187.782034,524.036755" id="Fill-21" fill="#040405"></path>
                <path d="M34.6776735,124.061752 C35.3534714,128.293041 36.3650953,132.453255 37.4069258,136.602809 C38.6051197,141.376039 39.9460544,146.113139 41.1614246,150.882816 C41.4593442,152.050211 41.6867819,153.28868 41.6352531,154.480359 C41.5393028,156.686623 40.2398281,158.227158 38.3172688,159.177776 C35.84803,160.399069 33.3290391,161.517897 30.8313705,162.680554 C26.2938701,163.393666 21.7723614,164.170152 17.3165964,165.325109 C12.5729806,166.555879 11.0768671,165.003498 12.2205707,160.208946 C12.2697304,160.004015 12.2821684,159.7902 12.3111904,159.580531 C14.265733,159.148162 16.2327137,158.764953 18.1718569,158.270987 C20.3887821,157.706539 22.3687931,156.812187 23.2128001,154.386778 C23.6510915,153.127578 23.3857475,151.867787 23.4728135,150.610957 C25.0157176,149.065683 27.0656183,149.002901 29.0367449,148.710904 C31.3448821,148.368563 33.5357468,147.843206 34.4034452,145.26084 C34.9536786,142.427346 34.5639547,139.802336 32.6828554,137.508413 C33.0897557,134.258542 31.7186144,131.439262 30.5180514,128.579115 C29.8991129,125.486199 28.9982464,122.489826 27.2948328,119.803811 C25.7584438,117.382547 23.4899898,116.566377 20.6991398,116.912864 C17.5061278,117.309103 14.6282118,118.763757 11.5554339,119.559197 C11.3191119,119.606579 11.1005585,119.679431 11.0152694,119.941221 C7.80093511,120.258686 7.60548085,120.562529 8.74148473,123.476574 C8.83565815,123.718819 8.928647,123.961656 9.02222813,124.203901 C9.69624921,127.036211 10.3702703,129.869113 11.0442914,132.701423 C10.6812202,134.504933 9.54225494,135.460882 7.76776712,135.798485 C6.51626753,136.036584 5.26476795,135.868374 4.01445293,135.923457 C3.06501903,131.134235 1.27335493,126.56949 0.187103038,121.828835 C-0.545554316,118.63227 0.903768679,116.04635 4.0280755,115.283486 C10.77184,113.636932 17.280467,111.04509 24.2042863,110.161992 C26.5603986,109.861111 28.5895693,110.66662 29.9749254,112.769826 C31.9336141,115.744285 32.7592603,119.184872 34.0314899,122.441851 C34.2429358,122.9832 34.4620815,123.521588 34.6776735,124.061752" id="Fill-23" fill="#F5D67F"></path>
                <path d="M200.168563,253.196846 C198.33307,251.909809 196.270139,251.102523 194.178779,250.354467 C188.165895,248.20447 182.154787,246.050919 176.14368,243.898553 C173.388368,242.859092 170.679253,241.66149 167.862935,240.825183 C165.237925,240.045143 164.59411,238.363644 164.431232,236.133688 C164.38148,235.448414 164.388587,234.758993 164.369634,234.07135 C166.726338,234.333732 168.798154,235.479213 170.987834,236.246222 C180.002421,239.40192 188.844062,243.041516 197.956376,245.928908 C198.872642,246.219128 199.705988,246.220313 200.592048,245.898109 C203.96393,244.673263 205.900112,242.016862 207.132066,238.896108 C209.411181,233.122508 211.472335,227.262434 213.624701,221.438489 C217.404076,222.888404 220.565697,225.364158 223.864728,227.609513 C222.929509,230.432346 221.76626,233.169891 220.389196,235.793124 C218.534157,239.326108 217.067658,243.019601 215.518238,246.682296 C214.148874,249.918544 212.258298,252.744339 209.139322,254.590494 C208.256224,255.11289 207.448346,255.241416 206.431984,254.921581 C204.368461,254.272436 202.332183,253.493581 200.168563,253.196846" id="Fill-25" fill="#83C8CC"></path>
                <path d="M223.864609,227.609632 C220.565578,225.363684 217.403957,222.888523 213.624583,221.439792 C212.368937,219.602522 210.101668,218.877564 208.818777,217.069908 C212.589267,211.518415 216.039924,205.791013 218.471256,199.503308 C220.372493,199.41565 221.952119,200.564092 223.751483,200.874449 C227.144095,202.266913 230.536707,203.659377 233.929319,205.052432 C235.874386,208.283943 237.676118,211.562836 237.991214,215.441715 C238.315787,219.453858 236.865279,222.576388 233.464967,224.756592 C231.189998,226.214799 228.625401,226.840845 226.002168,227.281505 C225.291425,227.401147 224.577129,227.500651 223.864609,227.609632" id="Fill-27" fill="#223983"></path>
                <path d="M101.7789,514.513927 C100.195128,516.972505 98.3833261,519.260505 96.508742,521.49816 C96.2084532,521.8559 95.8424207,522.211272 95.4313744,522.416795 C88.1391535,526.061721 80.7705276,529.541991 72.7805942,531.403545 C67.9463587,532.530072 64.6568041,530.36823 63.4088583,525.47595 C64.3624382,522.936229 66.5207271,521.828063 68.8495943,520.968656 C71.1393706,520.124649 73.6169015,519.649636 75.6016507,518.193798 C77.0539352,517.127684 78.4955584,516.566197 80.2925531,516.317437 C83.3262402,515.898099 84.6825744,513.926972 84.8383455,510.565159 C84.9171195,508.872999 84.6263072,507.158924 85.121458,505.491048 C89.0566039,504.99412 92.8140641,506.095771 96.6117997,506.791707 C99.7935583,507.373924 102.964063,507.93008 106.202089,507.280343 C105.259763,508.33165 104.103029,509.149004 103.218746,510.2856 C102.220153,511.567899 101.793707,512.94674 101.7789,514.513927" id="Fill-29" fill="#F1BDB3"></path>
                <path d="M187.782034,524.036755 C187.667723,525.034164 188.008287,525.997221 187.816979,527.034313 C187.271484,529.984488 185.399269,531.49304 182.430733,531.045864 C178.431028,530.442325 174.691337,528.920151 170.917885,527.56737 C163.2697,524.825088 156.135027,521.176608 150.326482,515.319495 C150.2637,515.256121 150.134581,515.259082 150.036262,515.231245 C149.812378,513.811536 150.162419,512.956868 151.780543,512.541083 C154.343955,511.881869 154.87642,509.653691 155.110965,507.363322 C155.159533,506.894232 155.12518,506.416257 155.128734,505.942429 C160.024567,505.931175 164.919216,505.918737 169.814457,505.906892 C170.456494,505.946575 171.098532,505.98685 171.74057,506.027126 C171.638104,507.607936 171.457457,509.188746 171.452719,510.770149 C171.445019,513.369691 173.371724,515.667167 175.89723,516.229838 C176.100977,516.275444 176.341445,516.286105 176.4984,516.402193 C179.092611,518.327714 182.171312,519.302616 185.007176,520.751347 C186.408524,521.466828 187.365657,522.512804 187.782034,524.036755" id="Fill-31" fill="#F1BDB3"></path>
                <path d="M164.430995,236.133333 C164.594466,238.363288 165.23828,240.04538 167.862698,240.824827 C170.679016,241.661727 173.388723,242.858736 176.143443,243.89879 C170.401234,243.918928 123.383822,244.008363 114.254923,244.021985 C114.128766,243.988817 114.00261,243.955649 113.876453,243.922481 C115.221533,241.746424 117.132839,240.034718 118.702988,238.043454 C119.520935,237.006954 120.543812,236.128002 121.101745,234.894271 C123.750447,235.225359 126.409217,234.969491 129.062657,235.039973 C136.49525,235.237797 143.92725,235.095648 151.360435,235.011544 C153.633035,234.985483 155.908004,235.223582 158.182381,235.244312 C159.877503,235.259711 161.448836,234.824974 162.577733,233.410003 C163.116713,233.334191 163.617194,233.430733 164.070885,233.741091 C164.176312,233.84711 164.281739,233.952537 164.387166,234.057964 C164.38835,234.75923 164.381243,235.448651 164.430995,236.133333 Z" id="Fill-33" fill="#F1BDB3"></path>
                <path d="M209.202637,42.5663854 C206.183165,44.1916172 203.528541,46.4109115 200.368104,47.8264742 C198.178424,48.8072993 195.945507,49.4617749 193.572219,49.6909895 C192.873914,45.9015459 190.947801,42.7434788 188.604719,39.7613205 C186.805947,37.4721364 184.455758,35.7397009 182.584728,33.5340291 C183.709478,32.098921 185.448429,31.613839 186.94395,30.769832 C189.763822,29.1789527 192.71222,27.7752357 194.634187,25.0074849 C195.574737,23.6523353 196.437697,22.2468414 196.417559,20.5019679 C200.528022,24.2090838 204.300289,28.1827283 206.672985,33.2888229 C208.044719,36.2419591 208.981715,39.304076 209.202637,42.5663854" id="Fill-35" fill="#575756"></path>
                <path d="M23.4725174,150.610779 C23.3860437,151.868201 23.6507953,153.127401 23.2130962,154.3866 C22.3684969,156.812602 20.3890783,157.706361 18.1715608,158.271402 C16.2330098,158.764776 14.2660292,159.148577 12.3114865,159.580353 C8.06539066,156.492175 6.20087542,152.138284 5.56357606,147.081941 C5.09448582,143.356464 4.76043671,139.61085 4.01415679,135.923279 C5.2644718,135.868197 6.51597139,136.036998 7.76806326,135.798307 C9.54255108,135.460704 10.6809241,134.505347 11.0445875,132.701245 C13.2757276,132.80608 15.5068676,132.912099 17.7380077,133.016934 C18.5133096,135.10711 19.8512829,137.053953 19.3750852,139.462186 C19.5794238,140.975476 19.7843546,142.489358 19.9875086,144.00324 C20.3411031,146.631804 21.0642839,149.065506 23.4725174,150.610779" id="Fill-37" fill="#ECBCB2"></path>
                <g id="Group-41" transform="translate(223.291691, 172.260952)">
                    <mask id="mask-6" fill="white">
                        <use xlink:href="#path-5"></use>
                    </mask>
                    <g id="Clip-40"></g>
                    <path d="M10.6377465,32.7915398 C7.24454197,31.398484 3.85252203,30.0060204 0.459317524,28.6135568 C3.20752296,22.2986072 5.95039782,15.9812884 8.70630296,9.66930021 C9.97971712,6.75584708 11.2785996,3.85364738 12.565044,0.946117103 C12.7291071,0.575346284 12.7462834,0.072495764 13.3397536,0.0932257619 C18.7597596,2.57134894 20.6378975,7.25514389 19.3988359,11.8027131 C18.4387408,15.3238513 16.2721599,18.2994945 14.978608,21.6707844 C13.554161,25.3861923 12.0864772,29.0850162 10.6377465,32.7915398" id="Fill-39" fill="#83C8CC" mask="url(#mask-6)"></path>
                </g>
                <path d="M169.814516,505.906714 C164.919275,505.919152 160.024626,505.930998 155.128793,505.942843 C155.106879,505.872361 155.087333,505.802472 155.070157,505.732582 C159.79245,505.714813 164.515336,505.694083 169.237037,505.68816 C169.42953,505.68816 169.622023,505.830309 169.814516,505.906714" id="Fill-42" fill="#83C8CC"></path>
                <path d="M151.005952,302.769496 C151.061034,302.708491 151.116117,302.64867 151.170607,302.587665 C151.186007,302.671769 151.200814,302.756466 151.215621,302.839978 C151.142178,302.825764 151.072288,302.802072 151.005952,302.769496" id="Fill-44" fill="#83C8CC"></path>
                <path d="M198.963144,78.0925081 C200.124023,78.6670251 201.41876,78.3886509 202.639461,78.6919011 C205.786867,79.4731259 208.670705,80.5285789 209.979657,83.8832849 C211.416542,87.5655248 210.983581,94.5438344 207.173407,97.1723981 C205.341468,98.436928 203.242407,98.8189522 201.130909,99.1885385 C198.979135,99.5658244 196.797155,99.745287 194.692172,100.412793 C193.899694,100.66333 193.496939,100.880106 193.416981,101.839609 C193.202573,104.411313 191.673292,106.477206 190.451406,108.640825 C190.085374,109.288786 189.766132,109.923124 189.629906,110.65045 C187.854234,112.398878 186.144305,114.221933 184.289267,115.88211 C179.959066,119.75625 175.155629,122.702871 169.245803,123.578862 C165.839568,124.084081 163.511886,126.300414 163.250096,129.284349 C163.094324,131.055283 163.396982,132.878339 163.594806,134.666449 C163.995191,138.282353 165.960395,140.479733 169.522993,141.467665 C172.524104,142.300419 175.371814,143.621808 178.220708,144.895222 C176.668919,148.599969 175.069156,152.282801 173.044131,155.76248 C167.027101,157.195219 160.928928,157.99895 154.740728,157.917215 C147.980971,157.828372 141.28459,157.00391 134.615453,155.944904 C132.941654,155.67956 131.547414,154.786393 130.146066,153.926394 C127.12304,152.071948 124.482038,149.801717 122.539341,146.791129 C124.990219,145.932907 127.46005,145.125621 129.886645,144.20284 C132.621228,143.163379 135.597463,142.951341 138.256826,141.666673 C141.391201,140.153383 142.970827,137.687698 143.013472,134.204466 C143.035978,132.384965 142.683568,130.619954 142.418817,128.83362 C141.936104,125.573087 140.068035,123.751809 136.89753,123.097333 C131.146436,121.910393 126.350699,118.993978 122.291173,114.827841 C120.590129,113.082968 119.002211,111.226744 117.363357,109.421458 C116.305535,106.370594 115.23409,103.317954 112.912922,100.942889 C111.548296,99.5468713 109.768478,98.9788693 107.876717,98.8758116 C100.233863,98.4588425 96.6037446,93.7258879 98.3077505,86.2062292 C99.4117709,81.3329029 102.739824,78.1481829 108.005836,78.34956 C108.528824,78.3691055 109.358024,78.7860746 109.515572,77.7454287 C109.910626,78.2613095 109.783285,78.8672177 109.786839,79.4405502 C109.799869,81.5153268 109.776178,83.5901035 109.792169,85.6648801 C109.82593,90.097546 112.773735,93.0684508 117.217655,93.0725968 C142.115567,93.0945114 167.012886,93.1028034 191.910206,93.1033957 C196.003492,93.1033957 198.9051,90.1745431 198.935306,86.0723727 C198.954259,83.4124178 198.954259,80.7524629 198.963144,78.0925081" id="Fill-50" fill="#ECBCB2"></path>
                <path d="M164.070944,233.741328 C163.617253,233.43097 163.116772,233.334428 162.577792,233.409648 C161.383152,232.218562 159.650124,231.996454 158.318074,231.025698 C156.909618,229.999859 155.403436,229.139861 154.297046,227.714229 C153.22264,226.330058 152.697283,224.870073 152.969142,223.136453 C153.868824,223.585406 154.749553,224.082334 155.672926,224.476203 C165.587788,228.702162 175.502057,232.929304 185.432911,237.117356 C188.952272,238.601624 192.488218,240.05687 196.07273,241.371744 C197.62748,241.942707 198.64325,241.315477 199.273442,239.879184 C199.901857,238.447037 199.595645,237.337094 198.231612,236.452219 C197.613265,236.05065 196.917922,235.757468 196.233832,235.470802 C182.127957,229.572229 168.01912,223.680172 153.907915,217.795221 C153.431125,217.596806 152.963811,217.256834 152.391663,217.483087 C152.299859,217.291779 152.252476,217.054864 152.109735,216.915677 C149.494202,214.364703 149.618582,211.476126 151.046583,208.425262 C152.783164,204.713408 154.109884,200.842229 155.402251,196.964535 C155.89681,195.480859 157.279205,194.485819 157.445045,192.868287 C157.873859,193.551785 158.618955,193.746647 159.293568,194.026798 C163.860683,195.922704 168.580015,197.382689 173.291055,198.862218 C180.394929,201.092766 187.560993,203.258162 193.75867,207.523804 C198.664572,210.901016 203.56929,214.24743 208.818718,217.069671 C210.101608,218.877327 212.368878,219.602285 213.624523,221.439555 C211.472157,227.262907 209.411596,233.122982 207.131888,238.89599 C205.899934,242.016743 203.963752,244.673737 200.59187,245.897991 C199.705811,246.220194 198.872465,246.21901 197.956199,245.92879 C188.843884,243.041397 180.002244,239.402394 170.988248,236.246104 C168.797976,235.479686 166.726161,234.333614 164.369456,234.071823 C164.368864,234.071823 164.387225,234.058201 164.387225,234.058201 C164.281206,233.952182 164.176371,233.846755 164.070944,233.741328" id="Fill-52" fill="#4E9AAC"></path>
                <path d="M208.818599,217.069671 C203.569764,214.24743 198.664454,210.900424 193.758552,207.523804 C187.560875,203.258162 180.394811,201.092766 173.291529,198.862218 C168.579896,197.382689 163.860564,195.922704 159.29345,194.026798 C158.618836,193.746647 157.873741,193.551193 157.445518,192.868287 C155.858785,185.93203 157.604251,179.53416 160.629646,173.35129 C162.117468,170.309311 163.710716,169.631737 167.595518,170.311088 C168.856494,171.19004 169.952815,172.312421 171.38733,172.934321 C173.282052,173.755822 174.515191,173.347144 175.53333,171.564957 C176.033219,170.687782 176.382668,169.752563 176.66045,168.77233 C177.550063,165.62907 179.214978,164.802239 182.276502,165.919882 C182.82259,166.119483 183.349131,166.374165 183.88515,166.60338 C183.921279,166.724799 183.957409,166.845625 183.993538,166.967043 C183.991761,169.918995 183.989985,172.870947 183.988208,175.823491 C183.609145,179.358844 184.612477,181.443689 187.826219,183.077213 C192.075276,185.236687 196.378824,187.296656 200.714947,189.277259 C202.725164,190.19471 204.565396,191.528537 206.80542,191.92063 C210.247784,194.088396 213.689556,196.257346 217.133105,198.423334 C217.622333,198.730731 218.175528,198.956984 218.471078,199.503663 C216.039746,205.791368 212.58909,211.518178 208.818599,217.069671" id="Fill-54" fill="#F1BDB3"></path>
                <path d="M117.36312,109.421221 C119.002567,111.2271 120.589892,113.082731 122.290937,114.828197 C126.351055,118.994334 131.146199,121.910156 136.897293,123.097689 C140.06839,123.752164 141.935867,125.573443 142.419172,128.833975 C142.683332,130.619717 143.036334,132.384728 143.013827,134.204822 C142.97059,137.687461 141.390964,140.153146 138.256589,141.666436 C135.597226,142.951104 132.621583,143.163734 129.887,144.203196 C127.460406,145.125385 124.990575,145.933262 122.539104,146.791484 C121.350387,146.848936 120.1824,146.676581 119.015597,146.483496 C118.019372,142.527027 117.617803,138.508962 117.364897,134.432259 C116.98228,128.26775 117.302707,122.107387 117.056316,115.954724 C116.968065,113.745498 116.521482,111.568849 117.36312,109.421221" id="Fill-56" fill="#272727"></path>
                <path d="M152.391841,217.482968 C152.963989,217.256715 153.431302,217.596687 153.908092,217.795103 C168.019298,223.680053 182.128135,229.572111 196.233417,235.471276 C196.9181,235.75735 197.613443,236.051124 198.231789,236.452101 C199.595823,237.336976 199.902035,238.446919 199.273027,239.879066 C198.643428,241.315358 197.627658,241.942589 196.072908,241.371626 C192.487803,240.056751 188.95245,238.601506 185.433089,237.117238 C175.502235,232.929186 165.587373,228.702043 155.673104,224.476085 C154.749138,224.082215 153.869002,223.585287 152.96932,223.136335 C151.958288,221.335786 151.994417,219.428034 152.391841,217.482968" id="Fill-58" fill="#F8F5F4"></path>
                <path d="M182.584491,33.5343253 C184.455521,35.7394048 186.805711,37.4718403 188.604482,39.7610244 C190.947564,42.7431826 192.873677,45.9012497 193.572574,49.6906933 C193.40318,51.6067374 194.3153,53.3332501 194.546292,55.1977653 C194.873826,57.8393594 195.039073,60.4614079 194.973922,63.1101094 C193.814819,62.9898754 192.655716,62.7707297 191.496021,62.767176 C182.232673,62.7393386 172.969918,62.7434846 163.70657,62.754738 C159.233037,62.7606609 156.394804,65.5568414 156.374666,69.9877304 C156.350975,75.0985633 156.367559,80.2093962 156.366966,85.3196368 C156.366966,87.9529388 156.365189,87.876534 153.760317,87.9422777 C152.482165,87.9748534 152.305664,87.4980635 152.317509,86.3662056 C152.377922,80.7773982 152.304479,75.1862216 152.367261,69.5974142 C152.390953,67.4557092 151.564714,65.8210008 150.049055,64.3977384 C149.289745,63.6834419 148.301813,63.4044754 147.488012,62.8157434 C151.588998,61.0057185 155.578634,58.958187 160.094812,58.1899925 C161.338612,57.9785465 161.663777,56.2366344 162.243625,55.0858234 C169.492609,50.1165467 175.085562,43.7879745 178.298712,35.5095979 C178.525557,34.9238274 178.845984,34.3581946 178.820515,33.6960193 C180.059577,33.2843807 181.325884,33.4916807 182.584491,33.5343253" id="Fill-60" fill="#ECBCB2"></path>
                <path d="M131.182921,68.153244 C126.499718,68.153244 121.816516,68.1710126 117.132721,68.1419906 C115.798893,68.1336986 115.176994,68.6726786 115.182324,70.0343433 C115.203646,75.196705 115.204831,80.3584745 115.181732,85.5208363 C115.175809,86.973713 115.783494,87.6856403 117.273685,87.6832712 C126.533479,87.6702409 135.793865,87.6690563 145.053659,87.6844558 C146.532596,87.6862326 147.166934,87.0181344 147.159234,85.5445277 C147.131397,80.4354716 147.123105,75.3264156 147.16338,70.2173595 C147.175818,68.7194691 146.579979,68.1188915 145.072612,68.1348832 C140.443307,68.1846352 135.812818,68.153244 131.182921,68.153244 M177.828378,68.182266 C173.196704,68.182266 168.564438,68.1769355 163.932764,68.1852275 C162.086017,68.1881889 161.583759,68.6940008 161.580205,70.5650312 C161.571321,75.5165393 161.568952,80.4680474 161.58139,85.4189631 C161.586128,87.1638367 162.106747,87.6945246 163.878866,87.697486 C173.0895,87.7117009 182.300134,87.7111086 191.510176,87.7004475 C193.091579,87.6986706 193.730063,87.0945392 193.740724,85.4716766 C193.774484,80.4674551 193.774484,75.462049 193.741909,70.4578275 C193.730655,68.7431606 193.111124,68.1881889 191.404157,68.1852275 C186.879095,68.1769355 182.354032,68.182266 177.828378,68.182266 M147.487953,62.8155657 C148.301753,63.4042977 149.289686,63.6838565 150.049588,64.3975607 C151.564655,65.8208231 152.391486,67.4561238 152.367794,69.5972365 C152.30442,75.1866362 152.377863,80.7772205 152.318042,86.3660279 C152.305604,87.4978858 152.482105,87.9746757 153.760258,87.9426923 C156.365722,87.8763563 156.367499,87.9527612 156.367499,85.3194591 C156.367499,80.2092185 156.350915,75.0983856 156.374607,69.988145 C156.394744,65.557256 159.232977,62.7604832 163.706511,62.7551526 C172.969858,62.7433069 182.232614,62.7391609 191.495961,62.7669983 C192.655657,62.7711443 193.81476,62.9896977 194.973863,63.1099317 C195.73495,64.1831533 197.078254,64.5936073 197.780112,65.8237846 C198.486709,67.0616616 198.9481,68.2823623 198.954022,69.6825256 C198.96646,72.4858136 198.96113,75.2891016 198.962907,78.0923896 C198.954615,80.7523445 198.954615,83.4122993 198.935662,86.0722542 C198.905455,90.1744246 196.003255,93.1032772 191.909969,93.1032772 C167.012649,93.1032772 142.11533,93.0943929 117.21801,93.0724783 C112.774091,93.0683323 109.825693,90.0974275 109.792525,85.6647617 C109.775941,83.589985 109.799632,81.5152084 109.786602,79.4404317 C109.783048,78.8670992 109.91039,78.261191 109.515927,77.7453102 C109.872483,74.9432068 109.873076,72.1262962 109.807332,69.3141239 C109.728558,65.9292114 112.85938,62.7510066 116.179141,62.7486375 C126.615806,62.7391609 137.05188,62.7889129 147.487953,62.8155657" id="Fill-62" fill="#7490B0"></path>
                <path d="M116.307489,109.063717 C116.226938,109.013965 116.148757,108.965398 116.071167,108.91683 C116.154679,108.876555 116.240561,108.802519 116.322296,108.805481 C116.403439,108.808442 116.481621,108.890177 116.560987,108.936968 C116.477475,108.978428 116.393963,109.02048 116.307489,109.063717" id="Fill-64" fill="#272727"></path>
                <path d="M178.220471,144.894985 C175.371577,143.621571 172.52446,142.300774 169.522756,141.467428 C165.96075,140.479496 163.994954,138.282116 163.595161,134.666212 C163.397338,132.878102 163.09468,131.055639 163.250451,129.284705 C163.511649,126.300177 165.839924,124.083844 169.246159,123.579217 C175.155393,122.703227 179.959421,119.756013 184.28903,115.882465 C186.144661,114.222288 187.854589,112.399233 189.630262,110.650214 C190.188195,113.494962 190.92026,116.299434 191.381058,119.170243 C192.393274,125.485192 192.058041,131.589881 189.096612,137.398426 C188.673128,138.22881 187.993184,138.988713 188.070773,140.025805 C185.06907,139.384952 182.609307,140.529248 180.434435,142.440554 C179.612934,143.163142 178.95372,144.071116 178.220471,144.894985" id="Fill-66" fill="#272727"></path>
                <path d="M183.993479,166.966866 C183.95735,166.845447 183.92122,166.724621 183.885091,166.603795 C183.890421,165.593948 183.837708,164.579362 183.912928,163.574253 C184.092983,161.17905 185.051894,160.383018 187.426367,160.53109 C188.241352,160.582026 188.992962,160.84737 189.696005,161.208072 C197.258309,165.08932 205.288517,167.865955 213.094842,171.170909 C213.436591,171.315427 213.775971,171.472975 214.09699,171.658953 C215.272677,172.339489 216.43711,173.057931 216.094769,174.710408 C215.716299,176.536425 214.307843,177.742911 212.549347,177.789109 C210.680094,177.837677 209.028209,177.080143 207.424892,176.264566 C201.129488,173.061485 194.728064,170.111903 187.965347,168.01758 C186.658172,167.613049 185.31783,167.314537 183.993479,166.966866" id="Fill-68" fill="#83C8CC"></path>
                <path d="M206.805183,191.920393 C204.565751,191.5283 202.724927,190.195065 200.715302,189.277022 C196.378587,187.296419 192.075631,185.237042 187.825982,183.076976 C184.61224,181.444045 183.6095,179.358607 183.988563,175.823846 C188.302772,176.327289 192.282931,177.912838 196.200309,179.661265 C199.636158,181.195877 203.024032,182.838877 206.437374,184.424426 C207.118502,184.740707 207.730334,185.133984 208.264575,185.67178 C209.760096,187.179147 209.888622,188.664007 208.557757,190.321814 C208.064975,190.93483 207.540802,191.554361 206.805183,191.920393" id="Fill-70" fill="#83C8CC"></path>
                <path d="M17.7379484,133.01717 C15.5068084,132.911744 13.2756683,132.806317 11.0445283,132.701482 C10.3705072,129.869172 9.69648612,127.03627 9.02246505,124.203368 C9.14388361,123.619374 9.449503,123.128961 9.75334554,122.62315 C10.2621189,121.775589 11.0972417,121.069584 11.0155063,119.94128 C11.1002031,119.67949 11.3193488,119.606639 11.5556708,119.559256 C12.2290996,119.598939 12.6442918,119.926473 13.0932443,120.474337 C14.3311214,121.986442 15.7004858,123.388383 17.4814888,124.310571 C21.5972818,126.441615 26.1181982,127.322936 30.517696,128.579174 C31.7188513,131.439322 33.0894003,134.258601 32.6825001,137.508473 C30.5437566,137.006807 28.6336353,135.996367 26.7412827,134.915446 C23.9539864,133.32279 21.0713321,132.069513 17.7379484,133.01717" id="Fill-72" fill="#622C29"></path>
                <path d="M30.5177552,128.579115 C26.1182574,127.322877 21.5967487,126.441556 17.481548,124.310512 C15.6999527,123.388323 14.3311806,121.986976 13.0933036,120.474278 C12.644351,119.926414 12.2291588,119.59888 11.55573,119.559197 C14.6279157,118.763757 17.5058317,117.309103 20.6988437,116.912864 C23.4902859,116.566377 25.75874,117.382547 27.2945367,119.803811 C28.9985425,122.489826 29.899409,125.486199 30.5177552,128.579115" id="Fill-74" fill="#814F4F"></path>
                <path d="M17.7379484,133.01717 C21.0713321,132.069513 23.9539864,133.32279 26.7412827,134.915446 C28.6336353,135.996367 30.5437566,137.006807 32.6825001,137.508473 C34.5641916,139.802395 34.9533232,142.427405 34.4030899,145.2609 C34.1738753,144.718958 33.6787245,144.508104 33.184166,144.323904 C30.4714977,143.313464 27.7694906,142.271042 25.0337231,141.328715 C23.1567699,140.681347 21.4130809,139.619971 19.375026,139.461831 C19.8512237,137.054189 18.5132504,135.106754 17.7379484,133.01717" id="Fill-76" fill="#814F4F"></path>
                <path d="M19.3747891,139.462068 C21.412844,139.620208 23.1571253,140.681584 25.0340785,141.32836 C27.7698459,142.271278 30.4712608,143.313109 33.1839291,144.323548 C33.6784876,144.508341 34.1736384,144.718603 34.4034452,145.261136 C33.5357468,147.843502 31.3448821,148.368859 29.0367449,148.710608 C27.0656183,149.002605 25.0157176,149.065387 23.4722212,150.61066 C21.06458,149.065387 20.3413993,146.631685 19.9878047,144.003122 C19.7840585,142.48924 19.5791276,140.97595 19.3747891,139.462068" id="Fill-78" fill="#622C29"></path>
                <path d="M11.015447,119.941221 C11.0971825,121.069525 10.2620597,121.77553 9.75328631,122.62309 C9.44944377,123.128902 9.14382438,123.619315 9.02240582,124.203308 C8.92882468,123.961656 8.83583584,123.718819 8.74166242,123.476574 C7.60506625,120.562529 7.80052051,120.258686 11.015447,119.941221" id="Fill-80" fill="#814F4F"></path>
                <path d="M164.070944,233.741328 C164.176371,233.846755 164.281206,233.952182 164.387225,234.058201 C164.281206,233.952182 164.176371,233.846755 164.070944,233.741328" id="Fill-82" fill="#83C8CC"></path>
                <path d="M177.828318,68.1824437 C182.353973,68.1824437 186.879036,68.1771132 191.404098,68.1848129 C193.111065,68.1883666 193.731188,68.7433382 193.741849,70.4580052 C193.774425,75.4622267 193.774425,80.4670405 193.740665,85.471262 C193.730004,87.0947169 193.092112,87.6988483 191.510709,87.7006252 C182.300075,87.7112863 173.089441,87.7118786 163.878807,87.6970714 C162.106688,87.6947023 161.586069,87.1640144 161.581331,85.4191408 C161.568893,80.4676328 161.571262,75.516717 161.580146,70.5652089 C161.5837,68.6941785 162.085958,68.1883666 163.932705,68.1848129 C168.564379,68.1771132 173.196645,68.1824437 177.828318,68.1824437" id="Fill-84" fill="#ECBCB2"></path>
                <path d="M131.182921,68.153244 C135.812818,68.153244 140.443307,68.1846352 145.072612,68.1348832 C146.579979,68.1188915 147.175818,68.7194691 147.16338,70.2173595 C147.123105,75.3264156 147.131397,80.4354716 147.159234,85.5445277 C147.166934,87.0181344 146.532596,87.6862326 145.053659,87.6844558 C135.793865,87.6690563 126.533479,87.6702409 117.273685,87.6832712 C115.783494,87.6856403 115.175809,86.973713 115.181732,85.5208363 C115.204831,80.3584745 115.203646,75.196705 115.182324,70.0343433 C115.176994,68.6726786 115.798893,68.1336986 117.132721,68.1419906 C121.816516,68.1710126 126.499718,68.153244 131.182921,68.153244" id="Fill-86" fill="#ECBCB2"></path>
            </g>
        </g>
    </g>
</svg>