<?xml version="1.0" encoding="UTF-8"?>
<svg width="326px" height="480px" viewBox="0 0 326 480" version="1.1" xmlns="http://www.w3.org/2000/svg" xmlns:xlink="http://www.w3.org/1999/xlink">
    <!-- Generator: Sketch 48.2 (47327) - http://www.bohemiancoding.com/sketch -->
    <title>device1</title>
    <desc>Created with Sketch.</desc>
    <defs></defs>
    <g id="device1" stroke="none" stroke-width="1" fill="none" fill-rule="evenodd" transform="translate(-25.000000, -93.000000)">
        <g transform="translate(28.214844, 96.696068)" stroke="#636667">
            <path d="M295.763945,48.3491192 C295.763945,74.8215 234.710206,96.2759741 159.411102,96.2759741 C84.101831,96.2759741 23.0480918,74.8215 23.0480918,48.3491192 C23.0480918,21.8716545 84.101831,0.417180418 159.411102,0.417180418 C234.710206,0.417180418 295.763945,21.8716545 295.763945,48.3491192 Z" id="Stroke-1" stroke-width="7"></path>
            <path d="M314.392224,280.507373 C118.36849,309.847129 5.97144889,280.507373 5.97144889,280.507373 L23.0486002,48.3465772 C23.0486002,74.818958 84.1023394,96.2785161 159.411611,96.2785161 C234.710714,96.2785161 295.764453,74.818958 295.764453,48.3465772 L314.392224,280.507373 Z" id="Stroke-3" stroke-width="7"></path>
            <path d="M285.804392,438.526184 C180.626628,472.228011 36.5003521,441.276628 36.5003521,441.276628 C-18.8643927,397.335628 5.97094049,280.50534 5.97094049,280.50534 C5.97094049,280.50534 118.367982,309.85018 314.391716,280.50534 C332.511087,408.571265 285.804392,438.526184 285.804392,438.526184 Z" id="Stroke-5" stroke-width="7"></path>
            <path d="M285.804392,438.526184 L267.171537,458.933355 C167.042184,489.828814 52.1590678,458.933355 52.1590678,458.933355 L36.5003521,441.276628 C36.5003521,441.276628 180.626628,472.228011 285.804392,438.526184 Z" id="Stroke-7" stroke-width="7"></path>
            <path d="M165.776777,34.3060983 C165.776777,35.8058779 162.56369,37.0209536 158.598171,37.0209536 C154.632652,37.0209536 151.419565,35.8058779 151.419565,34.3060983 C151.419565,32.8063187 154.632652,31.5912431 158.598171,31.5912431 C162.56369,31.5912431 165.776777,32.8063187 165.776777,34.3060983 Z" id="Stroke-9" stroke-width="7" fill="#4A4A4A"></path>
            <path d="M165.776777,59.0183987 C165.776777,60.5181783 162.56369,61.733254 158.598171,61.733254 C154.632652,61.733254 151.419565,60.5181783 151.419565,59.0183987 C151.419565,57.5237031 154.632652,56.3035435 158.598171,56.3035435 C162.56369,56.3035435 165.776777,57.5237031 165.776777,59.0183987 Z" id="Stroke-11" stroke-width="7" fill="#4A4A4A"></path>
            <path d="M129.29502,46.474649 C129.29502,47.9744285 126.081933,49.1895042 122.116414,49.1895042 C118.150895,49.1895042 114.932724,47.9744285 114.932724,46.474649 C114.932724,44.9748694 118.150895,43.7597937 122.116414,43.7597937 C126.081933,43.7597937 129.29502,44.9748694 129.29502,46.474649 Z" id="Stroke-13" stroke-width="7" fill="#4A4A4A"></path>
            <path d="M201.09684,46.474649 C201.09684,47.9744285 197.883753,49.1895042 193.91315,49.1895042 C189.952716,49.1895042 186.734544,47.9744285 186.734544,46.474649 C186.734544,44.9748694 189.952716,43.7597937 193.91315,43.7597937 C197.883753,43.7597937 201.09684,44.9748694 201.09684,46.474649 Z" id="Stroke-15" stroke-width="7" fill="#4A4A4A"></path>
            <path d="M186.73607,156.98451 C186.73607,169.262366 176.42572,179.211752 163.700472,179.211752 C150.980307,179.211752 140.669958,169.262366 140.669958,156.98451 C140.669958,144.711737 150.980307,134.762352 163.700472,134.762352 C176.42572,134.762352 186.73607,144.711737 186.73607,156.98451 Z" id="Stroke-17" stroke-width="7"></path>
            <path d="M186.696414,261.586256 C186.604902,260.843992 186.360871,260.538952 185.537263,260.544036 C179.477136,260.57454 173.41701,260.579624 167.3518,260.544036 C166.457016,260.538952 166.324832,260.905 166.340084,261.632012 C166.375672,263.553763 166.401092,265.470431 166.335,267.387098 C166.299412,268.297134 166.56378,268.592006 167.539908,268.576754 C170.691987,268.515746 173.844066,268.57167 176.996145,268.541166 C177.926517,268.536082 178.221389,268.805534 177.906181,269.705402 C177.560469,270.686613 177.174085,271.637321 176.564005,272.491433 C172.837434,277.687279 164.194637,278.709163 158.607322,274.63688 C156.405951,273.030337 155.038355,270.869637 153.919875,268.510662 C153.823279,268.103942 153.731767,267.692138 153.635172,267.280334 C152.420096,262.114992 154.707895,256.619189 159.293662,253.690806 C163.854009,250.782759 169.410819,250.970867 173.945746,254.265298 C174.58633,254.727942 174.886286,254.600842 175.359098,254.133114 C176.741945,252.75535 178.099373,251.341999 179.588984,250.076083 C180.636288,249.181299 180.519356,248.683067 179.472052,247.879796 C168.449943,239.40477 151.621908,243.705833 146.349802,256.425997 C143.94507,262.231924 143.99591,268.007346 147.051393,273.635333 C147.097149,274.275916 147.508953,274.758896 147.829245,275.27238 C152.511608,282.71027 161.515369,286.548689 170.458123,284.952313 C174.159274,284.291394 177.580805,282.984806 180.300744,280.442807 C185.852471,275.27238 187.565778,268.82587 186.696414,261.586256 Z" id="Stroke-19" stroke-width="5"></path>
        </g>
    </g>
</svg>