<?xml version="1.0" encoding="UTF-8"?>
<svg width="325px" height="637px" viewBox="0 0 325 637" version="1.1" xmlns="http://www.w3.org/2000/svg" xmlns:xlink="http://www.w3.org/1999/xlink">
    <!-- Generator: Sketch 48.2 (47327) - http://www.bohemiancoding.com/sketch -->
    <title>device2</title>
    <desc>Created with Sketch.</desc>
    <defs></defs>
    <g id="device2" stroke="none" stroke-width="1" fill="none" fill-rule="evenodd" transform="translate(-25.000000, -12.000000)">
        <g transform="translate(24.572936, 12.674162)">
            <path d="M324.314585,563.038153 L324.314585,466.519215 C324.314585,460.682176 324.314585,454.939588 324.314585,449.518131 L324.314585,430.986948 C324.201245,430.561921 324.106794,430.127449 324.002899,429.702422 L324.002899,346.944918 C324.106794,346.34988 324.201245,345.745397 324.314585,345.150359 L324.314585,304.054959 C324.314585,216.688272 324.314585,130.03941 324.314585,43.3716567 C324.314585,40.6987083 324.314585,38.0163149 324.106794,35.3528116 C322.926163,18.4839573 311.894348,5.28922642 295.488301,1.61510307 C290.873156,0.677976589 286.171376,0.234711211 281.462406,0.292796463 C243.839635,0.0975988209 206.220012,0 168.603537,0 C128.934339,0 89.2651409,0.0944504718 49.5959428,0.283351415 C23.6692882,0.43447217 8.58554789,15.6882234 8.55721275,41.3976418 C8.55721275,53.05283 8.63277312,64.6985732 8.44387218,76.3443164 C8.44387218,77.7516284 6.93266463,79.1778305 6.09205543,80.5473624 C4.46750732,83.2203107 1.70955354,85.7515834 1.36953184,88.5662074 C0.799619906,94.993844 0.768026408,101.457874 1.27508137,107.890774 C1.40731203,110.195365 2.48404741,113.756148 4.10859552,114.417302 C9.77562383,116.740783 8.58554789,121.179955 8.45331723,125.335776 C8.45331723,126.620303 7.65993327,128.575427 6.67764836,129.019345 C2.23847618,131.05003 1.12396061,134.573032 1.14285071,139.002759 C1.20896604,150.969634 0.963394813,162.936509 1.28452642,174.893939 C1.38842194,178.671958 2.91851958,182.449976 3.90080449,186.662467 C3.23020614,188.428691 1.37897689,191.08275 1.31286156,193.784033 C1.01062005,207.318786 0.944504718,220.862983 1.37897689,234.397736 C1.46398231,237.051794 3.57022784,240.376451 5.77092383,241.953774 C7.97161982,243.531097 8.60443798,244.655057 8.60443798,247.072989 C8.5603611,259.754539 8.5603611,272.448683 8.60443798,285.155419 L8.60443798,419.360095 L8.60443798,469.654971 L8.60443798,489.385675 L8.60443798,534.43855 L8.60443798,601.073358 C9.60561298,603.538515 10.616233,606.003672 11.5324026,608.497165 C11.7874189,609.214988 12.4769073,609.791136 12.7602587,610.499515 C20.9585597,628.794571 36.0517451,635.339989 55.0079548,635.349434 C129.422333,635.387214 203.836712,635.409253 278.25109,635.415549 L278.732787,635.415549 C287.752807,634.962187 299.578007,633.384864 307.190715,628.596225 C312.810518,624.676531 317.438591,619.085063 320.867143,611.444019 C321.188274,610.735641 321.811648,610.159493 322.094999,609.441669 C323.039504,606.948177 323.984008,604.48302 325.022964,602.017862 L325.022964,563.038153 L324.314585,563.038153 Z M8.26441628,113.04777 C3.13575566,109.770338 3.19242595,86.6016376 8.26441628,83.7681235 L8.26441628,113.04777 Z M4.81697406,137.15153 C4.81697406,135.460867 6.16761581,133.789093 6.8854394,132.107875 L8.16052077,132.485677 L8.16052077,182.704993 L7.21601605,183.22447 C6.39429694,181.524362 4.90197949,179.824253 4.87364435,178.105255 C4.65325991,164.46031 4.63436982,150.809068 4.81697406,137.15153 Z M8.29275143,239.15804 L7.07434034,239.677517 C6.3848519,238.16631 5.1853309,236.664547 4.90197949,235.13445 C4.86111431,234.919537 4.83899273,234.701482 4.83586416,234.482741 C4.6910401,224.24431 4.65325991,214.043659 4.72252359,203.880788 C4.72252359,200.546687 4.77919387,197.212585 4.81697406,193.869038 C4.81933238,193.64664 4.8446535,193.425081 4.89253444,193.207885 C5.32265085,191.819931 5.9356694,190.49543 6.71542855,189.2693 C6.82876911,189.052064 6.93266463,188.825383 7.0271151,188.608147 L8.28330638,189.11818 L8.29275143,239.15804 Z M217.717783,19.8345991 C219.370666,20.3918569 220.721308,21.8558392 223.17702,23.6976234 C220.796868,25.1427156 219.011754,26.8806043 218.312821,26.5311375 C216.778979,25.5508243 215.600343,24.1040159 214.950384,22.4036519 C214.761483,21.9691797 217.103855,19.617363 217.717783,19.8345991 Z M136.603717,18.1061554 L196.504207,18.1061554 C199.923314,18.1061554 203.11574,18.8995394 203.11574,23.0553602 C203.11574,27.2111809 199.857198,27.9290045 196.504207,27.9290045 C186.435786,27.9290045 176.376811,27.9290045 166.280056,27.9290045 L136.556492,27.9290045 C133.16572,27.9290045 129.812728,27.2961864 129.699388,23.2064809 C129.576602,18.8900944 132.986264,18.0967104 136.603717,18.0967104 L136.603717,18.1061554 Z M302.392631,583.269444 C302.392631,600.733336 290.529651,612.60576 273.065759,612.615205 C202.083081,612.659282 131.1067,612.659282 60.1366154,612.615205 C42.1910258,612.615205 30.3563816,600.667221 30.3469366,582.646071 C30.3469366,403.700207 30.3469366,224.760639 30.3469366,45.8273689 C30.3469366,38.2713312 32.235946,31.2819963 37.5723977,25.9927698 C40.6798182,22.9231295 44.9395345,19.3151215 48.8592291,19.0789953 C62.9323494,18.2478312 77.0810301,18.7578637 91.3619414,18.7578637 C91.475282,19.8723793 91.6264027,20.9396696 91.692518,22.0069599 C92.476457,33.6621482 99.6169126,40.4720272 111.205986,40.4720272 C147.726835,40.4720272 184.247684,40.4720272 220.768533,40.4720272 C233.387116,40.4720272 239.904198,34.5216475 241.132055,21.9408446 C241.23595,20.8829993 241.462631,19.8345991 241.708202,18.2761663 L275.266455,18.2761663 C292.26754,18.2761663 302.402076,28.3351415 302.411521,45.4873472 C302.417817,224.760639 302.411521,404.021338 302.392631,583.269444 Z" id="Shape" fill="#636667" fill-rule="nonzero"></path>
            <rect id="Rectangle-path" stroke="#636667" stroke-width="4" x="55.7918937" y="109.071405" width="157.052245" height="48.9725696" rx="24.4862848"></rect>
            <rect id="Rectangle-path" stroke="#636667" stroke-width="4" x="119.961544" y="206.26094" width="157.052245" height="48.9725696" rx="24.4862848"></rect>
            <rect id="Rectangle-path" stroke="#636667" stroke-width="4" x="55.7918937" y="303.459921" width="157.052245" height="48.9725696" rx="24.4862848"></rect>
            <rect id="Rectangle-path" stroke="#636667" stroke-width="4" x="119.659303" y="400.658901" width="157.052245" height="48.9725696" rx="24.4862848"></rect>
            <path d="M30.3374916,551.656871 L302.392631,551.656871" id="Shape" stroke="#636667" stroke-width="4"></path>
            <rect id="Rectangle-path" stroke="#636667" stroke-width="4" x="56.443602" y="572.095953" width="181.335461" height="19.8345991" rx="9.91729954"></rect>
            <circle id="Oval" stroke="#636667" stroke-width="4" cx="53.3172913" cy="507.076248" r="5.61035803"></circle>
            <circle id="Oval" stroke="#636667" stroke-width="4" cx="69.5438824" cy="501.46589" r="5.61035803"></circle>
            <circle id="Oval" stroke="#636667" stroke-width="4" cx="85.4021166" cy="507.076248" r="5.61035803"></circle>
            <path d="M263.582932,584.280064 C265.276095,584.274878 266.647386,582.903586 266.652572,581.210423 L266.652572,573.909402 C266.715636,572.773813 266.14565,571.696429 265.171369,571.109643 C264.197088,570.522858 262.97822,570.522858 262.003939,571.109643 C261.029659,571.696429 260.459672,572.773813 260.522736,573.909402 L260.522736,581.210423 C260.522728,582.902057 261.891306,584.274859 263.582932,584.280064 Z M261.391681,573.890512 C261.337945,573.071593 261.744347,572.290808 262.445946,571.865044 C263.147544,571.43928 264.027765,571.43928 264.729363,571.865044 C265.430961,572.290808 265.837363,573.071593 265.783628,573.890512 L265.783628,581.191533 C265.837363,582.010452 265.430961,582.791237 264.729363,583.217001 C264.027765,583.642765 263.147544,583.642765 262.445946,583.217001 C261.744347,582.791237 261.337945,582.010452 261.391681,581.191533 L261.391681,573.890512 Z" id="Shape" stroke="#636667" stroke-width="4"></path>
            <path d="M269.467196,581.012077 C269.492281,580.843334 269.41629,580.675526 269.272921,580.583065 C269.129553,580.490605 268.94534,580.490605 268.801971,580.583065 C268.658603,580.675526 268.582612,580.843334 268.607697,581.012077 C268.607697,583.787179 266.358033,586.036843 263.582932,586.036843 C260.807831,586.036843 258.558167,583.787179 258.558167,581.012077 C258.558167,580.772125 258.363647,580.577605 258.123694,580.577605 C257.883742,580.577605 257.689222,580.772125 257.689222,581.012077 C257.695293,584.095627 260.073635,586.655019 263.14846,586.886897 L263.14846,591.061608 L260.683302,591.061608 C260.44335,591.061608 260.24883,591.256128 260.24883,591.49608 C260.24883,591.736032 260.44335,591.930552 260.683302,591.930552 L266.520341,591.930552 C266.760294,591.930552 266.954814,591.736032 266.954814,591.49608 C266.949805,591.258233 266.758188,591.066617 266.520341,591.061608 L264.036294,591.061608 L264.036294,586.886897 C267.104191,586.649824 269.471403,584.089118 269.467196,581.012077 Z" id="Shape" stroke="#636667" stroke-width="4"></path>
        </g>
    </g>
</svg>