<?xml version="1.0" encoding="UTF-8"?>
<svg width="1440px" height="987px" viewBox="0 0 1440 987" version="1.1" xmlns="http://www.w3.org/2000/svg" xmlns:xlink="http://www.w3.org/1999/xlink">
    <!-- Generator: Sketch 49 (51002) - http://www.bohemiancoding.com/sketch -->
    <title>Desktop HD Copy 2</title>
    <desc>Created with Sketch.</desc>
    <defs></defs>
    <g id="Desktop-HD-Copy-2" stroke="none" stroke-width="1" fill="none" fill-rule="evenodd">
        <path d="M696.368849,182 L675.631151,182 C671.977878,182 669,179.022122 669,175.368849 L669,154.631151 C669,150.977878 671.977878,148 675.631151,148 L696.368849,148 C700.022122,148 703,150.977878 703,154.631151 L703,175.368849 C703,179.022122 700.022122,182 696.368849,182 Z M675.740463,152.857143 C674.707674,152.857143 673.857143,153.707674 673.857143,154.740463 L673.857143,175.259537 C673.857143,176.292326 674.707674,177.142857 675.740463,177.142857 L696.259537,177.142857 C697.292326,177.142857 698.142857,176.292326 698.142857,175.259537 L698.142857,154.740463 C698.142857,153.707674 697.292326,152.857143 696.259537,152.857143 L675.740463,152.857143 Z" id="Shape" fill="#6FB63C" fill-rule="nonzero" transform="translate(686.000000, 165.000000) rotate(49.000000) translate(-686.000000, -165.000000) "></path>
        <g id="kreis" transform="translate(1213.000000, 251.000000)" fill="#FF595D" fill-rule="nonzero">
            <path d="M23.5,47 C10.5310374,47 0,36.4489796 0,23.5 C-1.15365012e-15,10.5310374 10.5310374,0 23.5,0 C36.4689626,0 47,10.5510204 47,23.5 C47,36.4489796 36.4489796,47 23.5,47 Z M23.5,6.09481293 C13.9081633,6.09481293 6.11479592,13.8881803 6.11479592,23.480017 C6.11479592,33.0718537 13.9081633,40.8652211 23.5,40.8652211 C33.0918367,40.8652211 40.8852041,33.0718537 40.8852041,23.480017 C40.8852041,13.9081633 33.0918367,6.09481293 23.5,6.09481293 Z" id="Shape"></path>
        </g>
        <g id="kreis-copy-2" transform="translate(820.000000, 45.000000)" fill="#FFD103" fill-rule="nonzero">
            <path d="M23.5,47 C10.5310374,47 0,36.4489796 0,23.5 C-1.15365012e-15,10.5310374 10.5310374,0 23.5,0 C36.4689626,0 47,10.5510204 47,23.5 C47,36.4489796 36.4489796,47 23.5,47 Z M23.5,6.09481293 C13.9081633,6.09481293 6.11479592,13.8881803 6.11479592,23.480017 C6.11479592,33.0718537 13.9081633,40.8652211 23.5,40.8652211 C33.0918367,40.8652211 40.8852041,33.0718537 40.8852041,23.480017 C40.8852041,13.9081633 33.0918367,6.09481293 23.5,6.09481293 Z" id="Shape"></path>
        </g>
        <g id="kreis-copy-4" opacity="0.192085598" transform="translate(783.000000, 693.000000)" fill="#FFD103" fill-rule="nonzero">
            <path d="M23.5,47 C10.5310374,47 0,36.4489796 0,23.5 C-1.15365012e-15,10.5310374 10.5310374,0 23.5,0 C36.4689626,0 47,10.5510204 47,23.5 C47,36.4489796 36.4489796,47 23.5,47 Z M23.5,6.09481293 C13.9081633,6.09481293 6.11479592,13.8881803 6.11479592,23.480017 C6.11479592,33.0718537 13.9081633,40.8652211 23.5,40.8652211 C33.0918367,40.8652211 40.8852041,33.0718537 40.8852041,23.480017 C40.8852041,13.9081633 33.0918367,6.09481293 23.5,6.09481293 Z" id="Shape"></path>
        </g>
        <g id="kreis-copy-3" transform="translate(52.000000, 285.000000)" fill="#B18AE0" fill-rule="nonzero">
            <path d="M18.5,37 C8.29039116,37 0,28.6938776 0,18.5 C-9.08192644e-16,8.29039116 8.29039116,0 18.5,0 C28.7096088,0 37,8.30612245 37,18.5 C37,28.6938776 28.6938776,37 18.5,37 Z M18.5,4.79804422 C10.9489796,4.79804422 4.81377551,10.9332483 4.81377551,18.4842687 C4.81377551,26.0352891 10.9489796,32.1704932 18.5,32.1704932 C26.0510204,32.1704932 32.1862245,26.0352891 32.1862245,18.4842687 C32.1862245,10.9489796 26.0510204,4.79804422 18.5,4.79804422 Z" id="Shape"></path>
        </g>
        <g id="kreis-copy" transform="translate(338.000000, 306.000000)" fill="#A9DC94" fill-rule="nonzero">
            <path d="M9,18 C4.03316327,18 0,13.9591837 0,9 C-4.41823449e-16,4.03316327 4.03316327,0 9,0 C13.9668367,0 18,4.04081633 18,9 C18,13.9591837 13.9591837,18 9,18 Z M9,2.33418367 C5.32653061,2.33418367 2.34183673,5.31887755 2.34183673,8.99234694 C2.34183673,12.6658163 5.32653061,15.6505102 9,15.6505102 C12.6734694,15.6505102 15.6581633,12.6658163 15.6581633,8.99234694 C15.6581633,5.32653061 12.6734694,2.33418367 9,2.33418367 Z" id="Shape"></path>
        </g>
        <g id="dreieck" transform="translate(1358.000000, 164.500000) rotate(66.000000) translate(-1358.000000, -164.500000) translate(1332.000000, 142.000000)" fill="#1BB8D3" fill-rule="nonzero">
            <path d="M44.8410978,44.2247847 L6.60546358,44.2247847 C4.20084296,44.2247847 2.05618132,42.9844377 0.864702636,40.9100644 C-0.326776051,38.835691 -0.283449553,36.3763824 0.97301888,34.3447796 L20.0800044,3.14363798 C21.2931463,1.17619108 23.3944814,0 25.7124491,0 C28.0304167,0 30.1534151,1.17619108 31.3448938,3.14363798 L50.4735425,34.3447796 C51.7300109,36.3763824 51.7516742,38.835691 50.5818587,40.9100644 C49.4120433,42.9844377 47.2673817,44.2247847 44.8410978,44.2247847 Z M25.7341123,6.24450538 C25.5824696,6.24450538 25.5391431,6.33004655 25.4958166,6.37281713 L6.36716784,37.5739587 C6.34550459,37.6167293 6.28051485,37.7022705 6.36716784,37.8519675 C6.45382084,37.9802793 6.54047383,37.9802793 6.60546358,37.9802793 L44.8410978,37.9802793 C44.9060875,37.9802793 44.9927405,37.9802793 45.0793935,37.8519675 C45.1660465,37.7236558 45.1010568,37.6381146 45.0793935,37.5739587 L25.9507448,6.37281713 C25.9290816,6.33004655 25.8857551,6.24450538 25.7341123,6.24450538 Z" id="Shape"></path>
        </g>
        <g id="dreieck-copy-4" opacity="0.192085598" transform="translate(107.129926, 682.903756) rotate(66.000000) translate(-107.129926, -682.903756) translate(81.129926, 660.403756)" fill="#1BB8D3" fill-rule="nonzero">
            <path d="M44.8410978,44.2247847 L6.60546358,44.2247847 C4.20084296,44.2247847 2.05618132,42.9844377 0.864702636,40.9100644 C-0.326776051,38.835691 -0.283449553,36.3763824 0.97301888,34.3447796 L20.0800044,3.14363798 C21.2931463,1.17619108 23.3944814,0 25.7124491,0 C28.0304167,0 30.1534151,1.17619108 31.3448938,3.14363798 L50.4735425,34.3447796 C51.7300109,36.3763824 51.7516742,38.835691 50.5818587,40.9100644 C49.4120433,42.9844377 47.2673817,44.2247847 44.8410978,44.2247847 Z M25.7341123,6.24450538 C25.5824696,6.24450538 25.5391431,6.33004655 25.4958166,6.37281713 L6.36716784,37.5739587 C6.34550459,37.6167293 6.28051485,37.7022705 6.36716784,37.8519675 C6.45382084,37.9802793 6.54047383,37.9802793 6.60546358,37.9802793 L44.8410978,37.9802793 C44.9060875,37.9802793 44.9927405,37.9802793 45.0793935,37.8519675 C45.1660465,37.7236558 45.1010568,37.6381146 45.0793935,37.5739587 L25.9507448,6.37281713 C25.9290816,6.33004655 25.8857551,6.24450538 25.7341123,6.24450538 Z" id="Shape"></path>
        </g>
        <g id="dreieck-copy-3" transform="translate(1071.500000, 149.000000) rotate(-9.000000) translate(-1071.500000, -149.000000) translate(1055.000000, 135.000000)" fill="#B18AE0" fill-rule="nonzero">
            <path d="M28.2518746,27.9344675 L4.16173417,27.9344675 C2.64671684,27.9344675 1.29548516,27.1510056 0.5448009,25.8407332 C-0.205883363,24.5304608 -0.178585753,22.977045 0.613044924,21.6937886 L12.6512907,1.98567056 C13.4156238,0.742937965 14.7395579,0 16.19998,0 C17.6604021,0 18.997985,0.742937965 19.7486692,1.98567056 L31.8005639,21.6937886 C32.5921945,22.977045 32.6058433,24.5304608 31.8688079,25.8407332 C31.1317724,27.1510056 29.7805407,27.9344675 28.2518746,27.9344675 Z M16.2136288,3.94432519 C16.1180872,3.94432519 16.0907895,3.99835705 16.0634919,4.02537297 L4.01159731,23.733491 C3.99794851,23.7605069 3.9570021,23.8145388 4.01159731,23.9090945 C4.06619253,23.9901423 4.12078775,23.9901423 4.16173417,23.9901423 L28.2518746,23.9901423 C28.292821,23.9901423 28.3474162,23.9901423 28.4020115,23.9090945 C28.4566067,23.8280467 28.4156603,23.7740149 28.4020115,23.733491 L16.3501168,4.02537297 C16.336468,3.99835705 16.3091704,3.94432519 16.2136288,3.94432519 Z" id="Shape"></path>
        </g>
        <g id="dreieck-copy-5" opacity="0.192085598" transform="translate(1355.000000, 412.500000) rotate(-9.000000) translate(-1355.000000, -412.500000) translate(1330.000000, 391.000000)" fill="#B18AE0" fill-rule="nonzero">
            <path d="M43.2631031,42.6801295 L6.37301194,42.6801295 C4.05301188,42.6801295 1.98382263,41.4831046 0.834273047,39.4811836 C-0.315276536,37.4792626 -0.273474733,35.1058512 0.938777554,33.1452069 L19.3733727,3.03383899 C20.5438232,1.13510983 22.5712106,0 24.8076071,0 C27.0440035,0 29.0922919,1.13510983 30.2418414,3.03383899 L48.6973375,33.1452069 C49.9095898,35.1058512 49.9304907,37.4792626 48.801842,39.4811836 C47.6731933,41.4831046 45.604004,42.6801295 43.2631031,42.6801295 Z M24.828508,6.02640126 C24.6822017,6.02640126 24.6403998,6.1089547 24.598598,6.15023142 L6.14310203,36.2615994 C6.12220112,36.3028761 6.05949842,36.3854295 6.14310203,36.529898 C6.22670563,36.6537282 6.31030924,36.6537282 6.37301194,36.6537282 L43.2631031,36.6537282 C43.3258058,36.6537282 43.4094094,36.6537282 43.493013,36.529898 C43.5766166,36.4060679 43.5139139,36.3235144 43.493013,36.2615994 L25.037517,6.15023142 C25.0166161,6.1089547 24.9748143,6.02640126 24.828508,6.02640126 Z" id="Shape"></path>
        </g>
        <g id="dreieck-copy-2" transform="translate(807.000000, 311.000000) rotate(66.000000) translate(-807.000000, -311.000000) translate(796.000000, 302.000000)" fill="#A1D4FF" fill-rule="nonzero">
            <path d="M18.5434087,17.4039972 L2.73159706,17.4039972 C1.73719984,17.4039972 0.850305021,16.9158774 0.357585678,16.099539 C-0.135133664,15.2832006 -0.117216597,14.3153768 0.402378346,13.5158702 L8.3038049,1.23713133 C8.80548277,0.462872266 9.67446052,0 10.6330236,0 C11.5915867,0 12.469523,0.462872266 12.9622423,1.23713133 L20.8726274,13.5158702 C21.3922223,14.3153768 21.4011809,15.2832006 20.9174201,16.099539 C20.4336593,16.9158774 19.5467644,17.4039972 18.5434087,17.4039972 Z M10.6419821,2.45743094 C10.5792724,2.45743094 10.5613553,2.49109438 10.5434383,2.5079261 L2.63305319,14.7866649 C2.62409465,14.8034967 2.59721905,14.8371601 2.63305319,14.8960711 C2.66888732,14.9465663 2.70472146,14.9465663 2.73159706,14.9465663 L18.5434087,14.9465663 C18.5702843,14.9465663 18.6061184,14.9465663 18.6419526,14.8960711 C18.6777867,14.845576 18.6509111,14.8119125 18.6419526,14.7866649 L10.7315675,2.5079261 C10.7226089,2.49109438 10.7046919,2.45743094 10.6419821,2.45743094 Z" id="Shape"></path>
        </g>
        <g id="dreieck-copy" transform="translate(403.000000, 176.500000) rotate(-41.000000) translate(-403.000000, -176.500000) translate(386.000000, 162.000000)" fill="#B18AE0" fill-rule="nonzero">
            <path d="M29.2871099,28.9477176 L4.31423286,28.9477176 C2.74370065,28.9477176 1.34295571,28.1358377 0.564764075,26.7780385 C-0.21342756,25.4202394 -0.185129683,23.8104776 0.635508769,22.4806743 L13.1148728,2.05769559 C13.9072134,0.769886106 15.2796604,0 16.7935969,0 C18.3075334,0 19.6941294,0.769886106 20.472321,2.05769559 L32.965834,22.4806743 C33.7864724,23.8104776 33.8006214,25.4202394 33.0365787,26.7780385 C32.272536,28.1358377 30.871791,28.9477176 29.2871099,28.9477176 Z M16.8077458,4.08739532 C16.7087033,4.08739532 16.6804054,4.14338704 16.6521075,4.1713829 L4.15859453,24.5943616 C4.1444456,24.6223574 4.10199878,24.6783492 4.15859453,24.7763347 C4.21519029,24.8603222 4.27178604,24.8603222 4.31423286,24.8603222 L29.2871099,24.8603222 C29.3295567,24.8603222 29.3861524,24.8603222 29.4427482,24.7763347 C29.499344,24.6923471 29.4568971,24.6363554 29.4427482,24.5943616 L16.9492352,4.1713829 C16.9350863,4.14338704 16.9067884,4.08739532 16.8077458,4.08739532 Z" id="Shape"></path>
        </g>
        <g id="quadrat" transform="translate(1026.000000, 298.000000)" fill="#FFD101" fill-rule="nonzero">
            <path d="M17.582769,20.8333333 L7.417231,20.8333333 C5.62641084,20.8333333 4.16666667,19.3735892 4.16666667,17.582769 L4.16666667,7.417231 C4.16666667,5.62641084 5.62641084,4.16666667 7.417231,4.16666667 L17.582769,4.16666667 C19.3735892,4.16666667 20.8333333,5.62641084 20.8333333,7.417231 L20.8333333,17.582769 C20.8333333,19.3735892 19.3735892,20.8333333 17.582769,20.8333333 Z M7.47081509,6.54761905 C6.96454629,6.54761905 6.54761905,6.96454629 6.54761905,7.47081509 L6.54761905,17.5291849 C6.54761905,18.0354537 6.96454629,18.452381 7.47081509,18.452381 L17.5291849,18.452381 C18.0354537,18.452381 18.452381,18.0354537 18.452381,17.5291849 L18.452381,7.47081509 C18.452381,6.96454629 18.0354537,6.54761905 17.5291849,6.54761905 L7.47081509,6.54761905 Z" id="Shape" transform="translate(12.500000, 12.500000) rotate(49.000000) translate(-12.500000, -12.500000) "></path>
        </g>
        <g id="quadrat-copy" transform="translate(89.000000, 69.000000)" fill="#FF595D" fill-rule="nonzero">
            <path d="M44.2355305,52.7 L17.7644695,52.7 C13.1011738,52.7 9.3,48.8988262 9.3,44.2355305 L9.3,17.7644695 C9.3,13.1011738 13.1011738,9.3 17.7644695,9.3 L44.2355305,9.3 C48.8988262,9.3 52.7,13.1011738 52.7,17.7644695 L52.7,44.2355305 C52.7,48.8988262 48.8988262,52.7 44.2355305,52.7 Z M17.9040025,15.5 C16.5856785,15.5 15.5,16.5856785 15.5,17.9040025 L15.5,44.0959975 C15.5,45.4143215 16.5856785,46.5 17.9040025,46.5 L44.0959975,46.5 C45.4143215,46.5 46.5,45.4143215 46.5,44.0959975 L46.5,17.9040025 C46.5,16.5856785 45.4143215,15.5 44.0959975,15.5 L17.9040025,15.5 Z" id="Shape" transform="translate(31.000000, 31.000000) rotate(49.000000) translate(-31.000000, -31.000000) "></path>
        </g>
        <g id="quadrat-copy-3" opacity="0.192085598" transform="translate(1290.000000, 651.000000)" fill="#FF595D" fill-rule="nonzero">
            <path d="M44.2355305,52.7 L17.7644695,52.7 C13.1011738,52.7 9.3,48.8988262 9.3,44.2355305 L9.3,17.7644695 C9.3,13.1011738 13.1011738,9.3 17.7644695,9.3 L44.2355305,9.3 C48.8988262,9.3 52.7,13.1011738 52.7,17.7644695 L52.7,44.2355305 C52.7,48.8988262 48.8988262,52.7 44.2355305,52.7 Z M17.9040025,15.5 C16.5856785,15.5 15.5,16.5856785 15.5,17.9040025 L15.5,44.0959975 C15.5,45.4143215 16.5856785,46.5 17.9040025,46.5 L44.0959975,46.5 C45.4143215,46.5 46.5,45.4143215 46.5,44.0959975 L46.5,17.9040025 C46.5,16.5856785 45.4143215,15.5 44.0959975,15.5 L17.9040025,15.5 Z" id="Shape" transform="translate(31.000000, 31.000000) rotate(49.000000) translate(-31.000000, -31.000000) "></path>
        </g>
        <g id="quadrat-copy-2" opacity="0.19" transform="translate(235.000000, 808.000000)" fill="#6FB63C" fill-rule="nonzero">
            <path d="M34.0509597,40.6240157 L13.4949441,40.6240157 C9.87367711,40.6240157 6.92188805,37.6722267 6.92188805,34.0509597 L6.92188805,13.4949441 C6.92188805,9.87367711 9.87367711,6.92188805 13.4949441,6.92188805 L34.0509597,6.92188805 C37.6722267,6.92188805 40.6240157,9.87367711 40.6240157,13.4949441 L40.6240157,34.0509597 C40.6240157,37.6722267 37.6722267,40.6240157 34.0509597,40.6240157 Z M13.603298,11.7364777 C12.5795578,11.7364777 11.7364777,12.5795578 11.7364777,13.603298 L11.7364777,33.9426058 C11.7364777,34.9663459 12.5795578,35.809426 13.603298,35.809426 L33.9426058,35.809426 C34.9663459,35.809426 35.809426,34.9663459 35.809426,33.9426058 L35.809426,13.603298 C35.809426,12.5795578 34.9663459,11.7364777 33.9426058,11.7364777 L13.603298,11.7364777 Z" id="Shape" transform="translate(23.772952, 23.772952) rotate(49.000000) translate(-23.772952, -23.772952) "></path>
        </g>
        <g id="kreuz" transform="translate(575.000000, 290.500000) rotate(-33.000000) translate(-575.000000, -290.500000) translate(563.000000, 279.000000)" fill="#FFD101" fill-rule="nonzero">
            <path d="M14.7155679,8.27905584 C13.838034,7.46822048 13.838034,6.13460968 14.7155679,5.31310543 L19.8075736,0.608126525 C20.6851075,-0.202708842 22.1284197,-0.202708842 23.0175001,0.608126525 C23.895034,1.41896189 23.895034,2.75257269 23.0175001,3.57407694 L17.9254944,8.27905584 C17.036414,9.1005601 15.5931018,9.1005601 14.7155679,8.27905584 Z" id="Shape"></path>
            <path d="M14.7236279,14.6927154 C15.6003724,13.88115 17.0423864,13.88115 17.9306669,14.6927154 L23.0180921,19.4019305 C23.8948366,20.2134959 23.8948366,21.5483075 23.0180921,22.3705514 C22.1413477,23.1821168 20.6993337,23.1821168 19.8110531,22.3705514 L14.7236279,17.6613363 C13.8353473,16.8497709 13.8353473,15.5149593 14.7236279,14.6927154 Z" id="Shape"></path>
            <path d="M8.96008262,14.6927154 C9.83761649,15.5042809 9.83761649,16.8390924 8.96008262,17.6613363 L3.8680769,22.3705514 C2.99054304,23.1821168 1.54723076,23.1821168 0.658150399,22.3705514 C-0.219383466,21.558986 -0.219383466,20.2241744 0.658150399,19.4019305 L5.75015611,14.6927154 C6.63923648,13.88115 8.08254876,13.88115 8.96008262,14.6927154 Z" id="Shape"></path>
            <path d="M8.96008262,8.2872398 C8.08254876,9.09783211 6.63923648,9.09783211 5.75015611,8.2872398 L0.658150399,3.57300558 C-0.219383466,2.76241327 -0.219383466,1.42920223 0.658150399,0.607944233 C1.53568426,-0.202648078 2.97899654,-0.202648078 3.8680769,0.607944233 L8.96008262,5.31151277 C9.83761649,6.13277077 9.83761649,7.4659818 8.96008262,8.2872398 Z" id="Shape"></path>
        </g>
        <g id="kreuz-copy-2" transform="translate(290.000000, 78.500000) rotate(52.000000) translate(-290.000000, -78.500000) translate(278.000000, 67.000000)" fill="#A1D4FF" fill-rule="nonzero">
            <path d="M14.7155679,8.27905584 C13.838034,7.46822048 13.838034,6.13460968 14.7155679,5.31310543 L19.8075736,0.608126525 C20.6851075,-0.202708842 22.1284197,-0.202708842 23.0175001,0.608126525 C23.895034,1.41896189 23.895034,2.75257269 23.0175001,3.57407694 L17.9254944,8.27905584 C17.036414,9.1005601 15.5931018,9.1005601 14.7155679,8.27905584 Z" id="Shape"></path>
            <path d="M14.7236279,14.6927154 C15.6003724,13.88115 17.0423864,13.88115 17.9306669,14.6927154 L23.0180921,19.4019305 C23.8948366,20.2134959 23.8948366,21.5483075 23.0180921,22.3705514 C22.1413477,23.1821168 20.6993337,23.1821168 19.8110531,22.3705514 L14.7236279,17.6613363 C13.8353473,16.8497709 13.8353473,15.5149593 14.7236279,14.6927154 Z" id="Shape"></path>
            <path d="M8.96008262,14.6927154 C9.83761649,15.5042809 9.83761649,16.8390924 8.96008262,17.6613363 L3.8680769,22.3705514 C2.99054304,23.1821168 1.54723076,23.1821168 0.658150399,22.3705514 C-0.219383466,21.558986 -0.219383466,20.2241744 0.658150399,19.4019305 L5.75015611,14.6927154 C6.63923648,13.88115 8.08254876,13.88115 8.96008262,14.6927154 Z" id="Shape"></path>
            <path d="M8.96008262,8.2872398 C8.08254876,9.09783211 6.63923648,9.09783211 5.75015611,8.2872398 L0.658150399,3.57300558 C-0.219383466,2.76241327 -0.219383466,1.42920223 0.658150399,0.607944233 C1.53568426,-0.202648078 2.97899654,-0.202648078 3.8680769,0.607944233 L8.96008262,5.31151277 C9.83761649,6.13277077 9.83761649,7.4659818 8.96008262,8.2872398 Z" id="Shape"></path>
        </g>
        <g id="kreuz-copy-9" opacity="0.192085598" transform="translate(1212.000000, 421.500000) rotate(52.000000) translate(-1212.000000, -421.500000) translate(1200.000000, 410.000000)" fill="#A1D4FF" fill-rule="nonzero">
            <path d="M14.7155679,8.27905584 C13.838034,7.46822048 13.838034,6.13460968 14.7155679,5.31310543 L19.8075736,0.608126525 C20.6851075,-0.202708842 22.1284197,-0.202708842 23.0175001,0.608126525 C23.895034,1.41896189 23.895034,2.75257269 23.0175001,3.57407694 L17.9254944,8.27905584 C17.036414,9.1005601 15.5931018,9.1005601 14.7155679,8.27905584 Z" id="Shape"></path>
            <path d="M14.7236279,14.6927154 C15.6003724,13.88115 17.0423864,13.88115 17.9306669,14.6927154 L23.0180921,19.4019305 C23.8948366,20.2134959 23.8948366,21.5483075 23.0180921,22.3705514 C22.1413477,23.1821168 20.6993337,23.1821168 19.8110531,22.3705514 L14.7236279,17.6613363 C13.8353473,16.8497709 13.8353473,15.5149593 14.7236279,14.6927154 Z" id="Shape"></path>
            <path d="M8.96008262,14.6927154 C9.83761649,15.5042809 9.83761649,16.8390924 8.96008262,17.6613363 L3.8680769,22.3705514 C2.99054304,23.1821168 1.54723076,23.1821168 0.658150399,22.3705514 C-0.219383466,21.558986 -0.219383466,20.2241744 0.658150399,19.4019305 L5.75015611,14.6927154 C6.63923648,13.88115 8.08254876,13.88115 8.96008262,14.6927154 Z" id="Shape"></path>
            <path d="M8.96008262,8.2872398 C8.08254876,9.09783211 6.63923648,9.09783211 5.75015611,8.2872398 L0.658150399,3.57300558 C-0.219383466,2.76241327 -0.219383466,1.42920223 0.658150399,0.607944233 C1.53568426,-0.202648078 2.97899654,-0.202648078 3.8680769,0.607944233 L8.96008262,5.31151277 C9.83761649,6.13277077 9.83761649,7.4659818 8.96008262,8.2872398 Z" id="Shape"></path>
        </g>
        <g id="kreuz-copy-3" transform="translate(577.000000, 92.500000) rotate(11.000000) translate(-577.000000, -92.500000) translate(565.000000, 81.000000)" fill="#EC6567" fill-rule="nonzero">
            <path d="M14.7155679,8.27905584 C13.838034,7.46822048 13.838034,6.13460968 14.7155679,5.31310543 L19.8075736,0.608126525 C20.6851075,-0.202708842 22.1284197,-0.202708842 23.0175001,0.608126525 C23.895034,1.41896189 23.895034,2.75257269 23.0175001,3.57407694 L17.9254944,8.27905584 C17.036414,9.1005601 15.5931018,9.1005601 14.7155679,8.27905584 Z" id="Shape"></path>
            <path d="M14.7236279,14.6927154 C15.6003724,13.88115 17.0423864,13.88115 17.9306669,14.6927154 L23.0180921,19.4019305 C23.8948366,20.2134959 23.8948366,21.5483075 23.0180921,22.3705514 C22.1413477,23.1821168 20.6993337,23.1821168 19.8110531,22.3705514 L14.7236279,17.6613363 C13.8353473,16.8497709 13.8353473,15.5149593 14.7236279,14.6927154 Z" id="Shape"></path>
            <path d="M8.96008262,14.6927154 C9.83761649,15.5042809 9.83761649,16.8390924 8.96008262,17.6613363 L3.8680769,22.3705514 C2.99054304,23.1821168 1.54723076,23.1821168 0.658150399,22.3705514 C-0.219383466,21.558986 -0.219383466,20.2241744 0.658150399,19.4019305 L5.75015611,14.6927154 C6.63923648,13.88115 8.08254876,13.88115 8.96008262,14.6927154 Z" id="Shape"></path>
            <path d="M8.96008262,8.2872398 C8.08254876,9.09783211 6.63923648,9.09783211 5.75015611,8.2872398 L0.658150399,3.57300558 C-0.219383466,2.76241327 -0.219383466,1.42920223 0.658150399,0.607944233 C1.53568426,-0.202648078 2.97899654,-0.202648078 3.8680769,0.607944233 L8.96008262,5.31151277 C9.83761649,6.13277077 9.83761649,7.4659818 8.96008262,8.2872398 Z" id="Shape"></path>
        </g>
        <g id="kreuz-copy-7" opacity="0.192085598" transform="translate(462.973830, 715.578421) rotate(11.000000) translate(-462.973830, -715.578421) translate(450.973830, 704.078421)" fill="#EC6567" fill-rule="nonzero">
            <path d="M14.7155679,8.27905584 C13.838034,7.46822048 13.838034,6.13460968 14.7155679,5.31310543 L19.8075736,0.608126525 C20.6851075,-0.202708842 22.1284197,-0.202708842 23.0175001,0.608126525 C23.895034,1.41896189 23.895034,2.75257269 23.0175001,3.57407694 L17.9254944,8.27905584 C17.036414,9.1005601 15.5931018,9.1005601 14.7155679,8.27905584 Z" id="Shape"></path>
            <path d="M14.7236279,14.6927154 C15.6003724,13.88115 17.0423864,13.88115 17.9306669,14.6927154 L23.0180921,19.4019305 C23.8948366,20.2134959 23.8948366,21.5483075 23.0180921,22.3705514 C22.1413477,23.1821168 20.6993337,23.1821168 19.8110531,22.3705514 L14.7236279,17.6613363 C13.8353473,16.8497709 13.8353473,15.5149593 14.7236279,14.6927154 Z" id="Shape"></path>
            <path d="M8.96008262,14.6927154 C9.83761649,15.5042809 9.83761649,16.8390924 8.96008262,17.6613363 L3.8680769,22.3705514 C2.99054304,23.1821168 1.54723076,23.1821168 0.658150399,22.3705514 C-0.219383466,21.558986 -0.219383466,20.2241744 0.658150399,19.4019305 L5.75015611,14.6927154 C6.63923648,13.88115 8.08254876,13.88115 8.96008262,14.6927154 Z" id="Shape"></path>
            <path d="M8.96008262,8.2872398 C8.08254876,9.09783211 6.63923648,9.09783211 5.75015611,8.2872398 L0.658150399,3.57300558 C-0.219383466,2.76241327 -0.219383466,1.42920223 0.658150399,0.607944233 C1.53568426,-0.202648078 2.97899654,-0.202648078 3.8680769,0.607944233 L8.96008262,5.31151277 C9.83761649,6.13277077 9.83761649,7.4659818 8.96008262,8.2872398 Z" id="Shape"></path>
        </g>
        <g id="kreuz-copy-4" transform="translate(898.000000, 211.500000) rotate(278.000000) translate(-898.000000, -211.500000) translate(886.000000, 200.000000)" fill="#EC6567" fill-rule="nonzero">
            <path d="M14.7155679,8.27905584 C13.838034,7.46822048 13.838034,6.13460968 14.7155679,5.31310543 L19.8075736,0.608126525 C20.6851075,-0.202708842 22.1284197,-0.202708842 23.0175001,0.608126525 C23.895034,1.41896189 23.895034,2.75257269 23.0175001,3.57407694 L17.9254944,8.27905584 C17.036414,9.1005601 15.5931018,9.1005601 14.7155679,8.27905584 Z" id="Shape"></path>
            <path d="M14.7236279,14.6927154 C15.6003724,13.88115 17.0423864,13.88115 17.9306669,14.6927154 L23.0180921,19.4019305 C23.8948366,20.2134959 23.8948366,21.5483075 23.0180921,22.3705514 C22.1413477,23.1821168 20.6993337,23.1821168 19.8110531,22.3705514 L14.7236279,17.6613363 C13.8353473,16.8497709 13.8353473,15.5149593 14.7236279,14.6927154 Z" id="Shape"></path>
            <path d="M8.96008262,14.6927154 C9.83761649,15.5042809 9.83761649,16.8390924 8.96008262,17.6613363 L3.8680769,22.3705514 C2.99054304,23.1821168 1.54723076,23.1821168 0.658150399,22.3705514 C-0.219383466,21.558986 -0.219383466,20.2241744 0.658150399,19.4019305 L5.75015611,14.6927154 C6.63923648,13.88115 8.08254876,13.88115 8.96008262,14.6927154 Z" id="Shape"></path>
            <path d="M8.96008262,8.2872398 C8.08254876,9.09783211 6.63923648,9.09783211 5.75015611,8.2872398 L0.658150399,3.57300558 C-0.219383466,2.76241327 -0.219383466,1.42920223 0.658150399,0.607944233 C1.53568426,-0.202648078 2.97899654,-0.202648078 3.8680769,0.607944233 L8.96008262,5.31151277 C9.83761649,6.13277077 9.83761649,7.4659818 8.96008262,8.2872398 Z" id="Shape"></path>
        </g>
        <g id="kreuz-copy-5" transform="translate(1228.000000, 67.500000) rotate(-67.000000) translate(-1228.000000, -67.500000) translate(1216.000000, 56.000000)" fill="#6FB63C" fill-rule="nonzero">
            <path d="M14.7155679,8.27905584 C13.838034,7.46822048 13.838034,6.13460968 14.7155679,5.31310543 L19.8075736,0.608126525 C20.6851075,-0.202708842 22.1284197,-0.202708842 23.0175001,0.608126525 C23.895034,1.41896189 23.895034,2.75257269 23.0175001,3.57407694 L17.9254944,8.27905584 C17.036414,9.1005601 15.5931018,9.1005601 14.7155679,8.27905584 Z" id="Shape"></path>
            <path d="M14.7236279,14.6927154 C15.6003724,13.88115 17.0423864,13.88115 17.9306669,14.6927154 L23.0180921,19.4019305 C23.8948366,20.2134959 23.8948366,21.5483075 23.0180921,22.3705514 C22.1413477,23.1821168 20.6993337,23.1821168 19.8110531,22.3705514 L14.7236279,17.6613363 C13.8353473,16.8497709 13.8353473,15.5149593 14.7236279,14.6927154 Z" id="Shape"></path>
            <path d="M8.96008262,14.6927154 C9.83761649,15.5042809 9.83761649,16.8390924 8.96008262,17.6613363 L3.8680769,22.3705514 C2.99054304,23.1821168 1.54723076,23.1821168 0.658150399,22.3705514 C-0.219383466,21.558986 -0.219383466,20.2241744 0.658150399,19.4019305 L5.75015611,14.6927154 C6.63923648,13.88115 8.08254876,13.88115 8.96008262,14.6927154 Z" id="Shape"></path>
            <path d="M8.96008262,8.2872398 C8.08254876,9.09783211 6.63923648,9.09783211 5.75015611,8.2872398 L0.658150399,3.57300558 C-0.219383466,2.76241327 -0.219383466,1.42920223 0.658150399,0.607944233 C1.53568426,-0.202648078 2.97899654,-0.202648078 3.8680769,0.607944233 L8.96008262,5.31151277 C9.83761649,6.13277077 9.83761649,7.4659818 8.96008262,8.2872398 Z" id="Shape"></path>
        </g>
        <g id="kreuz-copy-8" opacity="0.192085598" transform="translate(1149.274579, 703.539466) rotate(-67.000000) translate(-1149.274579, -703.539466) translate(1137.274579, 692.039466)" fill="#6FB63C" fill-rule="nonzero">
            <path d="M14.7155679,8.27905584 C13.838034,7.46822048 13.838034,6.13460968 14.7155679,5.31310543 L19.8075736,0.608126525 C20.6851075,-0.202708842 22.1284197,-0.202708842 23.0175001,0.608126525 C23.895034,1.41896189 23.895034,2.75257269 23.0175001,3.57407694 L17.9254944,8.27905584 C17.036414,9.1005601 15.5931018,9.1005601 14.7155679,8.27905584 Z" id="Shape"></path>
            <path d="M14.7236279,14.6927154 C15.6003724,13.88115 17.0423864,13.88115 17.9306669,14.6927154 L23.0180921,19.4019305 C23.8948366,20.2134959 23.8948366,21.5483075 23.0180921,22.3705514 C22.1413477,23.1821168 20.6993337,23.1821168 19.8110531,22.3705514 L14.7236279,17.6613363 C13.8353473,16.8497709 13.8353473,15.5149593 14.7236279,14.6927154 Z" id="Shape"></path>
            <path d="M8.96008262,14.6927154 C9.83761649,15.5042809 9.83761649,16.8390924 8.96008262,17.6613363 L3.8680769,22.3705514 C2.99054304,23.1821168 1.54723076,23.1821168 0.658150399,22.3705514 C-0.219383466,21.558986 -0.219383466,20.2241744 0.658150399,19.4019305 L5.75015611,14.6927154 C6.63923648,13.88115 8.08254876,13.88115 8.96008262,14.6927154 Z" id="Shape"></path>
            <path d="M8.96008262,8.2872398 C8.08254876,9.09783211 6.63923648,9.09783211 5.75015611,8.2872398 L0.658150399,3.57300558 C-0.219383466,2.76241327 -0.219383466,1.42920223 0.658150399,0.607944233 C1.53568426,-0.202648078 2.97899654,-0.202648078 3.8680769,0.607944233 L8.96008262,5.31151277 C9.83761649,6.13277077 9.83761649,7.4659818 8.96008262,8.2872398 Z" id="Shape"></path>
        </g>
        <g id="kreuz-copy" transform="translate(181.000000, 260.500000) rotate(14.000000) translate(-181.000000, -260.500000) translate(169.000000, 249.000000)" fill="#FFD101" fill-rule="nonzero">
            <path d="M14.7155679,8.27905584 C13.838034,7.46822048 13.838034,6.13460968 14.7155679,5.31310543 L19.8075736,0.608126525 C20.6851075,-0.202708842 22.1284197,-0.202708842 23.0175001,0.608126525 C23.895034,1.41896189 23.895034,2.75257269 23.0175001,3.57407694 L17.9254944,8.27905584 C17.036414,9.1005601 15.5931018,9.1005601 14.7155679,8.27905584 Z" id="Shape"></path>
            <path d="M14.7236279,14.6927154 C15.6003724,13.88115 17.0423864,13.88115 17.9306669,14.6927154 L23.0180921,19.4019305 C23.8948366,20.2134959 23.8948366,21.5483075 23.0180921,22.3705514 C22.1413477,23.1821168 20.6993337,23.1821168 19.8110531,22.3705514 L14.7236279,17.6613363 C13.8353473,16.8497709 13.8353473,15.5149593 14.7236279,14.6927154 Z" id="Shape"></path>
            <path d="M8.96008262,14.6927154 C9.83761649,15.5042809 9.83761649,16.8390924 8.96008262,17.6613363 L3.8680769,22.3705514 C2.99054304,23.1821168 1.54723076,23.1821168 0.658150399,22.3705514 C-0.219383466,21.558986 -0.219383466,20.2241744 0.658150399,19.4019305 L5.75015611,14.6927154 C6.63923648,13.88115 8.08254876,13.88115 8.96008262,14.6927154 Z" id="Shape"></path>
            <path d="M8.96008262,8.2872398 C8.08254876,9.09783211 6.63923648,9.09783211 5.75015611,8.2872398 L0.658150399,3.57300558 C-0.219383466,2.76241327 -0.219383466,1.42920223 0.658150399,0.607944233 C1.53568426,-0.202648078 2.97899654,-0.202648078 3.8680769,0.607944233 L8.96008262,5.31151277 C9.83761649,6.13277077 9.83761649,7.4659818 8.96008262,8.2872398 Z" id="Shape"></path>
        </g>
        <g id="kreuz-copy-6" opacity="0.192085598" transform="translate(157.425651, 545.061464) rotate(14.000000) translate(-157.425651, -545.061464) translate(145.425651, 533.561464)" fill="#FFD101" fill-rule="nonzero">
            <path d="M14.7155679,8.27905584 C13.838034,7.46822048 13.838034,6.13460968 14.7155679,5.31310543 L19.8075736,0.608126525 C20.6851075,-0.202708842 22.1284197,-0.202708842 23.0175001,0.608126525 C23.895034,1.41896189 23.895034,2.75257269 23.0175001,3.57407694 L17.9254944,8.27905584 C17.036414,9.1005601 15.5931018,9.1005601 14.7155679,8.27905584 Z" id="Shape"></path>
            <path d="M14.7236279,14.6927154 C15.6003724,13.88115 17.0423864,13.88115 17.9306669,14.6927154 L23.0180921,19.4019305 C23.8948366,20.2134959 23.8948366,21.5483075 23.0180921,22.3705514 C22.1413477,23.1821168 20.6993337,23.1821168 19.8110531,22.3705514 L14.7236279,17.6613363 C13.8353473,16.8497709 13.8353473,15.5149593 14.7236279,14.6927154 Z" id="Shape"></path>
            <path d="M8.96008262,14.6927154 C9.83761649,15.5042809 9.83761649,16.8390924 8.96008262,17.6613363 L3.8680769,22.3705514 C2.99054304,23.1821168 1.54723076,23.1821168 0.658150399,22.3705514 C-0.219383466,21.558986 -0.219383466,20.2241744 0.658150399,19.4019305 L5.75015611,14.6927154 C6.63923648,13.88115 8.08254876,13.88115 8.96008262,14.6927154 Z" id="Shape"></path>
            <path d="M8.96008262,8.2872398 C8.08254876,9.09783211 6.63923648,9.09783211 5.75015611,8.2872398 L0.658150399,3.57300558 C-0.219383466,2.76241327 -0.219383466,1.42920223 0.658150399,0.607944233 C1.53568426,-0.202648078 2.97899654,-0.202648078 3.8680769,0.607944233 L8.96008262,5.31151277 C9.83761649,6.13277077 9.83761649,7.4659818 8.96008262,8.2872398 Z" id="Shape"></path>
        </g>
        <path d="M547.5,916 C534.531037,916 524,905.44898 524,892.5 C524,879.531037 534.531037,869 547.5,869 C560.468963,869 571,879.55102 571,892.5 C571,905.44898 560.44898,916 547.5,916 Z M547.5,875.094813 C537.908163,875.094813 530.114796,882.88818 530.114796,892.480017 C530.114796,902.071854 537.908163,909.865221 547.5,909.865221 C557.091837,909.865221 564.885204,902.071854 564.885204,892.480017 C564.885204,882.908163 557.091837,875.094813 547.5,875.094813 Z" id="Shape" fill="#FF595D" fill-rule="nonzero" opacity="0.19"></path>
        <path d="M868.895899,870 L845.109296,870 C843.613368,870 842.279162,869.2147 841.537936,867.901354 C840.796711,866.588008 840.823664,865.030948 841.605321,863.744681 L853.491884,843.990329 C854.246586,842.744681 855.553839,842 856.995859,842 C858.43788,842 859.758609,842.744681 860.499835,843.990329 L872.399875,863.744681 C873.181531,865.030948 873.195008,866.588008 872.467259,867.901354 C871.73951,869.2147 870.405304,870 868.895899,870 Z M857.009336,845.953578 C856.914998,845.953578 856.888045,846.007737 856.861091,846.034816 L844.961051,865.789168 C844.947574,865.816248 844.907144,865.870406 844.961051,865.965184 C845.014958,866.046422 845.068866,866.046422 845.109296,866.046422 L868.895899,866.046422 C868.93633,866.046422 868.990237,866.046422 869.044144,865.965184 C869.098052,865.883946 869.057621,865.829787 869.044144,865.789168 L857.144104,846.034816 C857.130628,846.007737 857.103674,845.953578 857.009336,845.953578 Z" id="Shape" fill="#B18AE0" fill-rule="nonzero" opacity="0.19"></path>
        <g id="kreuz-copy-9" opacity="0.192085598" transform="translate(1097.450061, 899.536236) rotate(52.000000) translate(-1097.450061, -899.536236) translate(1085.450061, 888.036236)" fill="#A1D4FF" fill-rule="nonzero">
            <path d="M14.7155679,8.27905584 C13.838034,7.46822048 13.838034,6.13460968 14.7155679,5.31310543 L19.8075736,0.608126525 C20.6851075,-0.202708842 22.1284197,-0.202708842 23.0175001,0.608126525 C23.895034,1.41896189 23.895034,2.75257269 23.0175001,3.57407694 L17.9254944,8.27905584 C17.036414,9.1005601 15.5931018,9.1005601 14.7155679,8.27905584 Z" id="Shape"></path>
            <path d="M14.7236279,14.6927154 C15.6003724,13.88115 17.0423864,13.88115 17.9306669,14.6927154 L23.0180921,19.4019305 C23.8948366,20.2134959 23.8948366,21.5483075 23.0180921,22.3705514 C22.1413477,23.1821168 20.6993337,23.1821168 19.8110531,22.3705514 L14.7236279,17.6613363 C13.8353473,16.8497709 13.8353473,15.5149593 14.7236279,14.6927154 Z" id="Shape"></path>
            <path d="M8.96008262,14.6927154 C9.83761649,15.5042809 9.83761649,16.8390924 8.96008262,17.6613363 L3.8680769,22.3705514 C2.99054304,23.1821168 1.54723076,23.1821168 0.658150399,22.3705514 C-0.219383466,21.558986 -0.219383466,20.2241744 0.658150399,19.4019305 L5.75015611,14.6927154 C6.63923648,13.88115 8.08254876,13.88115 8.96008262,14.6927154 Z" id="Shape"></path>
            <path d="M8.96008262,8.2872398 C8.08254876,9.09783211 6.63923648,9.09783211 5.75015611,8.2872398 L0.658150399,3.57300558 C-0.219383466,2.76241327 -0.219383466,1.42920223 0.658150399,0.607944233 C1.53568426,-0.202648078 2.97899654,-0.202648078 3.8680769,0.607944233 L8.96008262,5.31151277 C9.83761649,6.13277077 9.83761649,7.4659818 8.96008262,8.2872398 Z" id="Shape"></path>
        </g>
        <path d="M75.5,916 C62.5310374,916 52,905.44898 52,892.5 C52,879.531037 62.5310374,869 75.5,869 C88.4689626,869 99,879.55102 99,892.5 C99,905.44898 88.4489796,916 75.5,916 Z M75.5,875.094813 C65.9081633,875.094813 58.1147959,882.88818 58.1147959,892.480017 C58.1147959,902.071854 65.9081633,909.865221 75.5,909.865221 C85.0918367,909.865221 92.8852041,902.071854 92.8852041,892.480017 C92.8852041,882.908163 85.0918367,875.094813 75.5,875.094813 Z" id="Shape" fill="#FF595D" fill-rule="nonzero" opacity="0.19"></path>
    </g>
</svg>