<?xml version="1.0" encoding="UTF-8"?>
<svg width="151px" height="150px" viewBox="0 0 151 150" version="1.1" xmlns="http://www.w3.org/2000/svg" xmlns:xlink="http://www.w3.org/1999/xlink">
    <!-- Generator: Sketch 48.2 (47327) - http://www.bohemiancoding.com/sketch -->
    <title>google-white</title>
    <desc>Created with Sketch.</desc>
    <defs></defs>
    <g id="vendor-logos-copy" stroke="none" stroke-width="1" fill="none" fill-rule="evenodd" transform="translate(-130.000000, -64.000000)">
        <path d="M262.613191,150.672183 C261.62169,156.605794 259.864851,162.303965 257.159934,167.694807 C254.901012,172.200505 252.077586,176.319795 248.657087,180.031109 C247.804903,180.950401 246.92196,181.832849 246.017305,182.696426 C245.904224,182.804261 245.777572,182.904008 245.654539,183.008249 C242.569667,185.868567 239.174499,188.312823 235.499793,190.369772 C231.755428,192.46626 227.809325,194.09816 223.680482,195.287039 C221.080505,196.033795 218.432582,196.594536 215.749377,196.975553 C212.730545,197.410486 209.698143,197.609082 206.652171,197.579428 C204.017818,197.553367 201.391606,197.348481 198.778964,196.980046 C194.255691,196.346516 189.869022,195.200771 185.617146,193.551797 C180.929227,191.72849 176.541653,189.340848 172.473421,186.389769 C165.713843,181.485082 160.243398,175.425664 156.070227,168.216009 C152.80171,162.573552 150.5645,156.544687 149.341407,150.147387 C148.847466,147.551264 148.529027,144.934473 148.379759,142.295216 C148.226873,139.635291 148.249489,136.974467 148.472034,134.318136 C149.38483,123.322579 153.055918,113.322698 159.614663,104.403861 C165.399928,96.5301221 172.735771,90.4877782 181.567008,86.2345935 C186.006147,84.0949711 190.65969,82.5628182 195.496877,81.5985952 C198.285022,81.0477391 201.098498,80.6963773 203.934589,80.5436113 C205.940208,80.4357765 207.941304,80.4142096 209.946923,80.5094637 C212.966659,80.6487503 215.959256,81.0090983 218.926523,81.6120746 C227.3769,83.3266481 235.045656,86.7809565 242.002449,91.8249298 C243.343147,92.7972404 244.636803,93.8342518 245.904224,94.9018164 C246.10958,95.0761494 246.05711,95.1498365 245.8997,95.306197 C241.652348,99.5162477 237.404995,103.735285 233.162166,107.953423 C231.82961,109.277994 230.488007,110.597173 229.164497,111.934325 C228.998041,112.098773 228.906671,112.098773 228.727549,111.955892 C224.53719,108.604925 219.817608,106.335002 214.561565,105.189257 C211.350042,104.490128 208.098714,104.27356 204.817532,104.499115 C199.49545,104.863057 194.504471,106.335002 189.890734,108.98684 C183.200814,112.832948 178.311157,118.292984 175.221762,125.3328 C173.994146,128.137404 173.189908,131.062423 172.757483,134.088088 C172.386575,136.695893 172.30787,139.305496 172.525891,141.92678 C172.749341,144.604678 173.277659,147.225963 174.116274,149.787039 C175.960864,155.42051 179.062924,160.264988 183.415217,164.306098 C188.326586,168.863017 194.098282,171.767368 200.704973,173.025441 C203.051647,173.472956 205.415509,173.67245 207.801987,173.638302 C212.511618,173.56821 217.113595,172.860094 221.534642,171.167986 C223.388279,170.46077 225.162306,169.5927 226.839536,168.537716 C228.495958,167.464759 230.060105,166.275881 231.46232,164.886609 C234.971474,161.418821 237.269297,157.269877 238.510483,152.526044 C238.615423,152.113575 238.694128,151.696614 238.808114,151.289538 C238.868726,151.058591 238.790926,150.997485 238.581046,151.019951 C238.493294,151.028038 238.410066,151.019951 238.322315,151.019951 C228.093387,151.019951 217.868982,151.019951 207.640054,151.028038 C207.312569,151.028038 207.238387,150.946264 207.242006,150.629049 C207.251053,143.333126 207.251053,136.036304 207.238387,128.744873 C207.238387,128.41418 207.325234,128.349479 207.644577,128.349479 C225.698766,128.353972 243.749337,128.353972 261.80443,128.349479 C262.102062,128.349479 262.22419,128.418673 262.285706,128.722408 C262.705466,130.685001 263.050139,132.659277 263.286254,134.656018 C263.544081,136.847761 263.573934,139.048489 263.513322,141.253711 C263.421952,144.408778 263.133368,147.555757 262.613191,150.672183 M205.90945,64.5364323 C164.498892,64.5364323 130.932594,97.8798545 130.932594,139.013443 C130.932594,180.148829 164.498892,213.495846 205.90945,213.495846 C247.320008,213.495846 280.89083,180.148829 280.89083,139.013443 C280.89083,97.8798545 247.320008,64.5364323 205.90945,64.5364323" id="google-white" fill="#FFFFFF"></path>
    </g>
</svg>