<?xml version="1.0" encoding="UTF-8"?>
<svg width="151px" height="150px" viewBox="0 0 151 150" version="1.1" xmlns="http://www.w3.org/2000/svg" xmlns:xlink="http://www.w3.org/1999/xlink">
    <!-- Generator: Sketch 48.2 (47327) - http://www.bohemiancoding.com/sketch -->
    <title>google</title>
    <desc>Created with Sketch.</desc>
    <defs></defs>
    <g id="vendor-logos" stroke="none" stroke-width="1" fill="none" fill-rule="evenodd" transform="translate(-130.000000, -64.000000)">
        <g id="google" transform="translate(130.000000, 64.000000)">
            <path d="M75.9094501,0.536432285 C34.4988924,0.536432285 0.932593564,33.8798545 0.932593564,75.0134431 C0.932593564,116.148829 34.4988924,149.495846 75.9094501,149.495846 C117.320008,149.495846 150.89083,116.148829 150.89083,75.0134431 C150.89083,33.8798545 117.320008,0.536432285 75.9094501,0.536432285" id="Path" fill="#22262a"></path>
            <path d="M132.613191,86.6721834 C131.62169,92.6057939 129.864851,98.303965 127.159934,103.694807 C124.901012,108.200505 122.077586,112.319795 118.657087,116.031109 C117.804903,116.950401 116.92196,117.832849 116.017305,118.696426 C115.904224,118.804261 115.777572,118.904008 115.654539,119.008249 C112.569667,121.868567 109.174499,124.312823 105.499793,126.369772 C101.755428,128.46626 97.8093251,130.09816 93.6804822,131.287039 C91.0805053,132.033795 88.4325817,132.594536 85.7493766,132.975553 C82.7305447,133.410486 79.6981429,133.609082 76.6521714,133.579428 C74.0178176,133.553367 71.3916057,133.348481 68.7789637,132.980046 C64.2556914,132.346516 59.869022,131.200771 55.617146,129.551797 C50.9292266,127.72849 46.5416525,125.340848 42.4734215,122.389769 C35.7138434,117.485082 30.2433979,111.425664 26.0702269,104.216009 C22.8017103,98.573552 20.5644999,92.5446875 19.3414071,86.1473873 C18.8474657,83.5512642 18.5290274,80.9344728 18.3797594,78.2952158 C18.2268728,75.6352905 18.2494891,72.9744665 18.4720341,70.3181357 C19.3848305,59.3225795 23.0559182,49.322698 29.614663,40.4038605 C35.3999283,32.5301221 42.7357712,26.4877782 51.567008,22.2345935 C56.0061474,20.0949711 60.6596899,18.5628182 65.4968773,17.5985952 C68.2850223,17.0477391 71.0984977,16.6963773 73.9345894,16.5436113 C75.9402083,16.4357765 77.941304,16.4142096 79.9469229,16.5094637 C82.9666595,16.6487503 85.9592564,17.0090983 88.926523,17.6120746 C97.3769003,19.3266481 105.045656,22.7809565 112.002449,27.8249298 C113.343147,28.7972404 114.636803,29.8342518 115.904224,30.9018164 C116.10958,31.0761494 116.05711,31.1498365 115.8997,31.306197 C111.652348,35.5162477 107.404995,39.7352847 103.162166,43.953423 C101.82961,45.277994 100.488007,46.5971732 99.1644975,47.9343248 C98.9980411,48.0987729 98.906671,48.0987729 98.7275494,47.9558918 C94.5371899,44.604925 89.8176077,42.3350023 84.5615653,41.1892574 C81.350042,40.4901284 78.0987139,40.2735601 74.8175322,40.4991146 C69.49545,40.8630571 64.5044714,42.3350023 59.8907337,44.98684 C53.200814,48.8329482 48.3111566,54.2929842 45.2217617,61.3328001 C43.9941456,64.1374038 43.1899078,67.062423 42.7574829,70.0880881 C42.3865746,72.6958933 42.3078697,75.3054957 42.5258914,77.9267802 C42.7493411,80.604678 43.2776593,83.2259626 44.1162739,85.7870393 C45.9608644,91.4205096 49.0629245,96.2649885 53.4152171,100.306098 C58.3265861,104.863017 64.0982815,107.767368 70.704973,109.025441 C73.0516467,109.472956 75.4155087,109.67245 77.8019872,109.638302 C82.5116183,109.56821 87.1135955,108.860094 91.5346418,107.167986 C93.3882788,106.46077 95.1623062,105.5927 96.8395355,104.537716 C98.4959578,103.464759 100.060105,102.275881 101.46232,100.886609 C104.971474,97.4188209 107.269297,93.2698766 108.510483,88.5260435 C108.615423,88.1135754 108.694128,87.6966141 108.808114,87.2895377 C108.868726,87.0585915 108.790926,86.9974851 108.581046,87.0199507 C108.493294,87.0280383 108.410066,87.0199507 108.322315,87.0199507 C98.0933866,87.0199507 87.868982,87.0199507 77.6400541,87.0280383 C77.3125691,87.0280383 77.2383875,86.9462635 77.2420061,86.6290495 C77.2510526,79.3331259 77.2510526,72.0363037 77.2383875,64.7448732 C77.2383875,64.4141798 77.3252343,64.3494789 77.6445773,64.3494789 C95.6987663,64.353972 113.749337,64.353972 131.80443,64.3494789 C132.102062,64.3494789 132.22419,64.4186729 132.285706,64.7224076 C132.705466,66.6850012 133.050139,68.6592769 133.286254,70.6560181 C133.544081,72.8477606 133.573934,75.0484894 133.513322,77.2537113 C133.421952,80.4087781 133.133368,83.5557574 132.613191,86.6721834" fill="#FFFFFF" fill-rule="nonzero"></path>
        </g>
    </g>
</svg>