<?xml version="1.0" encoding="UTF-8"?>
<svg width="358px" height="327px" viewBox="0 0 358 327" version="1.1" xmlns="http://www.w3.org/2000/svg" xmlns:xlink="http://www.w3.org/1999/xlink">
    <!-- Generator: Sketch 48.2 (47327) - http://www.bohemiancoding.com/sketch -->
    <title>integration</title>
    <desc>Created with Sketch.</desc>
    <defs></defs>
    <g id="integration" stroke="none" stroke-width="1" fill="none" fill-rule="evenodd" transform="translate(-8.000000, -340.000000)">
        <g transform="translate(8.403707, 340.000000)">
            <path d="M238.312515,185.04676 C238.312515,183.960616 238.312515,182.870002 238.22759,181.783858 C237.744859,174.918355 233.257252,169.550211 226.579477,168.052852 C224.701535,167.669517 222.788189,167.486722 220.871634,167.507545 C205.564304,167.43603 190.255484,167.397292 174.945174,167.391332 C158.806474,167.391332 142.664794,167.42858 126.520135,167.503076 C115.962636,167.565652 109.825699,173.760696 109.81229,184.237739 C109.81229,188.980121 109.843578,193.718033 109.767593,198.460415 C109.767593,199.032541 109.15077,199.604666 108.811071,200.167852 C108.149551,201.258465 107.023179,202.286503 106.898027,203.430753 C106.667059,206.047423 106.655098,208.678814 106.862269,211.297476 C106.915906,212.236119 107.353939,213.684311 108.00652,213.952494 C110.29949,214.900077 109.825699,216.705847 109.794411,218.395404 C109.794411,218.918363 109.472591,219.713974 109.074785,219.897233 C107.286893,220.724133 106.808632,222.132097 106.83992,223.960216 C106.866739,228.827751 106.768405,233.699755 106.898027,238.562819 C106.938254,240.104876 107.564016,241.629053 107.961822,243.349899 C107.689169,244.069525 106.933785,245.13779 106.906966,246.250752 C106.786284,251.757458 106.759465,257.268633 106.933785,262.788748 C106.969543,263.870422 107.82773,265.22028 108.721676,265.87733 C109.615622,266.53438 109.874866,266.976884 109.870396,267.960224 C109.852517,273.12127 109.852517,278.288276 109.870396,283.461242 L109.870396,326.929352 L118.738338,326.929352 L118.738338,186.04351 C118.738338,182.986215 119.502661,180.125589 121.679419,177.97118 C122.944352,176.724126 124.678607,175.253585 126.2743,175.159721 C132.000022,174.820021 137.757032,175.025629 143.576619,175.025629 C143.625786,175.472602 143.683892,175.919574 143.710711,176.366547 C144.032531,181.108929 146.937855,183.880161 151.653418,183.880161 C166.510796,183.880161 181.369663,183.880161 196.230021,183.880161 C201.365739,183.880161 204.016288,181.457568 204.516897,176.339729 C204.561595,175.892756 204.650989,175.481541 204.753793,174.84684 L218.346237,174.84684 C225.274317,174.84684 229.390937,178.941111 229.395406,185.922827 C229.395406,232.926492 229.395406,279.927177 229.395406,326.924882 L238.182893,326.924882 L238.182893,308.598995 C238.22759,308.35763 238.267817,308.116265 238.312515,307.86596 L238.312515,291.131296 C238.316984,255.574606 238.316984,220.312918 238.312515,185.04676 Z M186.284875,178.753382 C182.186134,178.753382 178.096332,178.753382 174.002061,178.753382 L161.902506,178.753382 C160.525829,178.753382 159.158093,178.498608 159.113395,176.840339 C159.064228,175.052447 160.454314,174.744036 161.924855,174.744036 L186.302754,174.744036 C187.692839,174.744036 188.984591,175.065856 188.984591,176.759883 C188.984591,178.453911 187.661551,178.753382 186.284875,178.753382 Z M195.175165,178.176787 C194.551368,177.779128 194.071882,177.191522 193.807428,176.500639 C193.731443,176.330789 194.701374,175.374268 194.9338,175.459192 C195.608729,175.682679 196.158505,176.281622 197.168664,177.028067 C196.185323,177.618071 195.461227,178.342167 195.175165,178.176787 Z" id="Shape" fill="#636667" fill-rule="nonzero"></path>
            <rect id="Rectangle-path" stroke="#636667" stroke-width="4" x="129.036592" y="211.775737" width="63.9171176" height="19.9305194" rx="9.9652597"></rect>
            <rect id="Rectangle-path" stroke="#636667" stroke-width="4" x="155.148746" y="251.332834" width="63.9171176" height="19.9305194" rx="9.9652597"></rect>
            <rect id="Rectangle-path" stroke="#636667" stroke-width="4" x="129.036592" y="290.889931" width="63.9171176" height="19.9305194" rx="9.9652597"></rect>
            <path d="M28.3067906,81.5457268 C12.6733818,81.5457268 1.9145404e-15,94.2191087 0,109.852517 C-1.9145404e-15,125.485926 12.6733818,138.159308 28.3067906,138.159308 C43.9401994,138.159308 56.6135812,125.485926 56.6135812,109.852517 C56.5669462,94.2384663 43.9208417,81.5923619 28.3067906,81.5457268 Z M28.3067906,90.038211 C32.9970601,90.038211 36.7992748,93.8404256 36.7992748,98.5306951 C36.7992748,103.220965 32.9970601,107.023179 28.3067906,107.023179 C23.6165211,107.023179 19.8143065,103.220965 19.8143065,98.5306951 C19.8143065,93.8404256 23.6165211,90.038211 28.3067906,90.038211 Z M28.3067906,130.234479 C21.4978446,130.198699 15.1439853,126.809417 11.3218223,121.17434 C11.3218223,115.515663 22.6481143,112.400263 28.3067906,112.400263 C33.9654669,112.400263 45.2917589,115.529073 45.2917589,121.17434 C41.471201,126.811202 35.1163248,130.201026 28.3067906,130.234479 Z" id="Shape" fill="#636667" fill-rule="nonzero"></path>
            <path d="M161.415305,42.426663 C161.469597,43.2405097 160.864381,43.948911 160.052038,44.022356 L159.935825,44.022356 C159.170729,44.0236137 158.530088,43.4429725 158.456345,42.6814375 L157.71437,33.0625817 C157.659429,32.2566091 158.251897,31.5515729 159.055289,31.4668887 C159.869136,31.4125968 160.577537,32.0178136 160.650982,32.8301559 L161.415305,42.426663 Z" id="Shape" fill="#636667" fill-rule="nonzero"></path>
            <path d="M169.116648,31.8825734 C169.403128,32.1530575 169.564917,32.5300264 169.563621,32.9240202 L169.563621,42.5428759 C169.563621,43.3599702 168.901235,44.022356 168.08414,44.022356 C167.267046,44.022356 166.60466,43.3599702 166.60466,42.5428759 L166.60466,32.9240202 C166.604096,32.3264263 166.964162,31.7875436 167.51648,31.5593696 C168.068798,31.3311956 168.704214,31.4588246 169.125587,31.8825734 L169.116648,31.8825734 Z" id="Shape" fill="#636667" fill-rule="nonzero"></path>
            <path d="M177.997998,31.8825734 C178.284479,32.1530575 178.446268,32.5300264 178.444971,32.9240202 L178.444971,42.5428759 C178.445535,43.1404697 178.085469,43.6793524 177.533151,43.9075264 C176.980833,44.1357004 176.345418,44.0080714 175.924044,43.5843226 C175.636662,43.3144695 175.474696,42.9370887 175.477071,42.5428759 L175.477071,32.9240202 C175.486723,32.1109572 176.143489,31.4541916 176.956551,31.44454 C177.349312,31.4403826 177.726284,31.5989375 177.997998,31.8825734 Z" id="Shape" fill="#636667" fill-rule="nonzero"></path>
            <path d="M186.955334,31.9630285 C187.218204,32.2575032 187.349036,32.6467691 187.317382,33.0402331 L186.575407,42.6590888 C186.501664,43.4206239 185.861023,44.001265 185.095927,44.0000074 L184.979714,44.0000074 C184.167372,43.9265623 183.562155,43.2181611 183.616447,42.4043143 L184.353952,32.7854586 C184.396042,32.1857074 184.797936,31.6715245 185.369766,31.4858271 C185.941595,31.3001298 186.568906,31.4800866 186.955334,31.9406799 L186.955334,31.9630285 Z" id="Shape" fill="#636667" fill-rule="nonzero"></path>
            <path d="M172.53152,1.34775694e-09 C161.009772,1.43188362e-07 150.622613,6.94077256 146.213849,17.5856529 C141.805084,28.2305333 144.243009,40.4830397 152.390754,48.6295067 C160.5385,56.7759738 172.791389,59.2119757 183.435577,54.8015408 C194.079766,50.3911059 201.018908,40.0028581 201.0171,28.48111 C201.0171,20.9266755 198.015807,13.6817163 192.673596,8.34034354 C187.331385,2.99897081 180.085955,-0.0011855659 172.53152,1.3477601e-09 Z M156.976865,13.8561584 C157.243979,12.5405063 157.973359,11.3639853 159.03294,10.5396198 C160.080938,9.69657182 161.388943,9.24319326 162.733875,9.25680773 L166.595721,9.25680773 C166.597971,8.44364395 167.248802,7.78090685 168.061792,7.76391841 L176.956551,7.76391841 C177.769614,7.77357003 178.42638,8.43033562 178.436032,9.24339855 L182.297877,9.24339855 C183.64281,9.22978408 184.950815,9.68316264 185.998812,10.5262106 C187.056905,11.3519127 187.785914,12.5278352 188.054887,13.8427492 L190.410434,24.0426696 L187.35761,24.0426696 L185.20767,14.5132085 C185.050623,13.8571283 184.679459,13.2720738 184.152814,12.8504694 C183.636873,12.4231032 182.985649,12.1933528 182.315756,12.2023588 L178.453911,12.2023588 C178.444259,13.0154217 177.787493,13.6721873 176.97443,13.681839 L168.061792,13.681839 C167.248729,13.6721873 166.591963,13.0154217 166.582312,12.2023588 L162.720466,12.2023588 C162.059766,12.199694 161.4191,12.4290683 160.910226,12.8504694 C160.383581,13.2720738 160.012418,13.8571283 159.85537,14.5132085 L157.692022,24.0426696 L154.652606,24.0426696 L156.976865,13.8561584 Z M193.235303,31.4579492 L192.886664,31.4579492 L190.204827,46.7667693 C190.092953,47.4567305 189.731956,48.0817162 189.190198,48.5233726 C188.662147,48.974358 187.989447,49.2202744 187.295033,49.2161806 L157.71437,49.2161806 C156.278942,49.2105089 155.052647,48.1798197 154.800107,46.7667693 L152.140619,31.4579492 L151.79645,31.4579492 C150.711076,31.5001255 149.689602,30.9451308 149.134373,30.0115697 C148.579144,29.0780087 148.579144,27.9154995 149.134373,26.9819384 C149.689602,26.0483774 150.711076,25.4933827 151.79645,25.5355589 L193.235303,25.5355589 C194.82599,25.5973711 196.083664,26.9048665 196.083664,28.4967541 C196.083664,30.0886416 194.82599,31.3961371 193.235303,31.4579492 Z" id="Shape" fill="#636667" fill-rule="nonzero"></path>
            <path d="M344.169095,112.1142 C344.169093,113.266198 343.474907,114.304679 342.410426,114.745111 C341.345945,115.185542 340.120956,114.941126 339.30701,114.125901 C338.493065,113.310675 338.250573,112.085304 338.692677,111.021517 C339.134781,109.957729 340.174351,109.265175 341.326347,109.266983 C342.881195,109.30702 344.1315,110.559291 344.169095,112.1142 Z" id="Shape" fill="#636667" fill-rule="nonzero"></path>
            <path d="M328.972018,78.9130567 C313.262084,78.9130567 300.526666,91.6484747 300.526666,107.358409 C300.526666,123.068343 313.262084,135.803761 328.972018,135.803761 C344.681952,135.803761 357.41737,123.068343 357.41737,107.358409 C357.41737,91.6484747 344.681952,78.9130567 328.972018,78.9130567 Z M347.950485,122.551016 C347.943129,124.64624 346.24644,126.342929 344.151216,126.350285 L313.774941,126.350285 C311.679717,126.342929 309.983028,124.64624 309.975672,122.551016 L309.975672,97.3104593 C309.984961,95.4273149 311.349663,93.8247811 313.207285,93.5156598 L341.862715,88.3888812 C342.426367,88.3033028 342.999817,88.4614895 343.439879,88.8239438 C343.879941,89.1863981 344.145081,89.7189096 344.169095,90.2885158 L344.169095,93.1357328 L313.774941,95.9829499 C313.774941,96.7428037 314.530325,97.8825845 316.809887,97.8825845 L344.169095,97.8825845 C346.263595,97.8874882 347.960995,99.5828905 347.968364,101.677384 L347.950485,122.551016 Z" id="Shape" fill="#636667" fill-rule="nonzero"></path>
            <circle id="Oval" fill="#636667" fill-rule="nonzero" cx="77.0044827" cy="114.626187" r="15.0853337"></circle>
            <circle id="Oval" fill="#636667" fill-rule="nonzero" cx="105.941505" cy="127.490066" r="10.1596929"></circle>
            <circle id="Oval" fill="#636667" fill-rule="nonzero" cx="177.229205" cy="109.360847" r="10.1596929"></circle>
            <circle id="Oval" fill="#636667" fill-rule="nonzero" cx="179.714374" cy="136.398235" r="5.96261782"></circle>
            <circle id="Oval" fill="#636667" fill-rule="nonzero" cx="233.409222" cy="143.943137" r="5.96261782"></circle>
            <circle id="Oval" fill="#636667" fill-rule="nonzero" cx="125.755811" cy="143.607907" r="5.96261782"></circle>
            <circle id="Oval" fill="#636667" fill-rule="nonzero" cx="251.310485" cy="130.569709" r="10.1596929"></circle>
            <circle id="Oval" fill="#636667" fill-rule="nonzero" cx="176.956551" cy="77.2905453" r="15.0853337"></circle>
            <circle id="Oval" fill="#636667" fill-rule="nonzero" cx="278.329994" cy="112.735492" r="15.0853337"></circle>
        </g>
    </g>
</svg>