<svg xmlns="http://www.w3.org/2000/svg" viewBox="0 0 479.29 386.75"><defs><style>.cls-1{fill:#53c1e5;}.cls-2{fill:#84ceea;}.cls-3{fill:#04abdf;}</style></defs><title>Logo Voice.link</title><g id="Ebene_2" data-name="Ebene 2"><g id="Ebene_1-2" data-name="Ebene 1"><path class="cls-1" d="M88.8,174.66c-6.58-5.55-16.38-.9-17.91,8.47-.09.54-.17,1.07-.25,1.6-.14.87,1.07,2.1,1.93,3,7.34,7.25,15.28,14.09,22,21.75a151.75,151.75,0,0,1,29,49.69c.52,1.46,1.8,3.53,3.1,3.84l1.17.28c8.89,2,16.35-8.58,12.44-17.68C129.43,220.29,108.27,191.05,88.8,174.66Z"/><path class="cls-2" d="M72.13,231l-2.9,15.5a3.59,3.59,0,0,0,2.59,4.34l15.87,3c2.9.54,5.12-3.15,3.54-5.89a123.64,123.64,0,0,0-13.33-19C76,226.76,72.7,227.94,72.13,231Z"/><path class="cls-3" d="M26.15,385.32,0,330.52H12.46l16.46,35.57,16.51-35.57H57.89l-26.2,54.8Z"/><path class="cls-3" d="M94.63,326a30.36,30.36,0,1,1-21.4,51.82A30.36,30.36,0,0,1,94.63,326ZM81.19,343a19,19,0,0,0,13.44,32.38A19,19,0,1,0,81.19,343Z"/><path class="cls-3" d="M149.59,310.23a7.71,7.71,0,0,1,0,11,7.79,7.79,0,0,1-10.91,0,7.71,7.71,0,0,1,0-11,7.76,7.76,0,0,1,10.91,0Zm.06,20.29v54.8h-11v-54.8Z"/><path class="cls-3" d="M209.93,366.52l11,3.94a71.37,71.37,0,0,1-5.85,7.4,30.36,30.36,0,1,1,0-42.92,74.43,74.43,0,0,1,5.85,7.29l-11,4q-2.13-2.61-2.87-3.35a19,19,0,1,0-13.42,32.43,18.47,18.47,0,0,0,13.47-5.54Q207.8,369.07,209.93,366.52Z"/><path class="cls-3" d="M250.78,372.91q2.76,2.44,10.06,2.45a18.47,18.47,0,0,0,13.48-5.54q.69-.75,2.82-3.3l11,3.94a71,71,0,0,1-5.86,7.4,30.31,30.31,0,1,1-2.6-45.32c.88.75,1.75,1.54,2.6,2.4q.54.53,3,3.35l-5.54,5.59Zm18.42-34.09q-1.86-1.43-8.36-1.43a19,19,0,0,0-19,19c0,4.3.48,7.08,1.44,8.36Z"/><path class="cls-3" d="M307.57,372.8a7.35,7.35,0,0,1,2.27,5.43,7.73,7.73,0,1,1-15.45,0,7.33,7.33,0,0,1,2.29-5.43,7.74,7.74,0,0,1,10.89,0Z"/><path class="cls-3" d="M334.23,300.05v85.27H323.15V300.05Z"/><path class="cls-3" d="M362.08,310.23a7.71,7.71,0,0,1,0,11,7.8,7.8,0,0,1-10.92,0,7.71,7.71,0,0,1,0-11,7.77,7.77,0,0,1,10.92,0Zm.05,20.29v54.8h-11v-54.8Z"/><path class="cls-3" d="M390.09,345.22v40.1H379v-54.8h11.07v6.39q3.46-9.37,13.9-9.38,8.89,0,14.14,6.32t5.41,15.84v35.63h-11V350.11a11,11,0,0,0-3.46-8.12,11.8,11.8,0,0,0-16.45-.08A12.57,12.57,0,0,0,390.09,345.22Z"/><path class="cls-3" d="M473.49,330.52l-14.86,18.32,20.66,36.48H466.14L451.23,358l-.48.58v26.74H439.67V310h11.08v31l8.52-10.43Z"/><path class="cls-3" d="M405.52,119.26C397,84,374.06,56.78,342.46,35.05,310.24,12.89,273.36,2.53,234,.34,191.06-2,152.56,8.26,119.7,31.9c-13.89,10-24.51,21.32-32.06,33.87h0c-18.72,31.65-16.6,58-16.6,58l0,0a27.5,27.5,0,0,0,3.22,11.63,4.17,4.17,0,0,0,.78,1.34,23.52,23.52,0,0,0,4.26,5.09l-.06,0s50.92,38.79,79,104.92c.49,1.15.95,2.32,1.37,3.51,2.78,7.77,8.93,13.71,16.9,15.2,0,0,30.29,7.82,73.5,4.95h0c120.33-.5,147.36-79.2,149.16-84.89l.27-.73c.09-.24.19-.49.29-.72C408.42,163.23,410.91,141.57,405.52,119.26Z"/></g></g></svg>