<?xml version="1.0" encoding="UTF-8"?>
<svg width="500px" height="500px" viewBox="0 0 500 500" version="1.1" xmlns="http://www.w3.org/2000/svg" xmlns:xlink="http://www.w3.org/1999/xlink">
    <!-- Generator: Sketch 48.2 (47327) - http://www.bohemiancoding.com/sketch -->
    <title>Logo White</title>
    <desc>Created with Sketch.</desc>
    <defs></defs>
    <g id="Page-1" stroke="none" stroke-width="1" fill="none" fill-rule="evenodd">
        <g id="Logo-White" fill="#FFFFFF" fill-rule="nonzero">
            <g id="Voice.link" transform="translate(10.000000, 356.500000)">
                <polygon id="Shape" points="26.15 85.32 0 30.52 12.46 30.52 28.92 66.09 45.43 30.52 57.89 30.52 31.69 85.32"></polygon>
                <path d="M94.63,26 C108.381757,25.9658346 120.439179,35.1793579 124.018821,48.4570889 C127.598464,61.7348199 121.806287,75.7605502 109.900939,82.6434759 C97.9955904,89.5264016 82.9505172,87.5474627 73.23,77.82 C64.5612997,69.1451058 61.9630137,56.1067135 66.6441028,44.7714782 C71.3251919,33.4362429 82.3662638,26.0304685 94.63,26 Z M81.19,43 C75.7945858,48.4396513 74.1942318,56.5876326 77.1313821,63.663892 C80.0685324,70.7401515 86.9684142,75.3599312 94.63,75.38 C103.245261,75.4025669 110.797455,69.6255703 113.030463,61.3046989 C115.263471,52.9838274 111.618344,44.2018925 104.149333,39.908048 C96.680322,35.6142035 87.2570076,36.8832489 81.19,43 Z" id="Shape"></path>
                <path d="M149.59,10.23 C151.065626,11.6796433 151.896844,13.6614406 151.896844,15.73 C151.896844,17.7985594 151.065626,19.7803567 149.59,21.23 C146.560421,24.2017178 141.709579,24.2017178 138.68,21.23 C137.204374,19.7803567 136.373156,17.7985594 136.373156,15.73 C136.373156,13.6614406 137.204374,11.6796433 138.68,10.23 C141.702968,7.24214664 146.567032,7.24214664 149.59,10.23 Z M149.65,30.52 L149.65,85.32 L138.65,85.32 L138.65,30.52 L149.65,30.52 Z" id="Shape"></path>
                <path d="M209.93,66.52 L220.93,70.46 C219.145323,73.0529755 217.191056,75.5250403 215.08,77.86 C206.398828,86.5474504 193.338729,89.1489468 181.99128,84.4510821 C170.643831,79.7532175 163.244479,68.6814713 163.244479,56.4 C163.244479,44.1185287 170.643831,33.0467825 181.99128,28.3489179 C193.338729,23.6510532 206.398828,26.2525496 215.08,34.94 C217.180806,37.2450375 219.134658,39.6798373 220.93,42.23 L209.93,46.23 C208.51,44.49 207.553333,43.3733333 207.06,42.88 C200.979124,36.7945801 191.568128,35.5543029 184.118265,39.8565037 C176.668402,44.1587044 173.038817,52.92975 175.270214,61.2381951 C177.50161,69.5466403 185.037134,75.3190761 193.64,75.31 C198.699298,75.3863504 203.56839,73.3837691 207.11,69.77 C207.57,69.3033333 208.51,68.22 209.93,66.52 Z" id="Shape"></path>
                <path d="M250.78,72.91 C252.62,74.5366667 255.973333,75.3533333 260.84,75.36 C265.902753,75.4391039 270.775984,73.4363071 274.32,69.82 C274.78,69.32 275.72,68.22 277.14,66.52 L288.14,70.46 C286.352979,73.0539247 284.395321,75.5260532 282.28,77.86 C270.740329,89.3168632 252.215947,89.6262814 240.300085,78.5612029 C228.384223,67.4961244 227.32308,48.9995731 237.895324,36.6443562 C248.467568,24.2891392 266.905796,22.4780193 279.68,32.54 C280.56,33.29 281.43,34.08 282.28,34.94 C282.64,35.2933333 283.64,36.41 285.28,38.29 L279.74,43.88 L250.78,72.91 Z M269.2,38.82 C267.96,37.8666667 265.173333,37.39 260.84,37.39 C250.34659,37.39 241.84,45.8965898 241.84,56.39 C241.84,60.69 242.32,63.47 243.28,64.75 L269.2,38.82 Z" id="Shape"></path>
                <path d="M307.57,72.8 C309.049933,74.2148303 309.872654,76.1828358 309.84,78.23 C309.941699,81.0561648 308.49197,83.7122804 306.059985,85.1555395 C303.627999,86.5987986 300.602001,86.5987986 298.170015,85.1555395 C295.73803,83.7122804 294.288301,81.0561648 294.39,78.23 C294.360084,76.1793404 295.190644,74.2099351 296.68,72.8 C299.69614,69.8144938 304.55386,69.8144938 307.57,72.8 Z" id="Shape"></path>
                <polygon id="Shape" points="334.23 0.05 334.23 85.32 323.15 85.32 323.15 0.05"></polygon>
                <path d="M362.08,10.23 C363.555626,11.6796433 364.386844,13.6614406 364.386844,15.73 C364.386844,17.7985594 363.555626,19.7803567 362.08,21.23 C359.047021,24.2029144 354.192979,24.2029144 351.16,21.23 C349.684374,19.7803567 348.853156,17.7985594 348.853156,15.73 C348.853156,13.6614406 349.684374,11.6796433 351.16,10.23 C354.186381,7.24097009 359.053619,7.24097009 362.08,10.23 Z M362.13,30.52 L362.13,85.32 L351.13,85.32 L351.13,30.52 L362.13,30.52 Z" id="Shape"></path>
                <path d="M390.09,45.22 L390.09,85.32 L379,85.32 L379,30.52 L390.07,30.52 L390.07,36.91 C392.376667,30.6633333 397.01,27.5366667 403.97,27.53 C409.896667,27.53 414.61,29.6366667 418.11,33.85 C421.61,38.0633333 423.413333,43.3433333 423.52,49.69 L423.52,85.32 L412.52,85.32 L412.52,50.11 C412.55077,47.0390042 411.296297,44.0949795 409.06,41.99 C404.501982,37.5157219 397.211321,37.4802658 392.61,41.91 C391.591986,42.865709 390.740325,43.9843589 390.09,45.22 Z" id="Shape"></path>
                <polygon id="Shape" points="473.49 30.52 458.63 48.84 479.29 85.32 466.14 85.32 451.23 58 450.75 58.58 450.75 85.32 439.67 85.32 439.67 10 450.75 10 450.75 41 459.27 30.57"></polygon>
            </g>
            <g id="Group" transform="translate(79.000000, 56.500000)">
                <path d="M19.8,174.66 C13.22,169.11 3.42,173.76 1.89,183.13 C1.8,183.67 1.72,184.2 1.64,184.73 C1.5,185.6 2.71,186.83 3.57,187.73 C10.91,194.98 18.85,201.82 25.57,209.48 C38.3168061,224.042554 48.1603535,240.908963 54.57,259.17 C55.09,260.63 56.37,262.7 57.67,263.01 L58.84,263.29 C67.73,265.29 75.19,254.71 71.28,245.61 C60.43,220.29 39.27,191.05 19.8,174.66 Z" id="Shape"></path>
                <path d="M3.13,231 L0.23,246.5 C-0.24373058,248.412262 0.912088422,250.34904 2.82,250.84 L18.69,253.84 C21.59,254.38 23.81,250.69 22.23,247.95 C18.3922571,241.212704 13.9292649,234.85135 8.9,228.95 C7,226.76 3.7,227.94 3.13,231 Z" id="Shape"></path>
                <path d="M336.52,119.26 C328,84 305.06,56.78 273.46,35.05 C241.24,12.89 204.36,2.53 165,0.34 C122.06,-2 83.56,8.26 50.7,31.9 C36.81,41.9 26.19,53.22 18.64,65.77 C-0.08,97.42 2.04,123.77 2.04,123.77 C2.239026,127.837257 3.33883602,131.809552 5.26,135.4 C5.43394409,135.8915 5.69851655,136.346022 6.04,136.74 C7.21225376,138.629509 8.64653223,140.343236 10.3,141.83 C10.24,141.83 61.16,180.62 89.24,246.75 C89.73,247.9 90.19,249.07 90.61,250.26 C93.39,258.03 99.54,263.97 107.51,265.46 C107.51,265.46 137.8,273.28 181.01,270.41 C301.34,269.91 328.37,191.21 330.17,185.52 C330.53,184.55 330.63,184.3 330.73,184.07 C339.42,163.23 341.91,141.57 336.52,119.26 Z" id="Shape"></path>
            </g>
        </g>
    </g>
</svg>