<?xml version="1.0" encoding="UTF-8"?>
<svg width="275px" height="250px" viewBox="0 0 275 250" version="1.1" xmlns="http://www.w3.org/2000/svg" xmlns:xlink="http://www.w3.org/1999/xlink">
    <!-- Generator: Sketch 48.2 (47327) - http://www.bohemiancoding.com/sketch -->
    <title>logo-coloured</title>
    <desc>Created with Sketch.</desc>
    <defs>
        <linearGradient x1="-0.00104166667%" y1="50.000551%" x2="99.9989583%" y2="50.000551%" id="linearGradient-1">
            <stop stop-color="#EF32D9" offset="0%"></stop>
            <stop stop-color="#89FFFD" offset="100%"></stop>
        </linearGradient>
        <path d="M10.5457635,1.31822568 C6.98561574,-1.68463454 1.68326796,0.83127537 0.85545244,5.90096911 C0.80675741,6.1931393 0.763472938,6.47989892 0.720188466,6.76665855 C0.644440641,7.23737717 1.29911827,7.90287593 1.76442635,8.38982623 C5.73577662,12.3124815 10.0317604,16.0133038 13.667656,20.157792 C20.5643906,28.0369477 25.8903,37.1626177 29.358277,47.0428594 C29.6396261,47.832801 30.3321776,48.9527867 31.0355503,49.1205141 L31.6685857,49.2720097 C36.4785726,50.3541215 40.5148496,44.6297501 38.399321,39.7061415 C32.5288646,26.0066062 21.0801218,10.1861318 10.5457635,1.31822568 Z" id="path-2"></path>
        <path d="M2.52636175,1.80131484 L0.957299654,10.1876812 C0.70098493,11.2223218 1.32634762,12.270227 2.35863442,12.5358638 L10.9451915,14.1590315 C12.5142536,14.4512017 13.7153977,12.4547054 12.8605294,10.9722123 C10.7840959,7.32695855 8.36936769,3.88511046 5.64825427,0.69215025 C4.62024807,-0.492762162 2.83476361,0.145683795 2.52636175,1.80131484 Z" id="path-4"></path>
        <path d="M182.908987,65.3437291 C178.299191,46.2660982 165.887368,31.5385567 148.790002,19.7814121 C131.357181,7.79161344 111.40304,2.18627436 90.1070796,1.00136195 C66.8741394,-0.264708843 46.0434874,5.28652465 28.2643907,18.077086 C20.7491243,23.487645 15.0031107,29.6123977 10.9181387,36.4026492 C0.789572326,53.5270683 1.93661082,67.7838911 1.93661082,67.7838911 C2.04429502,69.9845045 2.63935371,72.1337382 3.67881081,74.0763712 C3.77292428,74.3423002 3.91607277,74.588222 4.10083441,74.8013861 C4.73508922,75.8237161 5.51111404,76.7509382 6.40573252,77.5553606 C6.37326917,77.5553606 33.9238354,98.5429188 49.1166849,134.322945 C49.3818023,134.945159 49.630688,135.578195 49.8579315,136.222051 C51.3620669,140.426056 54.6895606,143.639928 59.0017761,144.446101 C59.0017761,144.446101 75.3903592,148.677158 98.7693845,147.124328 C163.87464,146.8538 178.499381,104.272701 179.473282,101.194093 C179.668062,100.669268 179.722168,100.534005 179.776273,100.409562 C184.478049,89.1339568 185.825278,77.4146861 182.908987,65.3437291 Z" id="path-6"></path>
    </defs>
    <g id="logo-coloured" stroke="none" stroke-width="1" fill="none" fill-rule="evenodd" transform="translate(-50.000000, -24.000000)">
        <path d="M314.023216,223.647198 L305.983125,233.559342 L317.16134,253.297061 L310.046455,253.297061 L301.979312,238.515414 L301.719605,238.829226 L301.719605,253.297061 L295.724706,253.297061 L295.724706,212.544731 L301.719605,212.544731 L301.719605,229.317463 L306.329401,223.67425 L314.023216,223.647198 Z M268.899154,231.600719 L268.899154,253.297061 L262.898844,253.297061 L262.898844,223.647198 L268.888333,223.647198 L268.888333,227.104545 C270.136369,223.724749 272.643261,222.033047 276.40901,222.02944 C279.615668,222.02944 282.165845,223.169265 284.05954,225.448914 C285.953236,227.728563 286.92894,230.585338 286.986653,234.019239 L286.986653,253.297061 L281.035038,253.297061 L281.035038,234.246483 C281.051686,232.584902 280.372946,230.99202 279.162985,229.853109 C276.696842,227.432274 272.752187,227.41309 270.262615,229.809824 C269.711813,230.326916 269.251016,230.932168 268.899154,231.600719 Z M253.744179,212.669173 C254.542575,213.453511 254.99231,214.525775 254.99231,215.644981 C254.99231,216.764187 254.542575,217.83645 253.744179,218.620788 C252.103167,220.229301 249.476859,220.229301 247.835848,218.620788 C247.037452,217.83645 246.587717,216.764187 246.587717,215.644981 C246.587717,214.525775 247.037452,213.453511 247.835848,212.669173 C249.473289,211.051941 252.106737,211.051941 253.744179,212.669173 Z M253.771231,223.647198 L253.771231,253.297061 L247.819617,253.297061 L247.819617,223.647198 L253.771231,223.647198 Z M238.675772,207.161224 L238.675772,253.297061 L232.680873,253.297061 L232.680873,207.161224 L238.675772,207.161224 Z M224.251222,246.523041 C225.051948,247.288543 225.497086,248.353344 225.479419,249.460974 C225.534443,250.990087 224.750059,252.427194 223.434219,253.208078 C222.118379,253.988962 220.481145,253.988962 219.165304,253.208078 C217.849465,252.427194 217.06508,250.990087 217.120105,249.460974 C217.103919,248.351453 217.553298,247.285895 218.359123,246.523041 C219.991023,244.907715 222.619321,244.907715 224.251222,246.523041 Z M203.490907,228.137962 C202.819998,227.622155 201.312255,227.364252 198.96768,227.364252 C193.290158,227.364252 188.687618,231.966792 188.687618,237.644314 C188.687618,239.970854 188.947325,241.474989 189.466738,242.167541 L203.490907,228.137962 Z M193.524657,246.582557 C194.5202,247.462675 196.334541,247.904537 198.96768,247.908144 C201.706912,247.950944 204.343602,246.867319 206.261113,244.910694 C206.509999,244.640166 207.018591,244.045005 207.786891,243.12521 L213.738506,245.25697 C212.771627,246.660428 211.712425,247.997988 210.567918,249.260784 C204.324311,255.459587 194.301585,255.627 187.854438,249.640174 C181.40729,243.653348 180.833153,233.64568 186.553327,226.960817 C192.273502,220.275954 202.249614,219.296036 209.161173,224.74013 C209.637302,225.145922 210.108021,225.573357 210.567918,226.038665 C210.762698,226.229838 211.303754,226.834017 212.191086,227.851202 L209.193636,230.875704 L193.524657,246.582557 Z M171.422524,243.12521 L177.374139,245.25697 C176.408529,246.659915 175.351161,247.99744 174.208962,249.260784 C169.511963,253.96118 162.445719,255.368735 156.306115,252.826927 C150.166511,250.28512 146.163048,244.294687 146.163048,237.649724 C146.163048,231.004762 150.166511,225.014328 156.306115,222.472521 C162.445719,219.930713 169.511963,221.338268 174.208962,226.038665 C175.345615,227.285819 176.402759,228.603182 177.374139,229.982962 L171.422524,232.147186 C170.654225,231.205748 170.136614,230.601569 169.869694,230.334648 C166.5796,227.042096 161.487725,226.371037 157.456933,228.698768 C153.42614,231.026499 151.462332,235.772125 152.669643,240.267458 C153.876952,244.762791 157.954092,247.886002 162.608724,247.881091 C165.346087,247.922401 167.980537,246.838893 169.896746,244.883641 C170.145632,244.631149 170.654225,244.045005 171.422524,243.12521 Z M138.775211,212.669173 C139.573607,213.453511 140.023343,214.525775 140.023343,215.644981 C140.023343,216.764187 139.573607,217.83645 138.775211,218.620788 C137.13604,220.228654 134.511463,220.228654 132.872291,218.620788 C132.073895,217.83645 131.62416,216.764187 131.62416,215.644981 C131.62416,214.525775 132.073895,213.453511 132.872291,212.669173 C134.507886,211.052578 137.139617,211.052578 138.775211,212.669173 Z M138.807675,223.647198 L138.807675,253.297061 L132.85606,253.297061 L132.85606,223.647198 L138.807675,223.647198 Z M101.766988,230.399575 C98.8477674,233.342731 97.9818864,237.751244 99.5710489,241.579896 C101.160211,245.408548 104.893433,247.908107 109.038779,247.918965 C113.700117,247.931175 117.786276,244.805497 118.994458,240.30344 C120.20264,235.801384 118.230423,231.049866 114.189271,228.726656 C110.148118,226.403446 105.049578,227.090071 101.766988,230.399575 Z M109.038779,221.201625 C116.479248,221.18314 123.002988,226.168171 124.939774,233.352165 C126.876561,240.53616 123.74267,248.124864 117.301211,251.848912 C110.859752,255.572959 102.719526,254.502242 97.4601831,249.239141 C92.7699317,244.545539 91.3641138,237.49104 93.8968446,231.358044 C96.4295755,225.225048 102.403413,221.21811 109.038779,221.201625 Z M71.9872716,253.297061 L57.8386599,223.647198 L64.5802164,223.647198 L73.4859964,242.892556 L82.4188292,223.647198 L89.1603857,223.647198 L74.9847212,253.297061 L71.9872716,253.297061 Z" id="Voice.link" fill="url(#linearGradient-1)" fill-rule="nonzero"></path>
        <g id="Shape-+-Shape-Mask" transform="translate(94.000000, 44.000000)">
            <g id="Group" transform="translate(1.000000, 94.000000)">
                <mask id="mask-3" fill="white">
                    <use xlink:href="#path-2"></use>
                </mask>
                <use id="Mask" fill="#FFFFFF" fill-rule="nonzero" xlink:href="#path-2"></use>
                <rect id="Rectangle-2" fill="url(#linearGradient-1)" mask="url(#mask-3)" x="-95" y="-138" width="375" height="667"></rect>
            </g>
            <g id="Group-2" transform="translate(0.000000, 124.000000)">
                <mask id="mask-5" fill="white">
                    <use xlink:href="#path-4"></use>
                </mask>
                <use id="Shape" fill="#FFFFFF" fill-rule="nonzero" xlink:href="#path-4"></use>
                <rect id="Rectangle-2-Copy" fill="url(#linearGradient-1)" mask="url(#mask-5)" x="-94" y="-168" width="375" height="667"></rect>
            </g>
            <mask id="mask-7" fill="white">
                <use xlink:href="#path-6"></use>
            </mask>
            <use id="Shape" fill="#FFFFFF" fill-rule="nonzero" xlink:href="#path-6"></use>
            <rect id="Rectangle-2-Copy-2" fill="url(#linearGradient-1)" mask="url(#mask-7)" x="-94" y="-44" width="375" height="667"></rect>
        </g>
    </g>
</svg>