<?xml version="1.0" encoding="UTF-8"?>
<svg width="149px" height="150px" viewBox="0 0 149 150" version="1.1" xmlns="http://www.w3.org/2000/svg" xmlns:xlink="http://www.w3.org/1999/xlink">
    <!-- Generator: Sketch 48.2 (47327) - http://www.bohemiancoding.com/sketch -->
    <title>messenger-white</title>
    <desc>Created with Sketch.</desc>
    <defs></defs>
    <g id="vendor-logos-copy" stroke="none" stroke-width="1" fill="none" fill-rule="evenodd" transform="translate(-133.000000, -462.000000)">
        <path d="M215.959645,533.515006 L243.674988,518.087439 L212.819854,551.058831 L198.432893,535.630366 L170.376073,551.058831 L201.249179,518.087439 L215.959645,533.515006 Z M207.205075,585.413115 C201.572504,585.413115 196.145717,584.645691 191.009186,583.211488 L171.793022,593.826027 L171.793022,573.774144 C158.958882,564.131016 150.749957,549.369329 150.749957,532.815787 C150.749957,503.768684 176.025539,480.217561 207.205075,480.217561 C238.384612,480.217561 263.659295,503.768684 263.659295,532.815787 C263.659295,561.861992 238.384612,585.413115 207.205075,585.413115 M207.375814,462.91277 C166.46778,462.91277 133.291502,496.071974 133.291502,536.996183 C133.291502,577.904218 166.46778,611.079597 207.375814,611.079597 C248.300023,611.079597 281.459228,577.904218 281.459228,536.996183 C281.459228,496.071974 248.300023,462.91277 207.375814,462.91277" id="messenger-white" fill="#FFFFFF"></path>
    </g>
</svg>