<?xml version="1.0" encoding="UTF-8"?>
<svg width="149px" height="150px" viewBox="0 0 149 150" version="1.1" xmlns="http://www.w3.org/2000/svg" xmlns:xlink="http://www.w3.org/1999/xlink">
    <!-- Generator: Sketch 48.2 (47327) - http://www.bohemiancoding.com/sketch -->
    <title>messenger</title>
    <desc>Created with Sketch.</desc>
    <defs></defs>
    <g id="vendor-logos" stroke="none" stroke-width="1" fill="none" fill-rule="evenodd" transform="translate(-133.000000, -462.000000)">
        <g id="messenger" transform="translate(133.000000, 462.000000)" fill="#22262a">
            <path d="M74.3758139,0.912769675 C115.300023,0.912769675 148.459228,34.071974 148.459228,74.9961834 C148.459228,115.904218 115.300023,149.079597 74.3758139,149.079597 C33.4677798,149.079597 0.291501574,115.904218 0.291501574,74.9961834 C0.291501574,34.071974 33.4677798,0.912769675 74.3758139,0.912769675 Z M74.2050755,123.413115 C105.384612,123.413115 130.659295,99.8619922 130.659295,70.8157872 C130.659295,41.7686837 105.384612,18.217561 74.2050755,18.217561 C43.0255385,18.217561 17.7499575,41.7686837 17.7499575,70.8157872 C17.7499575,87.3693294 25.9588825,102.131016 38.7930222,111.774144 L38.7930222,131.826027 L58.0091855,121.211488 C63.145717,122.645691 68.5725039,123.413115 74.2050755,123.413115 Z M82.9596446,71.5150061 L110.674988,56.0874392 L79.8198544,89.0588313 L65.4328933,73.6303657 L37.3760728,89.0588313 L68.2491792,56.0874392 L82.9596446,71.5150061 Z"></path>
        </g>
    </g>
</svg>